<svg width="1512" height="254" viewBox="0 0 1512 254" fill="none" xmlns="http://www.w3.org/2000/svg">
<path d="M-70.2134 0V0C-0.0732178 0 56.7866 56.8598 56.7866 127V127C56.7866 197.14 -0.0732178 254 -70.2134 254V254V0Z" fill="#9C6644"/>
<path d="M56.7866 0V0C126.927 0 183.787 56.8598 183.787 127V127C183.787 197.14 126.927 254 56.7866 254V254V0Z" fill="#7F5539"/>
<path d="M310.787 254V254C240.646 254 183.787 197.14 183.787 127V127C183.787 56.8598 240.646 0 310.787 0V0L310.787 254Z" fill="#9C6644"/>
<path d="M310.787 0H313.641C383.781 0 440.641 56.8598 440.641 127V127C440.641 197.14 383.781 254 313.641 254H310.787V0Z" fill="#7F5539"/>
<path d="M440.64 0V0C509.992 0 566.213 56.221 566.213 125.573V128.427C566.213 197.779 509.992 254 440.64 254V254V0Z" fill="#B08968"/>
<path d="M566.213 0V0C636.354 0 693.213 56.8598 693.213 127V127C693.213 197.14 636.354 254 566.213 254V254V0Z" fill="#9C6644"/>
<path d="M818.787 254V254C749.435 254 693.214 197.779 693.214 128.427V125.573C693.214 56.221 749.435 0 818.787 0V0V254Z" fill="#DDB892"/>
<path d="M818.787 0V0C888.927 0 945.787 56.8598 945.787 127V127C945.787 197.14 888.927 254 818.787 254V254V0Z" fill="#7F5539"/>
<path d="M945.787 0H947.214C1017.35 0 1074.21 56.8598 1074.21 127V127C1074.21 197.14 1017.35 254 947.214 254H945.787V0Z" fill="#B08968"/>
<path d="M1074.21 0V0C1144.35 0 1201.21 56.8598 1201.21 127V127C1201.21 197.14 1144.35 254 1074.21 254V254V0Z" fill="#9C6644"/>
<path d="M1328.21 254V254C1258.07 254 1201.21 197.14 1201.21 127V127C1201.21 56.8598 1258.07 0 1328.21 0V0V254Z" fill="#DDB892"/>
<path d="M1455.21 254V254C1385.07 254 1328.21 197.14 1328.21 127V127C1328.21 56.8598 1385.07 0 1455.21 0V0V254Z" fill="#7F5539"/>
<path d="M1580.79 254V254C1511.43 254 1455.21 197.779 1455.21 128.427V125.573C1455.21 56.221 1511.43 0 1580.79 0V0V254Z" fill="#9C6644"/>
</svg>
