<?xml version="1.0" encoding="UTF-8"?>
<svg id="Livello_2" data-name="Livello 2" xmlns="http://www.w3.org/2000/svg" viewBox="0 0 54.27 62.87">
  <defs>
    <style>
      .cls-1 {
        fill: #fff;
      }
    </style>
  </defs>
  <g id="Livello_1-2" data-name="Livello 1">
    <path class="cls-1" d="M18.45,4.43V0h17.91V4.43h9.23v4.34h4.34v4.88h4.34V49.39h-4.34v4.88h-4.34v4.34h-9.23v4.25H18.45v-4.25H4.88v-9.23H0V9.86c.12-.72,.48-1.09,1.09-1.09h3.8V4.43h13.57Zm17.91,.09H18.45v4.25h-3.8c-.72,.12-1.08,.48-1.08,1.09v3.8h-4.34V49.39h4.34v3.8c.12,.72,.48,1.09,1.08,1.09h3.8v4.25h17.91v-4.25h4.34v-3.8c0-.36,.18-.54,.54-.54l-.54-1.09V14.2c0-.36,.18-.54,.54-.54l-.54-1.09v-3.8h-4.34V4.52Z"/>
  </g>
</svg>