<?xml version="1.0" encoding="UTF-8"?>
<svg id="Livello_2" data-name="Livello 2" xmlns="http://www.w3.org/2000/svg" viewBox="0 0 58.52 67.75">
  <defs>
    <style>
      .cls-1 {
        fill: #fff;
      }
    </style>
  </defs>
  <g id="Livello_1-2" data-name="Livello 1">
    <path class="cls-1" d="M31.39,36.36v-4.34h9.32v-4.88h4.34V13.57h-4.34v-4.34H13.57v13.57H0V9.23H4.34V4.88H13.57V0h26.05c.72,.12,1.08,.48,1.08,1.09v3.8h8.59v4.34h4.88V27.14h-3.8c-.72,.12-1.08,.48-1.08,1.09v3.8h-4.25v4.34h-13.57v4.34h-4.34v3.71c0,.72-.36,1.09-1.08,1.09h-7.96v4.34h-4.52v9.23H49.3v-9.23h9.23v17.91H4.34v-4.34H0v-4.34H4.34v-4.88h4.34v-4.34h4.79v-4.34h4.43v-4.79h4.34v-4.34h9.14Z"/>
  </g>
</svg>