<?xml version="1.0" encoding="UTF-8"?>
<svg id="Livello_2" data-name="Livello 2" xmlns="http://www.w3.org/2000/svg" viewBox="0 0 54.27 67.75">
  <defs>
    <style>
      .cls-1 {
        fill: #fff;
      }
    </style>
  </defs>
  <g id="Livello_1-2" data-name="Livello 1">
    <path class="cls-1" d="M13.57,0h21.71c.72,.12,1.08,.48,1.08,1.09v3.8h8.68v4.34h4.88V27.14h-3.8c-.72,.12-1.09,.48-1.09,1.09v3.8h4.88v4.34h4.34v17.82h-4.34v3.8c0,.72-.36,1.09-1.09,1.09h-3.8v4.34h-8.68v4.34H9.23v-4.34H0v-9.23H8.14c.72,.12,1.08,.48,1.08,1.09v3.8h27.14v-4.88h4.34v-17.82H17.91v-4.34h4.88v-4.88h17.91V13.57h-4.34v-4.34H13.57v13.57H0V9.23H4.34V4.88H13.57V0Z"/>
  </g>
</svg>