<?xml version="1.0" encoding="UTF-8"?>
<svg id="Livello_2" data-name="Livello 2" xmlns="http://www.w3.org/2000/svg" viewBox="0 0 73.7 79.05">
  <g id="Livello_1-2" data-name="Livello 1">
    <path d="M5.91,50.84v5.69H45.72V27.98h10.92v28.55h17.06v5.46h-15.7c-.91,.15-1.36,.61-1.36,1.36v15.7h-10.92v-5.46h-6.14v-11.6H0v-11.26H5.8c-.23-.23-.34-.57-.34-1.02v-3.41c.15-.83,.61-1.25,1.36-1.25h4.78v-10.92h5.46v-11.6h5.46V12.28c.15-.91,.61-1.36,1.36-1.36h4.78V0h10.92V10.92h-5.46v11.6h-5.46v5.46h-4.78c-.91,.15-1.36,.61-1.36,1.36v10.24h-5.46v5.46h-5.35v4.66c0,.91-.45,1.36-1.36,1.36h-3.53c-.38,0-.68-.08-.91-.23Z"/>
  </g>
</svg>