<?xml version="1.0" encoding="UTF-8"?>
<svg id="Livello_2" data-name="Livello 2" xmlns="http://www.w3.org/2000/svg" viewBox="0 0 58.61 62.87">
  <defs>
    <style>
      .cls-1 {
        fill: #fff;
      }
    </style>
  </defs>
  <g id="Livello_1-2" data-name="Livello 1">
    <path class="cls-1" d="M4.7,40.43v4.52h31.66V22.25h8.68v22.7h13.57v4.34h-12.48c-.72,.12-1.09,.48-1.09,1.09v12.48h-8.68v-4.34h-4.88v-9.23H0v-8.96H4.61c-.18-.18-.27-.45-.27-.81v-2.71c.12-.66,.48-1,1.08-1h3.8v-8.68h4.34v-9.23h4.34V9.77c.12-.72,.48-1.09,1.08-1.09h3.8V0h8.68V8.68h-4.34v9.23h-4.34v4.34h-3.8c-.72,.12-1.08,.48-1.08,1.09v8.14h-4.34v4.34h-4.25v3.71c0,.72-.36,1.09-1.08,1.09h-2.8c-.3,0-.54-.06-.72-.18Z"/>
  </g>
</svg>