<?xml version="1.0" encoding="UTF-8"?>
<svg id="Livello_2" data-name="Livello 2" xmlns="http://www.w3.org/2000/svg" viewBox="0 0 68.13 79.05">
  <g id="Livello_1-2" data-name="Livello 1">
    <path d="M45.61,27.98H23.2v4.78c0,.91-.45,1.36-1.36,1.36H6.14V0H62.78V10.92H18.43c-.91,.15-1.36,.61-1.36,1.36v10.24h28.66v5.46h10.12c.91,.15,1.36,.61,1.36,1.36v4.78h5.46v5.46h5.46v22.41h-5.46v6.14h-5.46v5.46h-11.6v5.46H16.95v-5.46H6.03v-5.46H1.36c-.91,0-1.36-.45-1.36-1.36v-3.41c.15-.91,.61-1.36,1.36-1.36h3.41c.91,.15,1.36,.61,1.36,1.36v4.78H45.61v-6.14h5.46v-27.87h-5.46v-6.14Z"/>
  </g>
</svg>