<?xml version="1.0" encoding="UTF-8"?>
<svg id="Livello_2" data-name="Livello 2" xmlns="http://www.w3.org/2000/svg" viewBox="0 0 54.18 62.87">
  <defs>
    <style>
      .cls-1 {
        fill: #fff;
      }
    </style>
  </defs>
  <g id="Livello_1-2" data-name="Livello 1">
    <path class="cls-1" d="M36.27,22.25H18.45v3.8c0,.72-.36,1.09-1.08,1.09H4.88V0H49.93V8.68H14.65c-.72,.12-1.08,.48-1.08,1.09v8.14h22.79v4.34h8.05c.72,.12,1.08,.48,1.08,1.09v3.8h4.34v4.34h4.34v17.82h-4.34v4.88h-4.34v4.34h-9.23v4.34H13.48v-4.34H4.79v-4.34H1.08c-.72,0-1.08-.36-1.08-1.09v-2.71c.12-.72,.48-1.09,1.08-1.09H3.8c.72,.12,1.08,.48,1.08,1.09v3.8h31.39v-4.88h4.34V27.14h-4.34v-4.88Z"/>
  </g>
</svg>