<?xml version="1.0" encoding="UTF-8"?>
<svg id="Livello_2" data-name="Livello 2" xmlns="http://www.w3.org/2000/svg" viewBox="0 0 68.13 85.19">
  <g id="Livello_1-2" data-name="Livello 1">
    <path d="M23.09,40.26v-6.14H55.85c.91,.15,1.36,.61,1.36,1.36v4.78h10.92v27.87h-5.46v6.14h-5.46v5.46h-6.14v5.46H23.09v-5.46H11.6v-5.46H6.14v-6.14H0V28.66H6.14v-11.6h5.46v-5.46h5.46V6.14h11.49V0h27.3c.91,.15,1.36,.61,1.36,1.36V6.14h5.46v5.46H28.55v5.46h-5.46v4.78c0,.91-.45,1.36-1.36,1.36h-4.66v15.7c.08,.91,.53,1.36,1.36,1.36h4.66Zm.11,0v5.46h-6.14v22.41h4.66c.91,.15,1.36,.61,1.36,1.36v4.78h27.98v-4.78c.15-.91,.61-1.36,1.36-1.36h4.78v-22.41h-6.14v-5.46H23.2Z"/>
  </g>
</svg>