<?xml version="1.0" encoding="UTF-8"?>
<svg id="Livello_2" data-name="Livello 2" xmlns="http://www.w3.org/2000/svg" viewBox="0 0 73.59 79.05">
  <g id="Livello_1-2" data-name="Livello 1">
    <path d="M16.95,73.59H5.46v-5.46H0v-23.09H5.46v-5.46h11.6v-5.46h-4.78c-.91,0-1.36-.45-1.36-1.36v-4.78H5.46V10.92h5.46V5.46h6.14V0H56.64V5.46h11.49v5.46h5.46v11.6h-5.46v5.46h-4.78c-.91,.15-1.36,.61-1.36,1.36v4.78h-5.46v5.46h11.6v5.46h5.46v23.09h-5.46v5.46h-6.14v5.46H16.95v-5.46Zm.11,0H56.53v-5.46h5.46v-17.06h-5.46v-6.03h-16.95v-5.46H22.52v5.46H12.28c-.91,.08-1.36,.49-1.36,1.25v20.47c.15,.91,.61,1.36,1.36,1.36h4.78v5.46ZM56.53,5.46H22.52v5.46h-5.46v11.6h5.46v5.46h17.06v6.14h11.49v-6.14h5.46V5.46Z"/>
  </g>
</svg>