<?xml version="1.0" encoding="UTF-8"?>
<svg id="Livello_2" data-name="Livello 2" xmlns="http://www.w3.org/2000/svg" viewBox="0 0 58.52 62.87">
  <defs>
    <style>
      .cls-1 {
        fill: #fff;
      }
    </style>
  </defs>
  <g id="Livello_1-2" data-name="Livello 1">
    <path class="cls-1" d="M13.48,58.52H4.34v-4.34H0v-18.36H4.34v-4.34H13.57v-4.34h-3.8c-.72,0-1.08-.36-1.08-1.09v-3.8H4.34V8.68h4.34V4.34h4.88V0h31.48V4.34h9.14v4.34h4.34v9.23h-4.34v4.34h-3.8c-.72,.12-1.09,.48-1.09,1.09v3.8h-4.34v4.34h9.23v4.34h4.34v18.36h-4.34v4.34h-4.88v4.34H13.48v-4.34Zm.09,0h31.39v-4.34h4.34v-13.57h-4.34v-4.79h-13.48v-4.34h-13.57v4.34H9.77c-.72,.06-1.08,.39-1.08,1v16.28c.12,.72,.48,1.09,1.08,1.09h3.8v4.34ZM44.96,4.34H17.91v4.34h-4.34v9.23h4.34v4.34h13.57v4.88h9.14v-4.88h4.34V4.34Z"/>
  </g>
</svg>