<?xml version="1.0" encoding="UTF-8"?>
<svg id="Livello_2" data-name="Livello 2" xmlns="http://www.w3.org/2000/svg" viewBox="0 0 68.02 79.05">
  <g id="Livello_1-2" data-name="Livello 1">
    <path d="M22.41,5.46V0h28.66V5.46h11.6v5.46h5.35V56.53h-5.35v5.46h-4.78c-.91,.15-1.36,.61-1.36,1.36v4.78h-5.46v5.46h-5.46v5.46H11.49v-5.46h27.98v-5.46h6.14v-6.14h5.46v-5.46h5.46v-11.49h-10.81v4.66c0,.91-.45,1.36-1.36,1.36H23.89c-.91,0-1.36-.45-1.36-1.36v-4.66H11.6v-5.46H5.46v-5.46H0V17.06H5.46v-4.78c.15-.91,.61-1.36,1.36-1.36h4.78V5.46h10.81Zm23.2,39.58v-5.46h5.46v-5.46h5.46V17.06h-5.46v-6.14h-5.46V5.46H22.52v5.46h-5.46v23.2h5.46v5.46h6.14v5.46h16.95Z"/>
  </g>
</svg>