<?xml version="1.0" encoding="UTF-8"?>
<svg id="Livello_2" data-name="Livello 2" xmlns="http://www.w3.org/2000/svg" viewBox="0 0 54.09 62.87">
  <defs>
    <style>
      .cls-1 {
        fill: #fff;
      }
    </style>
  </defs>
  <g id="Livello_1-2" data-name="Livello 1">
    <path class="cls-1" d="M17.82,4.34V0h22.79V4.34h9.23v4.34h4.25V44.96h-4.25v4.34h-3.8c-.72,.12-1.08,.48-1.08,1.09v3.8h-4.34v4.34h-4.34v4.34H9.14v-4.34H31.39v-4.34h4.88v-4.88h4.34v-4.34h4.34v-9.14h-8.59v3.71c0,.72-.36,1.09-1.09,1.09H19c-.72,0-1.08-.36-1.08-1.09v-3.71H9.23v-4.34H4.34v-4.34H0V13.57H4.34v-3.8c.12-.72,.48-1.09,1.09-1.09h3.8V4.34h8.59Zm18.45,31.48v-4.34h4.34v-4.34h4.34V13.57h-4.34v-4.88h-4.34V4.34H17.91v4.34h-4.34V27.14h4.34v4.34h4.88v4.34h13.48Z"/>
  </g>
</svg>