<svg width="367" height="43" viewBox="0 0 367 43" fill="none" xmlns="http://www.w3.org/2000/svg">
<path d="M194.588 42.3501V5.86609H221.263C222.663 6.64225 224.336 7.17816 225.468 8.26848C228.826 11.4978 231.381 15.2169 231.39 20.1649C231.39 20.9457 231.811 21.7219 231.996 22.5119C232.12 23.0478 232.361 23.6669 232.208 24.1427C230.984 27.9958 231.173 32.1261 228.896 35.8405C226.378 39.9431 222.945 42.1098 218.464 42.2762C210.605 42.5626 202.723 42.3547 194.588 42.3547V42.3501ZM222.515 30.6523C222.534 30.2873 222.478 29.8438 222.594 29.4511C223.786 25.3485 223.67 21.7172 222.617 17.9751C221.642 14.5101 218.764 13.2257 215.909 12.8561C211.788 12.3248 207.542 12.7175 203.37 12.7175V35.4386C208.568 35.0505 213.728 36.1916 218.829 34.3159C219.984 33.1656 221.226 31.9366 222.515 30.6523Z" fill="#8C8C8C"/>
<path d="M357.179 5.89856C363.416 7.84819 364.423 12.5975 363.832 18.3263C362.293 21.3663 360.122 23.9303 355.715 24.2584C358.172 25.5242 359.803 26.998 360.797 29.1833C362.732 33.4383 364.802 37.6332 366.978 42.1839H357.941C355.262 37.49 354.042 31.6088 349.575 27.6309H342.058V42.1654H333.289V5.89856H357.179ZM342.049 19.5737H354.222C354.615 17.9567 354.994 16.4044 355.239 15.4019C354.227 14.1637 353.589 13.3875 353.169 12.8747H342.049V19.5783V19.5737Z" fill="#8C8C8C"/>
<path d="M151.036 42.3502H143.713V34.6394H125.039C123.695 36.9171 122.165 39.5043 120.581 42.1885H111.697C112.168 41.2136 112.473 40.5022 112.847 39.8277C116.326 33.5676 119.685 27.2382 123.353 21.089C125.783 17.0142 127.155 12.3526 130.403 8.74904C130.463 6.77169 133.184 7.47855 133.313 5.73682H151.013C151.641 9.1556 151.659 38.6727 151.036 42.3455V42.3502ZM128.772 27.8203C131.706 26.2264 133.928 26.6931 136.095 26.6838C138.266 26.6792 140.488 26.2634 142.521 27.2659C142.9 26.8871 143.209 26.5822 143.464 26.3327V12.8239H137.689C133.424 16.6723 132.246 22.3364 128.777 27.8249L128.772 27.8203Z" fill="#8C8C8C"/>
<path d="M82.4701 41.3383C78.3444 43.0292 74.0016 42.2438 69.7282 42.327C64.6231 42.4286 59.5134 42.3501 54.2189 42.3501V34.7641C55.129 34.972 56.0022 35.3416 56.8846 35.3508C62.7289 35.4016 68.5778 35.3462 74.422 35.397C76.3763 35.4155 77.9794 34.801 79.3885 33.281V28.333C78.5939 28.0882 77.7022 27.5939 76.8013 27.5708C72.8559 27.483 68.9058 27.6678 64.9649 27.4922C61.3244 27.3305 58.2059 25.7736 55.9745 22.863C55.1752 21.8189 54.8056 20.4467 54.0248 18.7558C54.0248 18.1506 54.0988 16.991 54.011 15.8452C53.6368 10.7263 58.6587 5.48724 64.2951 5.69976C69.6958 5.90304 75.1104 5.76906 80.5158 5.71824C81.5507 5.709 82.5856 5.39484 83.7313 5.20081V12.7175C78.7925 12.7175 73.7337 12.7129 68.6702 12.7175C66.7421 12.7175 64.8094 13.4136 62.8721 14.8057V17.6378C63.4912 18.0305 64.3551 18.5803 65.2191 19.1254C65.0897 19.2548 64.9603 19.3888 64.831 19.5181C65.0989 19.5736 65.3669 19.6752 65.6395 19.6752C69.146 19.6844 72.6572 19.7075 76.1638 19.6752C80.7283 19.6336 84.3088 21.5971 87.0346 25.076C87.7414 25.9815 87.8847 27.3213 88.2589 28.4716C88.5084 29.2339 88.7024 30.0101 88.878 30.6199C88.7347 35.397 86.1106 38.728 82.4701 41.3244V41.3383Z" fill="#8C8C8C"/>
<path d="M299.115 5.83374H327.8V12.639H307.842V19.5227H325.107C325.536 22.1839 325.13 24.7295 325.361 27.4044H307.948V35.3H327.754V42.2577H299.119V5.83374H299.115Z" fill="#8C8C8C"/>
<path d="M159.527 5.8291H188.212V12.6251H167.39V19.5135H184.304C184.766 20.0633 185.14 20.5022 185.62 21.0704V27.4321H167.473V35.3231H188.175V42.2715H159.527V5.8291Z" fill="#8C8C8C"/>
<path d="M120.668 5.8845V13.4289C118.672 12.2277 116.565 12.8099 114.537 12.7359C112.357 12.6574 110.171 12.7175 107.704 12.7175V42.2114H98.9449V12.8653H89.2753C89.0119 10.5045 89.2106 8.25917 89.1228 5.87988H120.668V5.8845Z" fill="#8C8C8C"/>
<path d="M253.451 42.2761H245.413V25.8198C245.413 22.3409 245.468 18.8667 245.376 15.3925C245.352 14.5054 244.867 13.6322 244.576 12.699H233.257V5.94922H265.454V12.5789H253.451V42.2761Z" fill="#8C8C8C"/>
<path d="M10.939 12.8746C8.49507 11.2206 7.53412 8.52716 5.74619 6.12477C9.25275 2.97856 13.3276 1.06127 18.0307 0.543829C19.7586 0.35441 21.5327 0.460669 23.279 0.525349C26.5915 0.640848 29.5252 1.69882 31.8167 4.18437C33.7848 6.3188 35.8222 8.1437 36.6862 11.3407C37.5039 14.3807 36.9449 17.2451 37.3237 20.1556C35.4757 23.4358 35.1108 27.3397 32.4681 30.3658C30.6479 32.454 29.6453 35.2399 28.1623 37.9149C25.8431 36.2008 24.8452 33.4797 23.182 31.0496C25.2009 28.2129 26.1342 24.7849 28.3194 21.8928C29.5391 20.2804 29.9318 17.7071 29.4143 15.4571C29.0401 13.8263 28.0745 12.4495 26.7578 11.3315C25.9863 10.6754 25.3118 9.91777 24.6558 9.26635C22.9325 8.95219 21.2786 8.33312 19.68 8.45324C18.1231 8.56874 16.5385 9.28483 15.1155 10.0194C13.6602 10.7678 12.3897 11.8674 10.939 12.8746Z" fill="#8C8C8C"/>
<path d="M277.738 35.3647H293.538V42.0821C293.608 42.0221 293.511 42.1376 293.386 42.2115C293.275 42.2808 293.136 42.3455 293.007 42.3455C285.139 42.3501 277.271 42.3501 269.26 42.3501V5.8938C270.475 5.8476 271.871 5.7783 273.261 5.75058C274.703 5.72286 276.144 5.74596 277.738 5.74596V35.3647Z" fill="#8C8C8C"/>
<path d="M23.5424 10.9756C25.8709 12.2785 26.7671 14.4776 27.6357 17.0648C26.4853 18.6633 27.0028 21.1904 25.5613 23.1677C24.2169 25.0157 23.1266 27.0439 21.796 29.2014H13.0227C13.5632 27.0069 14.0945 24.8633 14.7044 22.3962H0.922989C4.60973 19.675 7.57576 17.1294 10.8883 15.1521C13.3091 13.706 15.3142 11.6594 18.2479 10.7954C19.9019 10.3057 20.9968 10.0793 22.3966 10.9479C22.7108 11.1419 23.2513 10.9756 23.5516 10.9756H23.5424Z" fill="#8C8C8C"/>
<path d="M9.85787 37.0002H3.12657V31.1697H0.433121C1.10302 28.6657 1.70361 26.4065 2.31345 24.1243H12.0246C11.4887 26.4204 10.9852 28.5733 10.4585 30.851H20.1697C22.7615 34.5562 25.2701 38.1505 28.0282 42.1006C22.8585 42.6134 17.9844 42.2161 13.2859 42.3593C12.1725 40.6222 11.1468 39.0145 9.85787 37.0002Z" fill="#8C8C8C"/>
</svg>
