<svg width="276" height="251" viewBox="0 0 276 251" fill="none" xmlns="http://www.w3.org/2000/svg">
<g clip-path="url(#clip0_114_15)">
<path d="M275.629 125.177C275.657 142.59 272.029 159.815 264.98 175.738C264.753 176.252 264.522 176.764 264.288 177.272C264.173 177.527 264.055 177.78 263.936 178.035C263.818 178.288 263.699 178.544 263.578 178.796C263.422 179.123 263.266 179.448 263.107 179.772C262.911 180.18 262.711 180.585 262.505 180.991C262.48 181.047 262.452 181.103 262.421 181.159C262.25 181.502 262.078 181.845 261.901 182.188C261.863 182.262 261.826 182.337 261.785 182.409C261.583 182.808 261.374 183.207 261.162 183.603V183.606C260.937 184.027 260.712 184.447 260.485 184.865C259.924 185.9 259.348 186.926 258.755 187.942C258.578 188.244 258.403 188.547 258.222 188.846C258.057 189.126 257.892 189.404 257.724 189.681C257.608 189.875 257.493 190.065 257.374 190.255C257.187 190.564 256.997 190.872 256.804 191.181C256.801 191.184 256.801 191.184 256.801 191.187C256.374 191.873 255.937 192.555 255.498 193.232H255.495C255.292 193.547 255.086 193.858 254.881 194.17V194.173C254.26 195.108 253.627 196.034 252.982 196.951V196.954C252.98 196.954 252.978 196.955 252.976 196.957V196.96L252.97 196.966C252.459 197.699 251.937 198.425 251.405 199.145V199.148C251.065 199.61 250.722 200.071 250.376 200.526C250.093 200.9 249.806 201.273 249.516 201.645C249.457 201.726 249.394 201.804 249.329 201.885V201.888C249.251 201.991 249.173 202.091 249.089 202.194V202.197C247.858 203.771 246.589 205.314 245.283 206.826H245.28C245.211 206.91 245.139 206.991 245.068 207.072C244.999 207.153 244.924 207.234 244.853 207.318H244.849C244.74 207.446 244.628 207.574 244.516 207.702C244.407 207.83 244.291 207.958 244.176 208.085V208.088C237.368 215.77 229.642 222.585 221.171 228.381C220.043 229.158 218.9 229.913 217.742 230.648C217.455 230.832 217.169 231.012 216.879 231.193C216.791 231.252 216.704 231.305 216.617 231.358C216.464 231.455 216.308 231.552 216.152 231.648C216 231.742 215.844 231.838 215.688 231.932C215.068 232.312 214.441 232.686 213.815 233.054C213.659 233.148 213.5 233.238 213.341 233.332C213.185 233.422 213.026 233.512 212.867 233.603C212.865 233.606 212.862 233.609 212.859 233.611C212.856 233.613 212.852 233.615 212.848 233.615L212.842 233.618L212.836 233.625H212.833C212.047 234.077 211.258 234.522 210.46 234.953C209.033 235.732 207.591 236.483 206.134 237.206C205.772 237.387 205.407 237.565 205.043 237.742C204.74 237.889 204.435 238.035 204.132 238.179C204.048 238.219 203.967 238.26 203.883 238.297C203.631 238.416 203.378 238.534 203.126 238.65C202.851 238.78 202.574 238.905 202.3 239.03C201.991 239.17 201.685 239.307 201.377 239.444C200.217 239.962 199.045 240.461 197.87 240.941C193.672 242.66 189.381 244.144 185.018 245.386C184.815 245.445 184.609 245.504 184.404 245.56C182.536 246.084 180.656 246.563 178.762 246.997C175.454 247.758 172.117 248.382 168.749 248.871C168.743 248.871 168.733 248.874 168.727 248.874C168.325 248.933 167.92 248.989 167.518 249.045C167.484 249.052 167.446 249.058 167.409 249.061C167.406 249.064 167.402 249.064 167.396 249.061C167.396 249.061 167.396 249.064 167.393 249.061C166.947 249.12 166.502 249.179 166.053 249.236C166.022 249.242 165.99 249.245 165.959 249.248C165.541 249.298 165.121 249.348 164.7 249.395C164.248 249.444 163.796 249.491 163.341 249.538C162.995 249.572 162.649 249.607 162.303 249.638C162.272 249.644 162.241 249.647 162.209 249.647C161.894 249.675 161.58 249.703 161.265 249.728C161.252 249.728 161.237 249.731 161.224 249.731C160.95 249.756 160.676 249.775 160.401 249.797C157.175 250.052 153.917 250.179 150.629 250.177C147.06 250.177 143.527 250.028 140.03 249.731C140.018 249.731 140.005 249.728 139.993 249.728C139.248 249.666 138.504 249.597 137.761 249.522C137.565 249.504 137.371 249.482 137.175 249.463C137.137 249.46 137.1 249.457 137.063 249.451C137.003 249.444 136.944 249.438 136.882 249.432C136.851 249.429 136.816 249.426 136.785 249.419C136.527 249.391 136.268 249.363 136.006 249.332C135.716 249.298 135.423 249.264 135.133 249.226C134.843 249.192 134.55 249.155 134.26 249.114C134.198 249.108 134.132 249.102 134.07 249.089C133.858 249.064 133.646 249.036 133.437 249.005C133.334 248.992 133.235 248.977 133.135 248.961C132.932 248.933 132.733 248.905 132.53 248.874C132.524 248.874 132.515 248.871 132.508 248.871C126.143 247.952 119.859 246.535 113.715 244.635H113.712C113.378 244.532 113.045 244.426 112.711 244.32C112.611 244.292 112.512 244.26 112.412 244.226C111.545 243.949 110.684 243.662 109.828 243.366C108.646 242.961 107.473 242.537 106.308 242.094C105.99 241.972 105.675 241.851 105.358 241.729C104.725 241.48 104.095 241.231 103.469 240.975C102.399 240.539 101.337 240.089 100.283 239.625H100.28V239.622C99.2946 239.189 98.3168 238.742 97.3463 238.282C97.3177 238.273 97.2904 238.261 97.2653 238.244C97.2622 238.244 97.2622 238.241 97.259 238.241C97.044 238.141 96.8289 238.039 96.6138 237.936L96.6075 237.933C91.2607 235.37 86.1051 232.426 81.1805 229.123C79.6001 228.067 78.0467 226.975 76.5203 225.847C75.289 224.94 74.0753 224.01 72.8794 223.057C66.922 218.322 61.4088 213.054 56.408 207.318H56.4049V207.315C56.0527 206.913 55.7098 206.514 55.3607 206.109V206.106C55.3108 206.05 55.264 205.994 55.2173 205.938C54.9959 205.679 54.7808 205.423 54.5658 205.161V205.158C54.2727 204.812 53.986 204.465 53.7054 204.117C53.6431 204.042 53.5838 203.971 53.5246 203.896H53.5215V203.893C53.2908 203.612 53.0633 203.328 52.8388 203.045C52.7235 202.905 52.6113 202.761 52.4991 202.618H52.4959V202.615C51.8164 201.757 51.1503 200.892 50.4978 200.018V200.015C50.317 199.775 50.1393 199.535 49.9648 199.292H49.9617C49.1262 198.163 48.3127 197.021 47.5209 195.866V195.863C47.2216 195.429 46.9255 194.993 46.6325 194.554C46.3395 194.114 46.0496 193.673 45.7628 193.232H45.7597C45.4635 192.777 45.1705 192.32 44.8806 191.86C44.865 191.835 44.8494 191.814 44.837 191.792C44.5502 191.34 44.2676 190.885 43.9891 190.426C43.7647 190.062 43.5433 189.7 43.3283 189.335C43.1786 189.089 43.0321 188.846 42.8887 188.597C42.8357 188.512 42.789 188.428 42.7422 188.347C42.4118 187.783 42.0876 187.219 41.7634 186.651C41.3862 185.984 41.0122 185.311 40.6475 184.638C40.4978 184.36 40.3482 184.08 40.2017 183.799C40.1487 183.709 40.1019 183.618 40.0552 183.525C39.8806 183.194 39.7061 182.864 39.5346 182.53C39.3632 182.2 39.1917 181.866 39.0234 181.533C38.8551 181.199 38.6867 180.866 38.5215 180.529C38.3968 180.277 38.2721 180.021 38.1506 179.769C38.1379 179.747 38.1265 179.726 38.1163 179.703C38.0602 179.585 38.0009 179.469 37.948 179.351C37.9355 179.333 37.926 179.313 37.9199 179.292C37.7921 179.03 37.6674 178.771 37.5458 178.509C37.3837 178.173 37.2279 177.833 37.072 177.493C36.9598 177.256 36.8538 177.016 36.7447 176.776C36.5889 176.439 36.4361 176.1 36.2865 175.757C36.1275 175.405 35.9748 175.049 35.822 174.694C35.7815 174.603 35.7441 174.516 35.7067 174.426C35.635 174.264 35.5664 174.102 35.4978 173.939C35.3139 173.509 35.1331 173.073 34.9554 172.64C34.7528 172.15 34.5554 171.66 34.3631 171.168C34.1792 170.71 34.0005 170.251 33.827 169.79L33.7615 169.622V169.619C31.053 162.5 29.0037 155.148 27.6393 147.655V147.652C26.8614 143.374 26.3079 139.058 25.981 134.722C25.9623 134.485 25.9467 134.248 25.9311 134.011C25.7254 131.078 25.6246 128.133 25.6288 125.177C25.6288 123.865 25.6495 122.559 25.6911 121.259C26.4993 94.0825 36.1869 67.9191 53.2722 46.7699C54.0234 45.8378 54.7882 44.9172 55.5664 44.008C78.4903 17.1814 112.574 0.177002 150.629 0.177002C195.121 0.177002 234.185 23.422 256.333 58.4314C257.487 60.2456 258.59 62.093 259.644 63.9738C270.157 82.6566 275.663 103.739 275.629 125.177Z" fill="#F2F2F2"/>
<path d="M211.159 223.291C210.71 224.532 210.262 225.772 209.815 227.013C209.731 227.25 209.644 227.484 209.56 227.721C208.419 230.881 207.277 234.043 206.134 237.206C205.772 237.387 205.407 237.565 205.043 237.742C204.74 237.889 204.435 238.035 204.132 238.179C204.048 238.219 203.967 238.26 203.883 238.297C203.631 238.416 203.378 238.534 203.126 238.649C202.851 238.78 202.574 238.905 202.3 239.03C201.991 239.17 201.685 239.307 201.377 239.444C201.216 239.027 201.125 238.585 201.106 238.138C201.092 237.436 201.175 236.736 201.352 236.056C201.623 234.934 202.053 233.833 202.337 232.708C202.353 232.655 202.365 232.599 202.377 232.546C203.01 229.859 202.718 227.038 201.548 224.538C200.844 223.048 199.834 221.692 199.394 220.102C199.012 218.609 199.182 217.029 199.871 215.651C200.127 215.116 200.449 214.616 200.828 214.161C200.919 214.045 201.015 213.936 201.115 213.827C202.032 212.82 203.25 212.136 204.588 211.879C207.147 211.424 209.821 212.786 211.252 214.924C211.839 215.784 212.196 216.778 212.29 217.814C212.446 219.687 211.798 221.524 211.159 223.291Z" fill="#E4E4E4"/>
<path d="M204.092 235.953C203.506 234.872 202.524 233.924 202.337 232.708C201.729 228.805 200.264 226.006 197.836 224.42C197.131 223.961 197.019 222.948 196.586 222.219C196.392 221.891 196.196 221.564 195.993 221.243C195.666 220.71 195.325 220.187 194.971 219.675C194.299 218.685 193.559 217.743 192.755 216.857C192.421 216.486 192.069 216.128 191.704 215.788L191.701 215.785C191.474 215.567 191.243 215.358 191.003 215.155C190.909 215.074 190.813 214.993 190.713 214.912L190.707 214.906C190.285 214.541 189.844 214.199 189.385 213.883C188.328 213.17 187.134 212.674 185.909 213.07C185.428 213.235 184.964 213.448 184.525 213.706C184.301 213.833 184.079 213.968 183.858 214.102C183.709 214.192 183.559 214.282 183.409 214.376C183.288 214.448 183.166 214.519 183.045 214.588C182.103 215.13 181.158 215.662 180.208 216.184C180.071 216.262 179.934 216.337 179.793 216.411H179.79C179.694 216.468 179.594 216.521 179.494 216.574C179.304 216.68 179.111 216.785 178.921 216.888C178.35 217.197 177.779 217.502 177.206 217.805C176.913 217.961 176.617 218.11 176.321 218.26C176.184 218.328 176.046 218.397 175.912 218.469H175.909C175.859 218.494 175.813 218.519 175.763 218.544C175.358 218.752 174.959 218.968 174.572 219.201C173.451 219.877 172.477 220.77 171.707 221.829C171.558 222.035 171.414 222.247 171.283 222.465C171.112 222.747 170.956 223.039 170.816 223.338C170.719 223.54 170.629 223.743 170.548 223.949V223.952C169.781 225.922 169.674 228.088 170.242 230.124V230.127C170.28 230.267 170.32 230.405 170.367 230.542C170.442 230.772 170.526 231.003 170.619 231.228C170.723 231.478 170.839 231.722 170.969 231.96V231.963C171.662 233.146 172.528 234.22 173.537 235.149L173.568 235.18C173.693 235.302 173.821 235.426 173.945 235.548C174.014 235.613 174.086 235.679 174.161 235.741C175.239 236.667 176.982 237.368 177.967 238.319C178.493 238.827 178.802 239.404 178.68 240.124C178.356 242.035 178.428 243.272 178.758 244.067C179.656 246.237 182.474 245.133 184.404 245.56C184.609 245.504 184.815 245.445 185.018 245.386C189.381 244.144 193.672 242.66 197.87 240.941C199.045 240.461 200.217 239.962 201.377 239.444C201.685 239.307 201.991 239.17 202.3 239.03C202.574 238.905 202.851 238.781 203.126 238.65C203.378 238.534 203.631 238.416 203.883 238.297C203.967 238.26 204.048 238.219 204.132 238.179C204.435 238.035 204.74 237.889 205.043 237.742C204.734 237.141 204.413 236.545 204.092 235.953Z" fill="#E4E4E4"/>
<path d="M181.285 205.689C181.94 203.711 181.039 202.405 178.721 201.712C178.642 201.641 178.546 201.59 178.442 201.565C178.338 201.54 178.229 201.541 178.126 201.569C178.023 201.596 177.928 201.65 177.851 201.723C177.773 201.797 177.716 201.889 177.683 201.991L175.659 207.989C173.542 207.447 171.989 207.818 171.651 209.912C172.487 207.779 171.701 206.441 169.35 205.87C169.274 205.794 169.179 205.739 169.076 205.709C168.972 205.679 168.863 205.676 168.757 205.699C168.652 205.723 168.555 205.773 168.474 205.845C168.394 205.917 168.332 206.007 168.296 206.109L166.965 211.511C165.344 213.953 164.548 216.851 164.693 219.778C164.839 222.706 165.919 225.51 167.774 227.779C169.63 230.048 172.164 231.663 175.004 232.387C177.845 233.112 180.842 232.907 183.558 231.803C186.273 230.699 188.564 228.754 190.093 226.253C191.623 223.753 192.311 220.828 192.056 217.908C191.802 214.987 190.619 212.225 188.681 210.026C186.742 207.828 184.15 206.308 181.285 205.689H181.285Z" fill="#E4E4E4"/>
<path d="M179.996 222.783C179.723 222.929 179.402 222.961 179.105 222.872C178.808 222.782 178.559 222.578 178.412 222.305C178.391 222.266 178.386 222.22 178.399 222.178C178.412 222.136 178.441 222.1 178.48 222.079C178.519 222.058 178.565 222.054 178.607 222.066C178.65 222.079 178.685 222.108 178.706 222.147C178.811 222.342 178.989 222.487 179.202 222.551C179.414 222.615 179.642 222.592 179.838 222.487C180.033 222.382 180.178 222.205 180.243 221.993C180.307 221.781 180.284 221.552 180.18 221.356C180.159 221.317 180.154 221.272 180.167 221.229C180.18 221.187 180.209 221.151 180.248 221.13C180.287 221.11 180.333 221.105 180.375 221.118C180.418 221.13 180.453 221.159 180.474 221.198C180.621 221.472 180.653 221.792 180.563 222.089C180.473 222.387 180.27 222.636 179.996 222.783Z" fill="white"/>
<path d="M178.772 220.324C179.423 219.974 179.841 219.488 179.707 219.238C179.573 218.988 178.936 219.068 178.285 219.417C177.634 219.766 177.215 220.253 177.35 220.503C177.484 220.753 178.121 220.673 178.772 220.324Z" fill="white"/>
<path d="M171.852 220.748C171.94 220.321 172.121 219.919 172.382 219.569C172.642 219.22 172.976 218.932 173.361 218.726C173.745 218.52 174.169 218.401 174.604 218.377C175.04 218.353 175.475 218.425 175.879 218.587C176.083 217.965 176.097 217.297 175.921 216.667C175.744 216.036 175.385 215.473 174.888 215.047C174.391 214.62 173.779 214.351 173.129 214.273C172.48 214.195 171.821 214.311 171.238 214.607C170.654 214.903 170.171 215.366 169.85 215.936C169.529 216.506 169.385 217.159 169.435 217.812C169.485 218.464 169.727 219.087 170.131 219.602C170.536 220.117 171.083 220.5 171.705 220.704C171.754 220.72 171.803 220.734 171.852 220.748Z" fill="white"/>
<path d="M172.841 219.547C173.47 219.547 173.979 219.037 173.979 218.408C173.979 217.78 173.47 217.27 172.841 217.27C172.212 217.27 171.703 217.78 171.703 218.408C171.703 219.037 172.212 219.547 172.841 219.547Z" fill="#3F3D56"/>
<path d="M179.732 216.652C179.82 216.225 180 215.823 180.261 215.473C180.521 215.124 180.856 214.836 181.24 214.63C181.624 214.424 182.048 214.304 182.484 214.28C182.919 214.256 183.354 214.328 183.758 214.491C183.962 213.869 183.976 213.201 183.8 212.57C183.623 211.94 183.264 211.376 182.767 210.95C182.27 210.524 181.658 210.255 181.008 210.177C180.359 210.099 179.7 210.215 179.117 210.511C178.533 210.807 178.05 211.27 177.729 211.84C177.408 212.41 177.264 213.063 177.314 213.716C177.364 214.368 177.606 214.991 178.011 215.506C178.415 216.021 178.962 216.404 179.585 216.607C179.633 216.623 179.682 216.638 179.732 216.652Z" fill="white"/>
<path d="M181.138 215.387C181.767 215.387 182.276 214.877 182.276 214.249C182.276 213.62 181.767 213.11 181.138 213.11C180.509 213.11 180 213.62 180 214.249C180 214.877 180.509 215.387 181.138 215.387Z" fill="#3F3D56"/>
<path d="M186.85 214.17L182.964 218.13L183.356 218.515L187.242 214.555L186.85 214.17Z" fill="white"/>
<path d="M188.085 216.086L183.389 219.042L183.682 219.507L188.378 216.551L188.085 216.086Z" fill="white"/>
<path d="M174.626 222.604L169.177 223.653L169.281 224.193L174.73 223.144L174.626 222.604Z" fill="white"/>
<path d="M175.151 223.463L170.091 225.742L170.317 226.243L175.377 223.964L175.151 223.463Z" fill="white"/>
<path d="M14.6956 138.92C4.03774 129.328 -2.41569 114.075 1.55027 100.296C10.5004 113.064 23.6784 122.255 38.7528 126.243C44.5719 127.759 51.2021 128.841 54.7423 133.702C56.9452 136.726 57.4568 140.723 56.9354 144.428C56.4139 148.134 54.9563 151.633 53.5121 155.085L53.5885 156.016C39.5139 153.277 25.3535 148.512 14.6956 138.92Z" fill="#E6E6E6"/>
<path d="M1.84798 100.339C4.55676 111.766 10.9336 122.401 19.8814 130.034C21.8159 131.684 23.9219 133.19 26.2843 134.163C28.5942 135.094 31.1114 135.39 33.5742 135.019C35.8775 134.719 38.1988 134.146 40.5348 134.412C42.9971 134.692 45.0541 136.072 46.4912 138.058C48.2495 140.489 49.0295 143.406 49.6931 146.286C50.43 149.483 51.1447 152.816 53.2556 155.429C53.5113 155.745 53.0051 156.124 52.7497 155.808C49.0772 151.261 49.5796 144.968 46.9198 139.945C45.6786 137.601 43.7236 135.616 41.0308 135.124C38.6761 134.693 36.2819 135.282 33.9523 135.606C31.5063 135.945 29.1398 135.863 26.7932 135.034C24.3927 134.186 22.2234 132.76 20.2552 131.167C15.819 127.52 11.9838 123.198 8.89001 118.36C5.3285 112.858 2.73442 106.788 1.22001 100.411C1.12644 100.016 1.75502 99.947 1.84798 100.339L1.84798 100.339Z" fill="white"/>
<path d="M16.8421 127.707C15.336 129.037 13.4061 129.789 11.397 129.827C9.38783 129.866 7.43032 129.19 5.87403 127.918C5.56001 127.66 5.94666 127.16 6.26109 127.419C7.70812 128.605 9.53161 129.235 11.4024 129.195C13.2733 129.155 15.0682 128.448 16.4633 127.201C16.7667 126.93 17.1438 127.437 16.8421 127.707V127.707Z" fill="white"/>
<path d="M32.4264 135.325C32.717 131.227 31.4525 127.171 28.8851 123.964C28.6305 123.647 29.1366 123.268 29.3909 123.585C32.0564 126.927 33.3637 131.151 33.0519 135.415C33.0219 135.821 32.3965 135.729 32.4264 135.325Z" fill="white"/>
<path d="M6.15493 112.72C6.84492 112.327 7.42642 111.768 7.8472 111.095C8.26798 110.421 8.51487 109.654 8.5657 108.861C8.59053 108.454 9.21592 108.547 9.19124 108.951C9.13101 109.826 8.85731 110.674 8.39407 111.419C7.93082 112.164 7.29211 112.785 6.53375 113.226C6.46576 113.274 6.38219 113.294 6.30003 113.282C6.21786 113.27 6.14328 113.227 6.09143 113.162C6.0416 113.095 6.02032 113.011 6.03222 112.928C6.04411 112.845 6.08821 112.771 6.15493 112.72Z" fill="white"/>
<path d="M46.0598 80.9106C46.0515 81.1649 46.0432 81.4192 46.0392 81.6767C45.9454 85.0959 46.1296 88.517 46.59 91.9063C46.6214 92.1689 46.6572 92.4346 46.6961 92.6957C47.8922 100.85 50.5916 108.71 54.6573 115.879C56.2778 118.73 58.1128 121.453 60.1464 124.026C62.9552 127.579 66.2833 131.207 67.7123 135.358C67.8663 135.789 67.9934 136.23 68.0929 136.677L54.7183 155.85C54.6661 155.879 54.618 155.91 54.5656 155.939L54.0666 156.729C53.9524 156.603 53.8367 156.471 53.7226 156.345C53.6561 156.273 53.5925 156.196 53.526 156.124C53.4826 156.074 53.4393 156.024 53.3973 155.982C53.3828 155.966 53.3685 155.949 53.3583 155.935C53.3163 155.893 53.2818 155.849 53.2442 155.81C52.5954 155.071 51.9507 154.327 51.31 153.577C51.3057 153.574 51.3057 153.574 51.3043 153.566C46.4374 147.836 42.0062 141.65 38.6548 134.988C38.554 134.787 38.4488 134.584 38.3541 134.375C36.8601 131.363 35.6147 128.235 34.6304 125.021C34.0971 123.259 33.6533 121.471 33.3008 119.665C32.3988 114.995 32.237 110.212 32.8213 105.492C33.9875 96.0823 38.1499 87.1506 45.4943 81.3485C45.6823 81.2001 45.8674 81.0559 46.0598 80.9106Z" fill="#E6E6E6"/>
<path d="M46.2731 81.1235C41.5562 91.878 40.2445 104.209 42.7935 115.69C43.3445 118.173 44.1196 120.643 45.4198 122.842C46.7035 124.977 48.5354 126.728 50.725 127.915C52.7444 129.062 54.9429 130.002 56.6482 131.621C58.4456 133.327 59.2574 135.667 59.2087 138.118C59.1491 141.118 58.0154 143.917 56.8116 146.616C55.475 149.612 54.0392 152.703 54.1514 156.06C54.165 156.467 53.533 156.465 53.5194 156.058C53.3242 150.217 57.5142 145.495 58.4151 139.883C58.8355 137.264 58.4692 134.502 56.6156 132.488C54.9948 130.726 52.7285 129.755 50.6737 128.611C48.5163 127.409 46.6762 125.919 45.3015 123.844C43.8953 121.722 43.0221 119.277 42.41 116.82C41.0634 111.237 40.6031 105.478 41.0457 99.7522C41.5146 93.2149 43.0984 86.806 45.7284 80.8027C45.8914 80.4312 46.4349 80.7544 46.2731 81.1235L46.2731 81.1235Z" fill="white"/>
<path d="M41.768 112.002C39.7646 112.158 37.771 111.596 36.1435 110.417C34.516 109.239 33.3604 107.52 32.8832 105.568C32.788 105.172 33.3978 105.006 33.4931 105.402C33.9341 107.22 35.0107 108.821 36.5285 109.916C38.0463 111.01 39.9054 111.526 41.7701 111.37C42.1754 111.337 42.171 111.969 41.768 112.002Z" fill="white"/>
<path d="M49.6245 127.468C52.3236 124.371 53.7563 120.371 53.637 116.265C53.6248 115.858 54.2568 115.861 54.2689 116.267C54.3851 120.54 52.8857 124.7 50.0699 127.916C49.8013 128.223 49.3574 127.773 49.6245 127.468L49.6245 127.468Z" fill="white"/>
<path d="M42.2578 93.6019C43.0455 93.7033 43.8461 93.6074 44.5876 93.323C45.3292 93.0385 45.9884 92.5743 46.5062 91.972C46.7708 91.6624 47.2144 92.1127 46.9516 92.4204C46.3764 93.0831 45.6477 93.5949 44.8291 93.911C44.0106 94.2271 43.127 94.338 42.2557 94.2339C42.1728 94.231 42.0941 94.1966 42.0356 94.1377C41.9771 94.0788 41.9432 93.9998 41.9408 93.9169C41.9415 93.8332 41.9752 93.7532 42.0345 93.6942C42.0939 93.6352 42.1741 93.6021 42.2578 93.6019V93.6019Z" fill="white"/>
<path d="M168.239 82.1894C170.097 71.9135 167.009 60.2533 158.581 54.0891C159.122 65.432 155.635 76.6011 148.734 85.6201C146.061 89.0887 142.726 92.6682 142.855 97.0458C142.936 99.7697 144.424 102.299 146.377 104.2C148.33 106.1 150.73 107.465 153.101 108.808L153.472 109.378C160.354 101.524 166.381 92.4652 168.239 82.1894Z" fill="#E6E6E6"/>
<path d="M158.428 54.247C162.001 62.1178 163.002 70.9139 161.29 79.3862C160.954 81.2166 160.331 82.9826 159.445 84.6191C158.531 86.1855 157.213 87.4783 155.63 88.3633C154.17 89.2181 152.578 89.9235 151.352 91.1183C150.733 91.7392 150.253 92.4838 149.942 93.3034C149.631 94.123 149.497 94.9991 149.549 95.8741C149.621 98.0577 150.473 100.085 151.375 102.039C152.377 104.209 153.452 106.446 153.402 108.892C153.396 109.188 153.856 109.18 153.862 108.884C153.949 104.629 150.853 101.23 150.144 97.1513C149.813 95.2482 150.053 93.2338 151.384 91.7493C152.548 90.4512 154.189 89.7225 155.674 88.8697C157.231 88.029 158.559 86.8198 159.541 85.3477C160.507 83.7616 161.197 82.0225 161.58 80.205C162.508 76.1269 162.788 71.9284 162.412 67.7632C162.008 63.0071 160.794 58.355 158.822 54.0083C158.7 53.7393 158.307 53.9798 158.428 54.247L158.428 54.247Z" fill="white"/>
<path d="M162.002 76.6905C163.462 76.7847 164.909 76.3567 166.083 75.483C167.257 74.6092 168.082 73.3466 168.411 71.9206C168.477 71.6318 168.031 71.5164 167.965 71.8055C167.661 73.134 166.892 74.31 165.798 75.1214C164.703 75.9328 163.354 76.3261 161.994 76.2303C161.699 76.2098 161.708 76.6701 162.002 76.6905Z" fill="white"/>
<path d="M156.427 88.0273C154.433 85.7978 153.351 82.8984 153.399 79.9071C153.404 79.6108 152.944 79.6186 152.939 79.9146C152.895 83.0275 154.026 86.0425 156.107 88.358C156.306 88.5785 156.625 88.2466 156.427 88.0273Z" fill="white"/>
<path d="M161.471 63.296C160.898 63.3772 160.314 63.315 159.772 63.1149C159.229 62.9147 158.744 62.583 158.362 62.1493C158.166 61.9263 157.847 62.2585 158.042 62.48C158.467 62.9572 159.002 63.3229 159.601 63.5454C160.2 63.7678 160.845 63.8402 161.478 63.7561C161.539 63.7532 161.596 63.7274 161.638 63.684C161.68 63.6405 161.704 63.5827 161.705 63.5223C161.703 63.4614 161.678 63.4034 161.634 63.361C161.591 63.3186 161.532 63.2953 161.471 63.2959L161.471 63.296Z" fill="white"/>
<path d="M124.309 62.7798C124.427 62.9225 124.546 63.0652 124.663 63.2117C126.242 65.1384 127.661 67.1902 128.908 69.3468C129.007 69.512 129.105 69.6809 129.199 69.8486C132.147 75.0765 134.099 80.8062 134.955 86.7466C135.294 89.1107 135.452 91.4971 135.429 93.8852C135.396 97.1833 135.098 100.757 136.127 103.784C136.231 104.101 136.354 104.411 136.496 104.713L152.748 109.787C152.79 109.779 152.832 109.776 152.875 109.769L153.515 110.002C153.524 109.878 153.532 109.751 153.542 109.627C153.548 109.556 153.55 109.484 153.556 109.412C153.559 109.364 153.562 109.316 153.567 109.273C153.568 109.257 153.569 109.241 153.569 109.229C153.574 109.186 153.574 109.145 153.578 109.106C153.623 108.391 153.662 107.675 153.696 106.957C153.697 106.954 153.697 106.954 153.695 106.949C153.941 101.479 153.733 95.9414 152.691 90.611C152.66 90.4506 152.63 90.2866 152.591 90.1239C152.108 87.7238 151.43 85.3672 150.563 83.0776C150.084 81.8255 149.542 80.5983 148.939 79.4009C147.376 76.3101 145.336 73.4844 142.894 71.0274C138.026 66.1302 131.646 62.8444 124.83 62.7796C124.656 62.7781 124.485 62.7776 124.309 62.7798Z" fill="#E6E6E6"/>
<path d="M124.281 62.9975C131.872 67.1312 137.968 73.5516 141.702 81.3468C142.535 83.0106 143.102 84.7955 143.379 86.6356C143.592 88.4369 143.319 90.2624 142.587 91.9222C141.937 93.4836 141.09 95.0053 140.83 96.6977C140.71 97.5659 140.775 98.4498 141.02 99.2913C141.265 100.133 141.686 100.913 142.254 101.58C143.626 103.281 145.527 104.387 147.424 105.403C149.53 106.532 151.735 107.672 153.168 109.655C153.341 109.895 153.704 109.611 153.531 109.372C151.038 105.922 146.52 105.072 143.498 102.242C142.088 100.922 141.067 99.1687 141.236 97.1823C141.383 95.4453 142.255 93.8753 142.927 92.3001C143.664 90.6913 143.996 88.9265 143.894 87.1598C143.711 85.3115 143.215 83.5078 142.426 81.826C140.712 78.0114 138.408 74.4901 135.599 71.3912C132.414 67.8366 128.643 64.8531 124.452 62.5699C124.192 62.4287 124.024 62.8572 124.281 62.9975L124.281 62.9975Z" fill="white"/>
<path d="M140.647 78.766C141.87 77.9619 142.767 76.7494 143.178 75.3449C143.59 73.9404 143.488 72.4355 142.893 71.0988C142.771 70.8287 142.346 71.0048 142.467 71.2753C143.025 72.5189 143.119 73.9208 142.733 75.2279C142.347 76.535 141.507 77.6611 140.364 78.4031C140.116 78.5646 140.4 78.9266 140.647 78.766Z" fill="white"/>
<path d="M143.022 91.174C140.087 90.595 137.478 88.9309 135.715 86.5137C135.54 86.2741 135.178 86.5575 135.352 86.7968C137.191 89.3088 139.91 91.0349 142.965 91.6308C143.256 91.6874 143.311 91.2303 143.022 91.174Z" fill="white"/>
<path d="M132.159 68.391C131.75 68.8007 131.247 69.1025 130.693 69.2695C130.139 69.4364 129.552 69.4632 128.986 69.3474C128.695 69.2871 128.641 69.7443 128.929 69.8041C129.556 69.9291 130.204 69.8988 130.816 69.7157C131.428 69.5326 131.986 69.2024 132.442 68.7539C132.488 68.7152 132.518 68.6603 132.525 68.6003C132.533 68.5403 132.517 68.4797 132.481 68.4309C132.444 68.383 132.389 68.352 132.328 68.3445C132.268 68.337 132.207 68.3537 132.159 68.391L132.159 68.391Z" fill="white"/>
<path d="M41.2921 118.013C43.5421 118.013 45.6998 118.907 47.2908 120.498C48.8817 122.089 49.7755 124.246 49.7755 126.496V126.496C49.7752 128.464 49.0908 130.371 47.8396 131.89C46.5884 133.409 44.8481 134.445 42.9166 134.823V148.698H37.5017V118.013H41.2921Z" fill="#3F3D56"/>
<path d="M249.09 199.291V202.196C247.858 203.77 246.59 205.313 245.284 206.825C245.143 206.99 245 207.152 244.853 207.317C244.632 207.576 244.404 207.832 244.177 208.087V199.291H249.09Z" fill="#CACACA"/>
<path d="M234.676 193.231C233.59 193.232 232.549 193.664 231.781 194.432C231.013 195.2 230.581 196.241 230.58 197.327V203.221C230.581 204.307 231.013 205.348 231.781 206.116C232.549 206.884 233.59 207.316 234.676 207.317H244.853C245 207.152 245.143 206.99 245.284 206.825C246.59 205.313 247.858 203.77 249.09 202.196C249.171 202.093 249.252 201.99 249.33 201.887C250.034 200.986 250.726 200.07 251.406 199.147C251.936 198.424 252.462 197.695 252.977 196.959C252.98 196.956 252.983 196.956 252.983 196.953C253.843 195.731 254.682 194.49 255.499 193.231H234.676Z" fill="#3F3D56"/>
<path d="M260.882 142.776C260.256 142.56 259.599 142.45 258.937 142.451H257.263C256.653 142.452 256.047 142.543 255.464 142.723C254.235 143.109 253.161 143.877 252.398 144.915C251.636 145.953 251.223 147.207 251.222 148.496V197.67C251.222 197.854 251.231 198.034 251.247 198.212C251.274 198.528 251.327 198.84 251.406 199.147C251.936 198.424 252.462 197.695 252.977 196.959C252.98 196.956 252.983 196.956 252.983 196.953C253.843 195.731 254.682 194.49 255.499 193.231C255.938 192.554 256.375 191.872 256.802 191.186C259.888 186.235 262.621 181.072 264.981 175.737V148.496C264.98 147.234 264.584 146.004 263.849 144.978C263.114 143.953 262.076 143.182 260.882 142.776Z" fill="#3F3D56"/>
<path d="M54.5666 199.291V205.16C53.1638 203.483 51.8079 201.769 50.4986 200.017C50.3178 199.777 50.1401 199.534 49.9625 199.291H54.5666Z" fill="#CACACA"/>
<path d="M64.0678 193.231H45.7605C46.3372 194.119 46.9242 194.997 47.5217 195.865C48.3135 197.021 49.127 198.163 49.9625 199.291C50.1401 199.534 50.3178 199.777 50.4986 200.017C51.811 201.769 53.167 203.483 54.5666 205.16C54.8284 205.478 55.0934 205.793 55.3615 206.108C55.7044 206.513 56.0524 206.916 56.4057 207.317H64.0678C65.1534 207.316 66.1941 206.884 66.9615 206.116C67.7288 205.348 68.1601 204.307 68.1607 203.221V197.327C68.1601 196.241 67.7289 195.2 66.9615 194.432C66.1941 193.664 65.1534 193.232 64.0678 193.231Z" fill="#3F3D56"/>
<path d="M44.2704 143.134C43.4074 142.687 42.4496 142.452 41.4774 142.451H39.8066C39.016 142.45 38.233 142.606 37.503 142.91C36.397 143.367 35.4513 144.141 34.7855 145.135C34.1197 146.13 33.7636 147.299 33.7623 148.496V169.621C36.9098 177.896 40.932 185.81 45.7605 193.231C46.3371 194.119 46.9242 194.997 47.5217 195.865V148.496C47.5209 147.39 47.2174 146.306 46.6443 145.361C46.0712 144.416 45.2502 143.646 44.2704 143.134Z" fill="#3F3D56"/>
<path d="M112.37 234.432L117.861 233.172L115.615 211.391L107.51 213.251L112.37 234.432Z" fill="#9E616A"/>
<path d="M117.366 215.534C117.253 215.151 117.177 214.757 117.138 214.359C117.093 213.889 117.001 213.424 116.864 212.972C116.708 212.56 116.515 212.164 116.287 211.787C116.178 211.588 116.063 211.388 115.96 211.186C115.856 210.983 115.767 210.774 115.692 210.559C112.478 201.067 107.992 188.168 104.881 180.618C103.052 176.176 91.7985 174.699 81.1813 174.322C79.8876 174.275 78.6033 174.244 77.3471 174.228C76.9138 174.222 76.4836 174.216 76.0566 174.213C74.9656 174.206 73.9026 174.206 72.8801 174.219C72.7461 174.219 72.6121 174.219 72.478 174.222C71.733 174.228 71.0109 174.239 70.3116 174.253C65.5048 174.347 61.973 174.565 61.3434 174.605L55.7355 171.08L54.6414 170.391L54.526 171.08L53.6439 176.335L52.1382 185.304L55.9132 186.363L58.3633 187.049L72.8801 191.12L75.9662 191.987L75.9849 191.993L81.1813 191.984L95.3895 191.959L96.0753 193.776C95.829 194.159 95.667 194.589 95.6 195.039C95.533 195.489 95.5626 195.948 95.6867 196.385C95.8109 196.823 96.0267 197.229 96.32 197.577C96.6133 197.925 96.9772 198.206 97.3876 198.402L97.9207 198.655L104.414 215.837C104.434 217.391 104.919 218.903 105.807 220.179C105.916 220.338 106.035 220.494 106.159 220.646L106.303 220.818L108.8 225.703L110.287 225.36L116.615 223.91L116.646 223.848C116.649 223.838 116.73 223.667 116.848 223.368V223.358C117.344 222.121 118.441 218.739 117.366 215.534Z" fill="#2F2E41"/>
<path d="M132.793 235.88C132.556 234.833 132.115 233.843 131.495 232.968C130.874 232.092 130.086 231.347 129.177 230.777C128.267 230.207 127.254 229.822 126.195 229.645C125.137 229.468 124.053 229.502 123.008 229.746L118.622 227.766L117.394 228.63L112.3 232.202L111.88 232.299L110.514 232.61L112.4 240.831L132.855 236.139L132.793 235.88Z" fill="#2F2E41"/>
<path d="M105.661 223.206L103.806 238.243L103.744 238.736L103.469 240.977C102.4 240.541 101.334 240.089 100.28 239.624C99.2954 239.191 98.3176 238.744 97.3471 238.284V223.209L105.661 223.206Z" fill="#9E616A"/>
<path d="M65.4131 119.829C71.6234 119.829 76.6578 114.795 76.6578 108.584C76.6578 102.374 71.6234 97.3396 65.4131 97.3396C59.2028 97.3396 54.1683 102.374 54.1683 108.584C54.1683 114.795 59.2028 119.829 65.4131 119.829Z" fill="#9E616A"/>
<path d="M106.855 228.945C106.543 228.518 106.219 228.072 106.2 227.645C106.128 226.139 106.053 224.649 105.976 223.19C105.919 222.171 105.863 221.164 105.807 220.179C105.801 220.054 105.792 219.93 105.785 219.808C105.689 218.178 106.172 216.457 106.636 214.789C106.789 214.244 106.942 213.692 107.079 213.14C107.422 211.911 107.566 210.634 107.506 209.359C106.708 199.263 103.142 189.768 101.543 188.168C99.1114 185.737 88.1171 180.12 81.1813 176.703C79.95 176.096 78.8465 175.559 77.9425 175.123C77.1414 174.733 76.4961 174.425 76.0566 174.213C75.7199 174.054 75.5017 173.951 75.4269 173.913L75.3895 173.895L72.8802 174.175L72.478 174.222L70.2648 174.471L55.8664 176.086L53.6439 176.336L50.4986 176.691L47.6588 177.009L47.5528 177.018L47.5341 177.124C47.5341 177.127 47.5279 177.149 47.5217 177.19C47.0333 180.271 47.0333 183.41 47.5217 186.491C47.8895 188.583 48.5846 190.709 49.8191 192.498C49.9874 192.741 50.162 192.975 50.349 193.2C50.3553 193.211 50.3638 193.222 50.3739 193.231C50.4144 193.281 50.455 193.331 50.4986 193.38V193.384C51.9106 195.026 53.8059 196.179 55.9132 196.678C56.2249 196.763 56.5429 196.831 56.8702 196.887C60.3583 197.504 64.2985 198.072 68.1607 198.571C69.7598 198.776 71.3465 198.97 72.8802 199.15C75.9506 199.512 78.8184 199.817 81.1813 200.061C84.4917 200.397 86.8172 200.606 87.3346 200.65L93.1171 227.626C92.6633 228.394 92.4822 229.292 92.6033 230.175C92.7244 231.059 93.1405 231.875 93.7841 232.492L94.2579 232.95L94.8066 235.519L96.6146 237.938L96.8421 238.243H104.819L104.863 238.19C104.891 238.153 107.696 234.549 107.506 230.257C107.487 229.814 107.179 229.394 106.855 228.945Z" fill="#2F2E41"/>
<path d="M106.637 138.535C106.033 138.37 105.4 138.339 104.783 138.445C104.165 138.551 103.579 138.791 103.064 139.148C102.55 139.505 102.12 139.97 101.805 140.512C101.49 141.053 101.297 141.657 101.241 142.28L91.8979 145.2L92.2877 151.311L105.424 147.002C106.478 147.027 107.505 146.665 108.31 145.984C109.115 145.303 109.642 144.351 109.791 143.307C109.941 142.263 109.702 141.201 109.121 140.321C108.539 139.442 107.656 138.806 106.637 138.535Z" fill="#9E616A"/>
<path d="M100.541 148.646L93.5579 151.289L93.3794 151.636C93.1674 152.047 92.8765 152.412 92.5233 152.711C92.1701 153.01 91.7615 153.236 91.3209 153.377C90.8802 153.518 90.4161 153.571 89.9551 153.532C89.494 153.494 89.0451 153.365 88.6338 153.153L72.9386 159.093C72.9386 159.093 65.9294 152.079 60.9391 145.819L62.6399 135.358C63.0338 132.931 63.8711 130.597 65.1098 128.473C75.344 130.717 81.2187 145.024 81.2187 145.024L99.6633 141.504L100.541 148.646Z" fill="#54B13F"/>
<path d="M63.8152 119.228C61.0001 119.988 57.8965 118.978 55.6996 117.06C53.5027 115.143 52.1284 112.426 51.3365 109.619C50.7566 107.564 50.4816 105.282 51.3968 103.353C52.312 101.423 54.775 100.121 56.6752 101.096C55.5029 99.7304 56.0886 97.4715 57.4576 96.3032C58.8267 95.1349 60.7066 94.7999 62.4971 94.6168C65.0956 94.3511 67.7797 94.3213 70.2524 95.1632C72.725 96.005 74.9717 97.8455 75.7455 100.34C76.5359 100.708 77.426 100.804 78.2764 100.612C79.1269 100.42 79.8896 99.951 80.4452 99.2791C80.5885 100.051 80.4734 100.848 80.1179 101.548C79.7623 102.248 79.1861 102.811 78.4783 103.15L82.2669 101.922C82.9185 103.301 81.7768 105.008 80.3168 105.449C78.8568 105.891 77.2809 105.408 75.8954 104.77C74.51 104.132 73.1674 103.325 71.6625 103.077C70.1576 102.828 68.3899 103.311 67.6939 104.668C67.3293 105.379 67.3103 106.212 67.0986 106.982C66.8869 107.752 66.3507 108.551 65.5543 108.614C65.0511 108.654 64.5585 108.386 64.0567 108.441C63.7488 108.501 63.4652 108.651 63.2408 108.87C63.0163 109.089 62.8606 109.369 62.7929 109.676C62.668 110.291 62.6664 110.924 62.7884 111.54L63.7508 118.896L63.8152 119.228Z" fill="#2F2E41"/>
<path d="M77.9425 175.123L77.3471 174.228L73.0017 167.71L72.9144 167.582L74.258 160.612L74.6757 158.436L75.589 153.701L75.3241 142.863L75.1339 135.194L75.1059 133.991L74.1426 131.055C73.686 129.682 72.9524 128.417 71.9873 127.339C71.0222 126.26 69.846 125.392 68.5317 124.786L62.0479 121.819C61.2848 121.471 60.415 121.441 59.6299 121.735C58.8447 122.029 58.2084 122.623 57.861 123.386C57.832 123.45 57.8051 123.514 57.7804 123.58C56.892 123.701 53.036 124.35 49.7661 126.887C47.4753 128.63 45.8761 131.128 45.2524 133.938C45.2461 133.96 45.243 133.982 45.2368 134.004C44.8035 135.939 44.4793 138.994 44.2704 143.134C44.1302 145.871 44.0418 149.077 44.0055 152.754C43.9473 158.882 44.292 165.007 45.0373 171.089C45.109 171.669 45.1838 172.246 45.2617 172.825C45.3272 173.312 45.7948 173.776 46.2467 174.222C46.6613 174.63 47.0884 175.054 47.1476 175.438C47.2006 175.774 46.9855 176.127 46.7299 176.494C46.6987 176.541 46.6645 176.588 46.6333 176.635C46.3153 177.087 45.988 177.557 46.0722 178.053C46.2686 179.169 46.3839 180.304 46.493 181.401C46.6149 182.912 46.8335 184.413 47.1476 185.896C47.2567 186.351 47.3814 186.809 47.5217 187.267C47.849 188.343 48.2449 189.415 48.6314 190.463C48.965 191.373 49.311 192.308 49.604 193.231C49.6601 193.402 49.7131 193.57 49.763 193.739L49.7879 193.826L49.8783 193.842H49.8845C50.0073 193.623 50.1537 193.418 50.3209 193.231C50.3285 193.219 50.338 193.208 50.349 193.199C50.3926 193.146 50.4425 193.09 50.4986 193.031C51.1813 192.286 52.6651 190.949 55.9132 188.695C56.6395 188.193 57.4531 187.648 58.3633 187.049C61.7019 184.864 66.3652 182.018 72.8802 178.343C74.5136 177.42 76.2665 176.444 78.1389 175.416L77.9425 175.123Z" fill="#54B13F"/>
<path d="M112.908 243.695C112.151 242.935 111.251 242.332 110.259 241.922C109.268 241.511 108.205 241.302 107.132 241.304L103.744 238.736L103.298 238.396L100.28 239.624C101.334 240.089 102.4 240.541 103.469 240.977C106.814 242.342 110.229 243.562 113.716 244.637C113.471 244.303 113.201 243.988 112.908 243.695Z" fill="#2F2E41"/>
<path d="M188.167 234.219L183.923 232.19L189.753 214.451L196.016 217.447L188.167 234.219Z" fill="#FFB6B6"/>
<path d="M216.618 231.36C215.383 232.13 214.133 232.878 212.868 233.605V233.614L212.849 233.617L212.843 233.62L212.363 233.739L211.674 231.918L210.084 227.72L205.751 216.279L212.487 214.618L212.868 216.161L215.717 227.716L216.534 231.021L216.618 231.36Z" fill="#FFB6B6"/>
<path d="M199.437 157.12C200.043 158.103 201.008 158.811 202.128 159.092C203.248 159.373 204.433 159.205 205.43 158.624C205.631 158.503 205.821 158.365 205.999 158.212L219.416 165.911L218.833 158.008L206.182 151.908C205.493 151.216 204.595 150.773 203.627 150.647C202.66 150.521 201.678 150.719 200.835 151.211C199.871 151.791 199.176 152.729 198.903 153.82C198.631 154.912 198.803 156.067 199.382 157.031C199.4 157.061 199.419 157.091 199.437 157.12Z" fill="#FFB6B6"/>
<path d="M213.648 163.012L216.019 164.458L226.671 170.953C227.37 171.39 228.148 171.686 228.962 171.822C229.775 171.959 230.607 171.934 231.411 171.749C232.215 171.564 232.974 171.222 233.646 170.744C234.317 170.265 234.888 169.659 235.326 168.96L235.329 168.954C236.118 167.655 236.397 166.109 236.112 164.616L231.378 140.965C231.203 140.037 230.83 139.157 230.284 138.386C229.738 137.615 229.032 136.971 228.214 136.498C227.396 136.025 226.485 135.735 225.545 135.646C224.604 135.558 223.655 135.673 222.763 135.985C221.264 136.512 220.022 137.59 219.29 139C218.557 140.41 218.39 142.046 218.821 143.575L223.771 160.36L216.183 156.823L213.648 163.012Z" fill="#54B13F"/>
<path d="M257.322 186.332C257.319 186.323 257.313 186.289 257.303 186.236L257.294 186.202C257.272 186.089 257.247 185.965 257.219 185.827C256.583 182.669 255.766 179.55 254.772 176.485C254.183 174.608 253.403 172.797 252.444 171.08C252.413 171.024 252.378 170.968 252.344 170.912L252.229 170.725L251.259 171.08L251.222 171.092L236.484 176.495L232.222 178.056L232.088 178.106L231.362 181.068L221.172 179.749L212.868 178.673L210.483 178.365C209.449 178.23 208.399 178.302 207.393 178.578C206.388 178.853 205.447 179.325 204.626 179.967C203.769 180.632 203.053 181.46 202.519 182.404C201.985 183.348 201.645 184.389 201.518 185.466C201.487 185.703 201.468 185.943 201.459 186.18L200.739 213.041V213.075L201.072 213.742L208.039 227.72H212.868L215.717 227.717H218.033L213.217 215.531L213.326 215.366C213.779 214.671 214.065 213.881 214.16 213.057C214.256 212.233 214.159 211.399 213.878 210.619L214.42 209.048C215.545 205.803 215.012 204.244 214.339 202.274C213.734 200.672 213.379 198.987 213.285 197.277L213.173 195.054C216 195.55 218.635 196.102 221.172 196.657C222.02 196.841 222.859 197.027 223.691 197.215C226.057 197.741 228.342 198.25 230.58 198.673C235.112 199.537 239.454 200.064 243.915 199.736C244.002 199.73 244.09 199.724 244.177 199.715C245.262 199.627 246.353 199.487 247.456 199.291C248.077 199.178 248.7 199.051 249.33 198.901C249.504 198.857 249.682 198.814 249.856 198.77C250.341 198.642 250.808 198.455 251.247 198.212C251.871 197.864 252.451 197.443 252.977 196.959C252.98 196.956 252.983 196.956 252.983 196.953C253.843 195.731 254.682 194.49 255.499 193.231C255.938 192.554 256.375 191.872 256.802 191.186C257.425 189.475 257.662 187.748 257.322 186.332Z" fill="#2F2E41"/>
<path d="M257.425 181.285C257.378 181.086 257.319 180.883 257.257 180.687C256.762 179.2 256.185 177.741 255.53 176.317C254.794 174.696 253.912 172.959 252.861 171.08C252.353 170.169 251.807 169.223 251.222 168.24C250.929 167.747 250.624 167.246 250.308 166.734C250.296 166.711 250.283 166.688 250.268 166.666L250.178 166.516L235.595 168.467L230.165 169.194L229.841 171.9L229.763 172.57C229.76 172.57 229.76 172.57 229.763 172.573L229.545 174.4V174.403L229.255 176.815L229.23 176.812L221.172 175.768L212.868 174.693L208.407 174.116C207.373 173.981 206.323 174.053 205.317 174.328C204.312 174.604 203.371 175.076 202.55 175.718C201.693 176.383 200.977 177.211 200.443 178.155C199.909 179.099 199.569 180.14 199.442 181.217C199.414 181.435 199.395 181.66 199.386 181.881L195.178 191.853C192.659 197.817 191.056 204.126 190.421 210.568L187.335 220.434L187.774 220.475L194.314 221.083L196.041 221.245L199.844 215.693C200.277 215.06 200.689 214.409 201.072 213.742C201.703 212.652 202.265 211.524 202.752 210.363L210.979 190.787C211.615 190.896 212.244 191 212.868 191.098C215.751 191.566 218.519 191.947 221.172 192.242C229.797 193.206 237.266 193.28 243.915 192.464C245.782 192.236 247.587 191.937 249.33 191.566C249.969 191.432 250.599 191.288 251.222 191.133C251.368 191.098 251.512 191.064 251.655 191.027C252.943 190.694 254.128 190.044 255.1 189.136C256.072 188.228 256.801 187.09 257.219 185.827C257.719 184.364 257.791 182.788 257.425 181.285Z" fill="#2F2E41"/>
<path d="M226.417 122.411C231.987 122.411 236.503 117.794 236.503 112.099C236.503 106.405 231.987 101.788 226.417 101.788C220.846 101.788 216.33 106.405 216.33 112.099C216.33 117.794 220.846 122.411 226.417 122.411Z" fill="#FFB6B6"/>
<path d="M250.368 167.081C250.352 166.965 250.333 166.85 250.308 166.735C250.068 165.469 249.445 164.228 248.843 163.025C248.27 161.878 247.724 160.793 247.5 159.715C247.279 158.652 247.409 157.586 247.537 156.557C247.674 155.441 247.818 154.288 247.497 153.168C245.868 147.453 243.632 141.929 240.826 136.691C240.118 134.388 238.761 132.337 236.917 130.786C235.073 129.234 232.821 128.248 230.43 127.944C230.709 127.423 230.825 126.83 230.764 126.242C230.725 125.862 230.61 125.494 230.428 125.158C230.246 124.823 229.998 124.527 229.701 124.288C229.415 124.057 229.086 123.886 228.733 123.783C228.381 123.68 228.011 123.648 227.646 123.689L222.958 124.216C222.206 124.31 221.522 124.697 221.055 125.294C220.587 125.89 220.374 126.646 220.461 127.399C220.487 127.63 220.54 127.858 220.617 128.078C216.265 133.62 214.03 138.67 213.825 143.446V143.449C213.8 144.001 213.803 144.553 213.834 145.104C213.933 146.887 214.32 148.642 214.981 150.301C215.762 152.217 216.807 154.014 218.086 155.64C218.348 155.971 218.619 156.295 218.899 156.613C219.161 156.925 219.454 157.252 219.779 157.595L220.598 158.879L221.362 160.079L225.446 169.503L227.525 169.434L227.815 171.507L227.883 171.99L229.23 176.813L229.33 177.174L231.172 176.298L242.163 171.08L250.38 167.177L250.368 167.081Z" fill="#54B13F"/>
<path opacity="0.2" d="M215.105 150.251C216.042 152.546 217.359 154.667 219.002 156.525C219.283 156.861 219.58 157.191 219.891 157.521L221.487 160.025C227.368 155.616 232.134 138.257 232.134 138.257L225.498 136.966L215.105 150.251Z" fill="black"/>
<path d="M211.087 123.374C211.668 124.373 211.837 125.558 211.557 126.679C211.277 127.8 210.571 128.767 209.589 129.375C209.388 129.496 209.177 129.599 208.958 129.685L209.428 145.147L202.732 140.932L203.312 126.895C203.027 125.961 203.06 124.959 203.404 124.045C203.749 123.131 204.386 122.357 205.217 121.844C206.177 121.263 207.329 121.087 208.419 121.355C209.508 121.624 210.447 122.314 211.028 123.274C211.048 123.307 211.068 123.341 211.087 123.374Z" fill="#FFB6B6"/>
<path d="M210.016 139.311L202.653 140.358L202.969 155.607C202.988 156.694 203.284 157.759 203.83 158.701C204.376 159.642 205.153 160.428 206.088 160.983C207.231 161.656 208.561 161.938 209.878 161.789C211.195 161.639 212.428 161.066 213.391 160.154L230.776 143.433C231.999 142.272 232.731 140.688 232.821 139.004C232.911 137.32 232.353 135.666 231.261 134.382C230.191 133.115 228.662 132.326 227.01 132.187C225.358 132.048 223.718 132.571 222.452 133.641C222.402 133.682 222.353 133.725 222.305 133.768C222.133 133.922 221.97 134.085 221.816 134.256L210.336 147.462L210.016 139.311Z" fill="#54B13F"/>
<path d="M216.805 230.971L216.534 231.021L212.868 231.697L211.674 231.918L209.794 232.264L210.461 234.954C211.262 234.521 212.054 234.075 212.843 233.62L212.849 233.617L212.868 233.614V233.605C214.133 232.882 215.383 232.133 216.618 231.36C216.705 231.307 216.792 231.254 216.88 231.195L216.805 230.971Z" fill="#2F2E41"/>
<path d="M189.523 231.323L184.931 229.122L184.211 228.776L183.061 231.6L175.031 233.368C174.634 233.455 174.275 233.667 174.007 233.972C173.739 234.277 173.575 234.661 173.541 235.066C173.506 235.471 173.601 235.876 173.813 236.223C174.026 236.57 174.343 236.84 174.719 236.993L182.565 240.194L185.056 237.953L184.445 240.961L187.4 242.168L190.639 231.859L189.523 231.323Z" fill="#2F2E41"/>
<path d="M253.408 107.627C251.693 105.628 250.878 102.975 249.507 100.705C248.137 98.4342 245.752 96.4021 243.232 96.9305C241.495 97.2947 240.152 98.8275 239.473 100.536C238.793 102.245 238.666 104.13 238.547 105.976C238.589 102.182 236.089 98.5039 232.646 97.2933C229.203 96.0826 225.082 97.433 222.919 100.481C221.975 99.6059 220.742 99.1077 219.455 99.0806C218.168 99.0536 216.916 99.4998 215.936 100.334C214 102.064 213.572 105.356 214.995 107.562C216.419 109.769 219.501 110.591 221.763 109.367L222.562 110.103C222.112 111.677 222.985 113.536 224.452 114.129C225.642 114.609 227.322 114.529 227.767 115.778C228.078 116.651 227.497 117.582 226.878 118.252C226.26 118.923 225.525 119.615 225.451 120.543C225.339 121.942 226.785 122.923 228.1 123.218C231.271 123.93 234.789 122.462 236.616 119.664C236.651 119.61 236.69 119.556 236.731 119.502C237.756 118.191 238.504 116.684 238.927 115.075C239.35 113.465 239.441 111.786 239.194 110.14C239.091 109.493 239.195 109.012 239.641 108.859C241.568 108.197 246.967 109.586 248.601 110.842C250.236 112.098 251.544 113.76 253.118 115.096C254.692 116.433 256.698 117.464 258.697 117.1C260.298 116.809 261.659 115.647 262.575 114.245C263.491 112.843 264.018 111.209 264.49 109.585C260.951 111.63 256.106 110.774 253.408 107.627Z" fill="#2F2E41"/>
<path d="M221.171 169.093V228.382C220.042 229.158 218.899 229.914 217.742 230.648V173.024C217.742 171.353 217.181 169.997 216.492 169.994H164.593C163.901 169.997 163.343 171.353 163.34 173.024V249.539C162.648 249.607 161.956 249.673 161.264 249.729C160.977 249.754 160.688 249.776 160.401 249.797C160.236 249.492 160.073 249.183 159.911 248.872V169.093C159.911 168.632 159.93 168.167 159.961 167.709C160.242 163.819 161.635 160.976 163.265 160.969H217.817C218.014 160.971 218.209 161.012 218.39 161.091C219.756 161.671 220.834 164.214 221.105 167.503C221.149 168.027 221.174 168.56 221.171 169.093Z" fill="#E4E4E4"/>
<path d="M137.901 169.093V249.302C137.854 249.377 137.807 249.448 137.761 249.523C136.588 249.405 135.422 249.269 134.26 249.115V173.024C134.26 171.353 133.664 169.997 132.932 169.994H77.8478C77.1152 169.997 76.5199 171.353 76.5199 173.024V225.848C75.2886 224.941 74.0749 224.011 72.879 223.058V169.093C72.879 168.632 72.8977 168.167 72.932 167.709C73.2281 163.819 74.7088 160.976 76.4419 160.969H134.338C134.546 160.97 134.753 161.011 134.946 161.091C136.395 161.671 137.542 164.214 137.832 167.503C137.879 168.027 137.901 168.56 137.901 169.093Z" fill="#E4E4E4"/>
<path d="M119.44 142.438L123.05 158.321L125.357 160.848H127.021L120.163 131.969L119.823 136.875V136.878L119.44 142.438Z" fill="#3F3D56"/>
<path d="M131.462 161.66C131.451 161.635 131.438 161.612 131.421 161.591C131.388 161.516 131.34 161.448 131.281 161.392L130.86 160.971L128.647 158.755C128.484 158.596 128.266 158.506 128.039 158.505H128.03L126.468 158.514L125.125 158.524L123.248 158.536L110.467 158.617L102.067 158.67C101.839 158.673 101.622 158.765 101.461 158.927C101.301 159.088 101.211 159.306 101.209 159.534C101.211 159.66 101.238 159.784 101.29 159.899L101.452 160.245L101.792 160.971L102.235 161.922L102.453 162.389C102.523 162.538 102.633 162.664 102.772 162.752C102.91 162.841 103.071 162.888 103.236 162.888H130.67C130.814 162.885 130.956 162.847 131.082 162.777C131.208 162.706 131.315 162.606 131.393 162.485C131.471 162.363 131.518 162.225 131.53 162.081C131.542 161.937 131.519 161.792 131.462 161.66H131.462Z" fill="#3F3D56"/>
<path opacity="0.17" d="M102.235 161.921L102.452 162.39C102.522 162.538 102.633 162.664 102.772 162.752C102.91 162.84 103.071 162.887 103.235 162.888H130.671C130.815 162.886 130.957 162.848 131.083 162.777C131.209 162.707 131.316 162.607 131.394 162.486C131.472 162.364 131.519 162.225 131.531 162.082C131.543 161.938 131.519 161.793 131.462 161.661C131.452 161.636 131.438 161.613 131.422 161.592L102.235 161.921Z" fill="black"/>
<path opacity="0.17" d="M119.823 136.875V136.878L125.697 160.848H127.021L120.163 131.969L119.823 136.875Z" fill="black"/>
<path d="M129.037 69.7955L128.176 69.6802C127.94 69.6494 127.701 69.7133 127.512 69.8578L126.998 70.2537L121.272 77.4171C121.083 77.5632 120.959 77.7785 120.929 78.0156L120.608 80.4532L112.615 141.267C112.587 141.492 112.643 141.72 112.774 141.906L116.54 152.286L116.652 152.448L116.895 152.794C117.02 152.97 117.204 153.096 117.413 153.15L117.958 153.287C118.082 153.318 118.211 153.322 118.337 153.3C118.463 153.277 118.582 153.228 118.687 153.156C118.793 153.085 118.883 152.992 118.949 152.883C119.016 152.774 119.059 152.653 119.074 152.526L120.05 145.113V145.11L120.673 140.353L121.2 136.342V136.339L129.816 70.8055C129.847 70.5689 129.783 70.3296 129.638 70.1403C129.492 69.951 129.278 69.8272 129.041 69.7961L129.037 69.7955Z" fill="#3F3D56"/>
<path opacity="0.17" d="M126.997 70.2539L116.539 152.287L116.653 152.448L116.895 152.793C117.02 152.969 117.203 153.095 117.413 153.149L117.959 153.286C118.083 153.317 118.211 153.321 118.337 153.298C118.462 153.276 118.581 153.227 118.687 153.155C118.792 153.084 118.881 152.991 118.948 152.882C119.015 152.774 119.058 152.652 119.075 152.526L129.815 70.8064C129.846 70.5691 129.782 70.3291 129.636 70.1393C129.49 69.9495 129.275 69.8253 129.038 69.794L128.175 69.6806C128.058 69.6648 127.939 69.6725 127.825 69.7031C127.711 69.7337 127.604 69.7868 127.511 69.8591L126.997 70.2539Z" fill="black"/>
<path d="M126.688 72.6001L121.139 80.5212L114.543 130.709L118.119 137.803L126.688 72.6001Z" fill="#54B13F"/>
<path d="M180.747 142.438L177.137 158.321L174.83 160.848H173.166L180.025 131.969L180.364 136.875V136.878L180.747 142.438Z" fill="#3F3D56"/>
<path d="M198.12 158.67L176.942 158.536L175.062 158.524L173.722 158.514L172.16 158.505H172.148C171.921 158.506 171.704 158.595 171.543 158.754L168.906 161.392C168.847 161.449 168.8 161.517 168.765 161.591C168.749 161.612 168.735 161.635 168.725 161.66C168.668 161.792 168.644 161.937 168.656 162.081C168.668 162.225 168.715 162.363 168.794 162.485C168.872 162.606 168.979 162.706 169.105 162.777C169.231 162.847 169.372 162.885 169.517 162.888H196.951C197.116 162.887 197.277 162.84 197.416 162.752C197.555 162.664 197.666 162.538 197.737 162.389L197.952 161.922L198.395 160.971L198.896 159.899C198.95 159.784 198.978 159.66 198.977 159.534C198.976 159.306 198.886 159.088 198.725 158.927C198.565 158.765 198.348 158.673 198.12 158.67Z" fill="#3F3D56"/>
<path opacity="0.17" d="M197.952 161.921L197.735 162.39C197.665 162.538 197.554 162.664 197.415 162.752C197.277 162.84 197.116 162.887 196.952 162.888H169.516C169.372 162.886 169.231 162.848 169.104 162.777C168.978 162.707 168.872 162.607 168.793 162.486C168.715 162.364 168.668 162.225 168.656 162.082C168.645 161.938 168.668 161.793 168.726 161.661C168.735 161.636 168.749 161.613 168.765 161.592L197.952 161.921Z" fill="black"/>
<path opacity="0.17" d="M180.364 136.875V136.878L174.491 160.848H173.166L180.025 131.969L180.364 136.875Z" fill="black"/>
<path d="M187.572 141.267L179.258 78.0157C179.228 77.7786 179.104 77.5633 178.915 77.4172L173.192 70.2538L172.678 69.8579C172.487 69.7137 172.248 69.6499 172.01 69.6803L171.15 69.7956C170.913 69.8262 170.697 69.9498 170.551 70.1392C170.405 70.3286 170.34 70.5683 170.371 70.8056L178.987 136.342V136.345L179.514 140.354L180.14 145.114V145.12L181.113 152.526C181.128 152.653 181.171 152.775 181.238 152.884C181.306 152.993 181.396 153.085 181.502 153.156C181.607 153.228 181.726 153.277 181.851 153.3C181.977 153.322 182.105 153.318 182.229 153.287L182.774 153.15C182.983 153.096 183.166 152.97 183.292 152.794L183.535 152.448L183.647 152.286L187.413 141.906C187.545 141.721 187.602 141.492 187.572 141.267Z" fill="#3F3D56"/>
<path opacity="0.17" d="M173.19 70.2542L183.648 152.288L183.534 152.448L183.292 152.793C183.167 152.969 182.984 153.095 182.774 153.149L182.228 153.286C182.105 153.317 181.976 153.321 181.85 153.299C181.725 153.276 181.606 153.227 181.5 153.156C181.395 153.084 181.306 152.991 181.239 152.882C181.172 152.774 181.129 152.653 181.112 152.526L170.372 70.8066C170.341 70.5693 170.405 70.3294 170.551 70.1395C170.697 69.9497 170.912 69.8255 171.149 69.7942L172.012 69.6809C172.129 69.6651 172.248 69.6727 172.362 69.7033C172.476 69.734 172.583 69.787 172.676 69.8594L173.19 70.2542Z" fill="black"/>
<path d="M173.499 72.6001L179.048 80.5212L185.644 130.709L182.068 137.803L173.499 72.6001Z" fill="#54B13F"/>
<path d="M70.3521 173.786C70.353 173.942 70.3394 174.099 70.3116 174.253C70.2991 174.328 70.2835 174.4 70.2648 174.471C70.113 175.051 69.7734 175.564 69.299 175.93C68.8247 176.296 68.2424 176.495 67.6433 176.494H55.9132V204.471C55.9137 205.063 55.7199 205.638 55.3615 206.108C55.0934 205.793 54.8284 205.478 54.5666 205.16C53.1638 203.483 51.8079 201.769 50.4986 200.017V176.494H45.2617C44.5634 176.494 43.8923 176.224 43.3886 175.74C42.8848 175.257 42.5874 174.597 42.5584 173.899C42.5295 173.202 42.7712 172.52 43.2331 171.996C43.695 171.472 44.3414 171.148 45.0373 171.089C45.1121 171.083 45.1869 171.08 45.2617 171.08H67.6433C68.3612 171.08 69.0499 171.364 69.5579 171.872C70.0659 172.379 70.3515 173.068 70.3521 173.786Z" fill="#3F3D56"/>
<path d="M257.269 173.786C257.269 174.334 257.103 174.869 256.793 175.321C256.482 175.773 256.042 176.12 255.53 176.317C255.287 176.41 255.032 176.466 254.772 176.485C254.704 176.491 254.632 176.494 254.563 176.494H249.33V201.887C249.252 201.99 249.171 202.093 249.09 202.196C247.858 203.77 246.59 205.313 245.283 206.825C244.867 206.59 244.52 206.248 244.279 205.834C244.039 205.42 243.913 204.95 243.915 204.471V176.494H232.182C231.836 176.496 231.493 176.429 231.172 176.298C230.768 176.137 230.409 175.88 230.126 175.55C229.843 175.22 229.643 174.826 229.545 174.403V174.4C229.399 173.784 229.477 173.137 229.763 172.573C229.76 172.57 229.76 172.57 229.763 172.57C229.887 172.322 230.049 172.094 230.243 171.897C230.495 171.638 230.797 171.433 231.13 171.292C231.463 171.152 231.821 171.08 232.182 171.08H254.563C255.281 171.08 255.969 171.365 256.476 171.872C256.984 172.379 257.269 173.067 257.269 173.785L257.269 173.786Z" fill="#3F3D56"/>
<path d="M257.09 121.623C255.976 121.623 254.873 121.842 253.844 122.269C252.814 122.695 251.879 123.32 251.091 124.108C250.304 124.895 249.679 125.83 249.252 126.86C248.826 127.889 248.607 128.992 248.607 130.106V130.106C248.607 132.074 249.291 133.981 250.543 135.5C251.794 137.019 253.534 138.055 255.466 138.432V152.307H260.88V121.623H257.09Z" fill="#3F3D56"/>
<path d="M108.976 152.6C108.436 152.283 107.833 152.088 107.21 152.029C106.586 151.971 105.957 152.049 105.368 152.26C104.778 152.47 104.241 152.808 103.796 153.248C103.351 153.688 103.007 154.221 102.79 154.808L93.0087 155.189L91.6908 159.746L105.596 160.457C106.607 160.757 107.693 160.675 108.648 160.228C109.602 159.781 110.36 158.998 110.776 158.03C111.193 157.061 111.24 155.974 110.908 154.973C110.576 153.972 109.889 153.128 108.976 152.6H108.976Z" fill="#9E616A"/>
<path d="M100.942 160.949L90.8941 160.823L89.6223 160.806L69.1804 160.549C69.1804 160.549 63.6292 155.253 58.7955 149.8L59.473 144.9C60.1339 140.091 62.5195 135.685 66.186 132.504C73.109 137.13 77.1238 146.286 77.1238 146.286L83.8554 149.298C88.5928 149.51 93.2091 150.862 97.3124 153.239L99.5261 154.522L100.942 160.949Z" fill="#54B13F"/>
<path d="M132.509 248.873H168.75C166.278 249.234 163.783 249.52 161.265 249.73H139.994C137.475 249.521 134.98 249.235 132.509 248.873Z" fill="#CCCCCC"/>
<path d="M139.795 230.628C140.497 224.298 144.33 218.019 150.33 215.882C148.04 222.418 148.136 229.554 150.601 236.026C151.56 238.519 152.887 241.192 152.05 243.728C151.529 245.306 150.219 246.526 148.747 247.297C147.274 248.069 145.634 248.449 144.015 248.822L143.698 249.09C141.042 243.302 139.094 236.958 139.795 230.628Z" fill="#CCCCCC"/>
<path d="M150.391 216.001C146.934 219.98 144.818 224.948 144.345 230.198C144.223 231.327 144.28 232.467 144.513 233.578C144.776 234.653 145.321 235.638 146.092 236.43C146.797 237.184 147.605 237.873 148.114 238.785C148.368 239.256 148.519 239.775 148.558 240.308C148.597 240.841 148.523 241.376 148.341 241.879C147.919 243.143 147.068 244.18 146.201 245.165C145.238 246.259 144.22 247.38 143.824 248.818C143.776 248.993 143.508 248.908 143.556 248.734C144.246 246.231 146.647 244.783 147.771 242.522C148.295 241.467 148.505 240.248 147.986 239.148C147.531 238.187 146.699 237.476 145.979 236.719C145.215 235.957 144.649 235.019 144.331 233.987C144.042 232.892 143.941 231.755 144.033 230.626C144.2 228.081 144.767 225.578 145.711 223.209C146.775 220.499 148.294 217.99 150.203 215.792C150.321 215.656 150.509 215.865 150.391 216.001H150.391Z" fill="white"/>
<path d="M144.398 228.499C143.528 228.3 142.757 227.798 142.223 227.083C141.688 226.368 141.426 225.486 141.481 224.595C141.484 224.559 141.501 224.525 141.528 224.501C141.555 224.477 141.59 224.464 141.627 224.465C141.663 224.467 141.697 224.482 141.723 224.508C141.748 224.534 141.762 224.569 141.762 224.606C141.708 225.435 141.953 226.256 142.452 226.921C142.951 227.586 143.671 228.05 144.483 228.231C144.659 228.27 144.573 228.538 144.398 228.499H144.398Z" fill="white"/>
<path d="M145.685 236.095C147.239 235.139 148.375 233.632 148.867 231.875C148.916 231.701 149.184 231.786 149.135 231.96C148.619 233.787 147.434 235.353 145.814 236.344C145.66 236.439 145.531 236.189 145.685 236.095Z" fill="white"/>
<path d="M147.039 220.761C147.359 220.908 147.711 220.973 148.063 220.951C148.415 220.928 148.756 220.819 149.056 220.632C149.209 220.535 149.337 220.785 149.185 220.881C148.854 221.086 148.477 221.206 148.088 221.232C147.699 221.258 147.31 221.188 146.954 221.029C146.919 221.017 146.891 220.992 146.874 220.959C146.857 220.926 146.853 220.888 146.863 220.853C146.874 220.817 146.899 220.788 146.932 220.771C146.965 220.753 147.003 220.75 147.039 220.761L147.039 220.761Z" fill="white"/>
<path d="M168.852 226.924C168.758 226.987 168.664 227.049 168.57 227.115C167.312 227.966 166.125 228.919 165.021 229.963C164.934 230.042 164.848 230.124 164.764 230.205C162.131 232.749 159.993 235.758 158.459 239.082C157.85 240.405 157.342 241.773 156.941 243.173C156.386 245.106 155.939 247.247 154.811 248.838C154.695 249.005 154.569 249.165 154.433 249.316L144.051 249.455C144.027 249.444 144.003 249.435 143.979 249.423L143.565 249.448C143.581 249.374 143.598 249.298 143.614 249.224C143.623 249.181 143.634 249.139 143.643 249.096C143.65 249.067 143.657 249.039 143.661 249.013C143.663 249.003 143.666 248.994 143.668 248.987C143.672 248.96 143.679 248.937 143.683 248.913C143.782 248.488 143.884 248.062 143.989 247.637C143.988 247.634 143.988 247.634 143.991 247.632C144.759 244.382 145.91 241.235 147.419 238.256C147.466 238.168 147.512 238.077 147.563 237.989C148.262 236.67 149.069 235.41 149.974 234.222C150.472 233.574 151.002 232.951 151.563 232.355C153.014 230.821 154.698 229.524 156.553 228.512C160.25 226.496 164.552 225.685 168.547 226.833C168.649 226.863 168.749 226.892 168.852 226.924Z" fill="#CCCCCC"/>
<path d="M168.83 227.056C163.674 228.152 158.994 230.845 155.455 234.752C154.678 235.579 154.037 236.524 153.554 237.552C153.116 238.568 152.959 239.682 153.098 240.78C153.206 241.806 153.436 242.842 153.294 243.877C153.213 244.405 153.022 244.911 152.732 245.36C152.442 245.809 152.061 246.192 151.612 246.484C150.515 247.239 149.211 247.555 147.925 247.819C146.498 248.113 145.01 248.395 143.828 249.305C143.685 249.415 143.522 249.187 143.665 249.076C145.722 247.493 148.512 247.783 150.77 246.654C151.824 246.128 152.726 245.28 152.973 244.09C153.189 243.049 152.952 241.979 152.833 240.942C152.682 239.873 152.795 238.783 153.162 237.768C153.591 236.72 154.195 235.752 154.948 234.906C156.614 232.974 158.573 231.317 160.754 229.994C163.234 228.47 165.957 227.382 168.805 226.776C168.981 226.739 169.005 227.019 168.83 227.056H168.83Z" fill="white"/>
<path d="M156.52 233.427C155.945 232.744 155.632 231.879 155.636 230.987C155.64 230.094 155.961 229.232 156.541 228.554C156.659 228.417 156.877 228.594 156.759 228.731C156.217 229.361 155.918 230.164 155.916 230.996C155.915 231.827 156.21 232.631 156.749 233.264C156.866 233.401 156.637 233.564 156.52 233.427Z" fill="white"/>
<path d="M152.974 240.267C154.79 240.439 156.605 239.92 158.056 238.814C158.199 238.704 158.362 238.933 158.219 239.042C156.707 240.191 154.817 240.727 152.927 240.544C152.747 240.526 152.795 240.249 152.974 240.267V240.267Z" fill="white"/>
<path d="M163.287 228.838C163.455 229.149 163.697 229.413 163.991 229.607C164.286 229.801 164.624 229.919 164.976 229.949C165.156 229.965 165.108 230.241 164.929 230.226C164.541 230.19 164.168 230.06 163.842 229.846C163.516 229.633 163.247 229.343 163.059 229.001C163.038 228.971 163.03 228.933 163.036 228.897C163.042 228.861 163.062 228.828 163.091 228.806C163.122 228.784 163.159 228.776 163.196 228.782C163.233 228.788 163.265 228.808 163.287 228.838Z" fill="white"/>
<path d="M174.237 235.742C176.061 235.742 177.539 234.264 177.539 232.44C177.539 230.617 176.061 229.138 174.237 229.138C172.414 229.138 170.935 230.617 170.935 232.44C170.935 234.264 172.414 235.742 174.237 235.742Z" fill="#CCCCCC"/>
<path d="M185.018 245.386C184.815 245.445 184.609 245.504 184.404 245.56C182.536 246.084 180.656 246.563 178.762 246.997C178.544 246.557 178.427 246.074 178.419 245.583C178.412 245.091 178.514 244.605 178.718 244.158C178.923 243.711 179.225 243.316 179.601 243.001C179.978 242.686 180.421 242.458 180.896 242.336C181.372 242.213 181.869 242.198 182.351 242.292C182.834 242.386 183.289 242.587 183.684 242.879C184.079 243.171 184.403 243.548 184.634 243.982C184.865 244.415 184.996 244.895 185.018 245.386Z" fill="#CCCCCC"/>
<path d="M203.883 238.297C203.631 238.416 203.378 238.534 203.126 238.65C202.851 238.781 202.574 238.905 202.3 239.03C201.991 239.17 201.685 239.307 201.377 239.445C200.217 239.962 199.045 240.461 197.87 240.941C197.854 240.916 197.839 240.888 197.823 240.86C197.412 240.088 197.323 239.185 197.576 238.348C197.83 237.511 198.405 236.809 199.175 236.395C199.946 235.982 200.849 235.891 201.686 236.142C202.524 236.394 203.228 236.967 203.643 237.736C203.739 237.916 203.819 238.104 203.883 238.297Z" fill="#CCCCCC"/>
<path d="M185.884 227.637C187.707 227.637 189.186 226.159 189.186 224.335C189.186 222.512 187.707 221.033 185.884 221.033C184.06 221.033 182.582 222.512 182.582 224.335C182.582 226.159 184.06 227.637 185.884 227.637Z" fill="#CCCCCC"/>
<path d="M155.594 43.4134C136.171 48.5225 114.65 51.6303 92.7667 52.4813C89.5598 52.656 86.3451 52.6341 83.1408 52.4158C76.099 51.8236 70.0672 49.6104 63.3497 48.4009C60.1202 47.8211 56.523 47.3971 53.2717 46.7706C54.023 45.8385 54.7877 44.9179 55.566 44.0087C62.5766 44.601 69.6963 46.5399 76.791 47.4408C88.8515 48.9744 102.365 47.2631 111.507 43.0424C115.943 40.9944 119.341 38.4383 123.761 36.3809C124.362 36.0723 125.014 35.8728 125.684 35.7918C127.084 35.664 128.312 36.2282 129.313 36.7332C136.729 40.4769 147.496 43.5193 157.489 41.8454C158.234 42.4283 156.819 43.0923 155.594 43.4134Z" fill="white"/>
<path d="M199.818 56.5882C199.909 56.5715 200.001 56.5585 200.092 56.5427C199.708 56.3048 199.347 56.0324 199.012 55.729L199.818 56.5882Z" fill="white"/>
<path d="M259.643 63.9744C255.469 64.3079 251.274 64.5562 247.056 64.7194C243.849 64.8925 240.634 64.8707 237.43 64.6539C230.388 64.0585 224.356 61.8484 217.639 60.639C211.482 59.5323 204.001 58.9993 200.092 56.5429C210.195 54.7942 220.663 58.354 231.08 59.6789C239.507 60.715 248.049 60.2933 256.333 58.432C257.486 60.2462 258.59 62.0937 259.643 63.9744Z" fill="white"/>
<path d="M165.684 110.734C155.906 77.1714 150.15 42.5662 150.15 7.60826V5.07471H146.901V7.6082C146.901 42.5662 141.146 77.1714 131.368 110.734C130.895 112.359 130.656 114.043 130.657 115.735V115.735C130.657 116.375 130.783 117.008 131.028 117.6C131.272 118.191 131.631 118.728 132.084 119.181C132.537 119.633 133.074 119.992 133.665 120.237C134.256 120.482 134.89 120.608 135.53 120.608H142.028C142.028 121.461 142.196 122.306 142.523 123.095C142.849 123.883 143.328 124.599 143.931 125.203C144.535 125.806 145.251 126.285 146.039 126.611C146.828 126.938 147.673 127.106 148.526 127.106C149.379 127.106 150.224 126.938 151.012 126.611C151.801 126.285 152.517 125.806 153.121 125.203C153.724 124.599 154.203 123.883 154.529 123.095C154.856 122.306 155.024 121.461 155.024 120.608H160.08V134.613C159.367 134.634 158.689 134.927 158.185 135.432C157.681 135.937 157.389 136.616 157.37 137.329C157.351 138.043 157.605 138.736 158.081 139.268C158.557 139.799 159.219 140.128 159.93 140.188C160.641 140.247 161.347 140.032 161.905 139.586C162.462 139.141 162.828 138.499 162.927 137.792C163.026 137.086 162.851 136.368 162.437 135.786C162.024 135.205 161.404 134.804 160.704 134.665V120.608H161.522C162.814 120.608 164.054 120.095 164.968 119.181C165.882 118.267 166.395 117.027 166.395 115.735V115.735C166.396 114.043 166.157 112.359 165.684 110.734Z" fill="white"/>
</g>
<defs>
<clipPath id="clip0_114_15">
<rect width="275.258" height="250" fill="white" transform="translate(0.371124 0.177002)"/>
</clipPath>
</defs>
</svg>
