<svg width="37" height="36" viewBox="0 0 37 36" fill="none" xmlns="http://www.w3.org/2000/svg">
<path d="M18.4469 0C16.0244 0 13.6256 0.477143 11.3876 1.40419C9.14949 2.33123 7.11592 3.69002 5.40297 5.40297C1.94351 8.86243 0 13.5545 0 18.4469C0 26.6004 5.29426 33.518 12.6177 35.9714C13.54 36.119 13.8352 35.5471 13.8352 35.0491V31.9316C8.72538 33.0384 7.63701 29.4597 7.63701 29.4597C6.78845 27.3198 5.58941 26.748 5.58941 26.748C3.91074 25.6043 5.71853 25.6412 5.71853 25.6412C7.56322 25.7703 8.54091 27.5412 8.54091 27.5412C10.1458 30.3451 12.8575 29.515 13.909 29.0723C14.075 27.8732 14.5546 27.0616 15.0711 26.6004C10.9759 26.1392 6.67777 24.5528 6.67777 17.5245C6.67777 15.4769 7.37875 13.8352 8.5778 12.5254C8.39333 12.0643 7.74769 10.1458 8.76227 7.65546C8.76227 7.65546 10.3118 7.15739 13.8352 9.53704C15.2925 9.13121 16.8789 8.92829 18.4469 8.92829C20.0149 8.92829 21.6013 9.13121 23.0586 9.53704C26.582 7.15739 28.1315 7.65546 28.1315 7.65546C29.1461 10.1458 28.5004 12.0643 28.316 12.5254C29.515 13.8352 30.216 15.4769 30.216 17.5245C30.216 24.5713 25.8994 26.1208 21.7858 26.582C22.4499 27.1538 23.0586 28.2791 23.0586 29.9946V35.0491C23.0586 35.5471 23.3538 36.1374 24.2945 35.9714C31.618 33.4995 36.8938 26.6004 36.8938 18.4469C36.8938 16.0244 36.4166 13.6256 35.4896 11.3876C34.5625 9.14949 33.2038 7.11592 31.4908 5.40297C29.7779 3.69002 27.7443 2.33123 25.5062 1.40419C23.2681 0.477143 20.8694 0 18.4469 0Z" fill="#1C1C1C"/>
</svg>
