<?xml version="1.0" encoding="UTF-8"?>
<svg id="Livello_2" data-name="Livello 2" xmlns="http://www.w3.org/2000/svg" viewBox="0 0 68.24 79.05">
  <g id="Livello_1-2" data-name="Livello 1">
    <path d="M23.2,5.57V0h22.52V5.57h11.6v5.46h5.46v6.14h5.46V62.1h-5.46v6.14h-5.46v5.46h-11.6v5.35H23.2v-5.35H6.14v-11.6H0V12.4c.15-.91,.61-1.36,1.36-1.36H6.14V5.57H23.2Zm22.52,.11H23.2v5.35h-4.78c-.91,.15-1.36,.61-1.36,1.36v4.78h-5.46V62.1h5.46v4.78c.15,.91,.61,1.36,1.36,1.36h4.78v5.35h22.52v-5.35h5.46v-4.78c0-.45,.23-.68,.68-.68l-.68-1.36V17.86c0-.45,.23-.68,.68-.68l-.68-1.36v-4.78h-5.46V5.69Z"/>
  </g>
</svg>