<?xml version="1.0" encoding="UTF-8"?>
<svg id="Livello_2" data-name="Livello 2" xmlns="http://www.w3.org/2000/svg" viewBox="0 0 73.59 85.19">
  <g id="Livello_1-2" data-name="Livello 1">
    <path d="M39.47,45.72v-5.46h11.72v-6.14h5.46V17.06h-5.46v-5.46H17.06V28.66H0V11.6H5.46V6.14h11.6V0H49.82c.91,.15,1.36,.61,1.36,1.36V6.14h10.81v5.46h6.14v22.52h-4.78c-.91,.15-1.36,.61-1.36,1.36v4.78h-5.35v5.46h-17.06v5.46h-5.46v4.66c0,.91-.45,1.36-1.36,1.36h-10.01v5.46h-5.69v11.6H61.99v-11.6h11.6v22.52H5.46v-5.46H0v-5.46H5.46v-6.14h5.46v-5.46h6.03v-5.46h5.57v-6.03h5.46v-5.46h11.49Z"/>
  </g>
</svg>