<?xml version="1.0" encoding="UTF-8"?>
<svg id="Livello_2" data-name="Livello 2" xmlns="http://www.w3.org/2000/svg" viewBox="0 0 68.24 85.19">
  <g id="Livello_1-2" data-name="Livello 1">
    <path d="M17.06,0h27.3c.91,.15,1.36,.61,1.36,1.36V6.14h10.92v5.46h6.14v22.52h-4.78c-.91,.15-1.36,.61-1.36,1.36v4.78h6.14v5.46h5.46v22.41h-5.46v4.78c0,.91-.45,1.36-1.36,1.36h-4.78v5.46h-10.92v5.46H11.6v-5.46H0v-11.6H10.24c.91,.15,1.36,.61,1.36,1.36v4.78H45.72v-6.14h5.46v-22.41H22.52v-5.46h6.14v-6.14h22.52V17.06h-5.46v-5.46H17.06V28.66H0V11.6H5.46V6.14h11.6V0Z"/>
  </g>
</svg>