<?xml version="1.0" encoding="UTF-8"?>
<svg id="Livello_2" data-name="Livello 2" xmlns="http://www.w3.org/2000/svg" viewBox="0 0 54.18 67.75">
  <defs>
    <style>
      .cls-1 {
        fill: #fff;
      }
    </style>
  </defs>
  <g id="Livello_1-2" data-name="Livello 1">
    <path class="cls-1" d="M18.36,32.02v-4.88h26.05c.72,.12,1.08,.48,1.08,1.09v3.8h8.68v22.16h-4.34v4.88h-4.34v4.34h-4.88v4.34H18.36v-4.34H9.23v-4.34H4.88v-4.88H0V22.79H4.88V13.57h4.34v-4.34h4.34V4.88h9.14V0h21.71c.72,.12,1.08,.48,1.08,1.09v3.8h4.34v4.34H22.7v4.34h-4.34v3.8c0,.72-.36,1.09-1.09,1.09h-3.71v12.48c.06,.72,.42,1.09,1.08,1.09h3.71Zm.09,0v4.34h-4.88v17.82h3.71c.72,.12,1.09,.48,1.09,1.09v3.8h22.25v-3.8c.12-.72,.48-1.09,1.08-1.09h3.8v-17.82h-4.88v-4.34H18.45Z"/>
  </g>
</svg>