<?xml version="1.0" standalone="no"?>
<svg xmlns="http://www.w3.org/2000/svg" viewBox="0 0 78 72" width="78" height="72"><g fill="#ffa826" color="#ffa826" transform="translate(16.688 0) scale(0.0859375) "><svg width="512.0" height="512.0" x="0.0" y="0.0" viewBox="0 0 512 512"><g><path d="M497.015,318.055c11.249-3.531,17.499-15.5,13.999-26.748l-6.375-20.352c-2.188-6.928-7.562-11.951-13.998-13.974   c0-0.328,0-0.656,0-0.984c0-52.95-38.561-96.877-89.151-105.229c-7.905-19.592-27.062-33.428-49.497-33.428   c-11.999,0-23.061,3.969-31.998,10.671c-17.812-13.397-39.967-21.342-63.996-21.342c-24.03,0-46.185,7.945-63.996,21.342   c-8.906-6.695-19.999-10.671-31.998-10.671c-22.405,0-41.591,13.835-49.497,33.428c-50.559,8.351-89.151,52.278-89.151,105.229   c0,0.328,0,0.656,0,0.984c-6.437,2.023-11.812,7.046-13.968,13.974l-6.375,20.352c-3.531,11.248,2.719,23.217,13.968,26.748   l0.281,0.078C5.389,345.334,0.014,374.707,0.014,405.33h511.968c0-30.623-5.375-59.996-15.218-87.197L497.015,318.055z    M488.609,298.338c-3.031-6.594-6.312-13-9.875-19.266l5.531-1.734l6.375,20.344L488.609,298.338z M469.328,255.997   c0,1.234-0.031,2.468-0.094,3.695l-2.218,0.688c-25.843-37.576-61.497-67.91-103.243-87.315c6.562-1.578,13.311-2.398,20.217-2.398   c22.779,0,44.216,8.875,60.34,24.999C460.454,211.772,469.328,233.208,469.328,255.997z M376.084,149.627   c-10.499,0.773-20.561,3.055-29.967,6.632c-3-4.71-6.343-9.171-9.999-13.343c4.687-2.695,10.093-4.25,15.874-4.25   C361.586,138.667,370.21,142.917,376.084,149.627z M316.338,152.995c1.469,1.477,2.875,3,4.25,4.562   c-20.654-5.367-42.279-8.218-64.589-8.218c-22.311,0-43.935,2.852-64.559,8.218c1.344-1.562,2.75-3.085,4.219-4.562   c16.124-16.116,37.56-24.991,60.34-24.991C278.777,128.004,300.214,136.878,316.338,152.995z M160.004,138.667   c5.781,0,11.218,1.554,15.905,4.25c-3.688,4.172-7.031,8.632-10.031,13.343c-9.406-3.578-19.467-5.859-29.967-6.632   C141.787,142.917,150.411,138.667,160.004,138.667z M67.667,195.664c16.124-16.124,37.56-24.999,60.34-24.999   c6.906,0,13.687,0.82,20.217,2.398c-41.747,19.405-77.37,49.739-103.244,87.315l-2.218-0.688c-0.062-1.227-0.094-2.461-0.094-3.695   C42.668,233.208,51.542,211.772,67.667,195.664z M21.356,297.682l6.375-20.344l5.531,1.719c-3.562,6.281-6.843,12.688-9.875,19.281   L21.356,297.682z M22.294,383.988c2.156-24.154,8.031-47.623,17.499-69.996c11.812-27.936,28.717-53.035,50.278-74.597   c21.561-21.553,46.653-38.482,74.589-50.294c28.936-12.233,59.653-18.436,91.338-18.436c31.685,0,62.433,6.203,91.337,18.436   c27.936,11.812,53.028,28.741,74.59,50.294c21.561,21.562,38.466,46.661,50.309,74.597c9.438,22.373,15.312,45.842,17.469,69.996   H22.294z"></path><path d="M184.472,205.788c-4.188,4.164-4.188,10.921,0,15.085c4.156,4.164,10.906,4.164,15.062,0   c4.188-4.164,4.188-10.921,0-15.085C195.377,201.625,188.627,201.625,184.472,205.788z"></path><path d="M248.468,269.783c-4.188,4.164-4.188,10.93,0,15.086c4.156,4.156,10.905,4.156,15.062,0c4.188-4.156,4.188-10.922,0-15.086   C259.373,265.621,252.624,265.621,248.468,269.783z"></path><path d="M312.463,205.788c-4.188,4.164-4.188,10.921,0,15.085c4.156,4.164,10.906,4.164,15.062,0   c4.188-4.164,4.188-10.921,0-15.085C323.369,201.625,316.619,201.625,312.463,205.788z"></path><path d="M120.476,269.783c-4.188,4.164-4.188,10.93,0,15.086c4.156,4.156,10.906,4.156,15.062,0c4.188-4.156,4.188-10.922,0-15.086   C131.381,265.621,124.631,265.621,120.476,269.783z"></path><path d="M184.472,333.771c-4.188,4.188-4.188,10.938,0,15.094c4.156,4.156,10.906,4.156,15.062,0   c4.188-4.156,4.188-10.906,0-15.094C195.377,329.617,188.627,329.617,184.472,333.771z"></path><path d="M312.463,333.771c-4.188,4.188-4.188,10.938,0,15.094c4.156,4.156,10.906,4.156,15.062,0   c4.188-4.156,4.188-10.906,0-15.094C323.369,329.617,316.619,329.617,312.463,333.771z"></path><path d="M376.459,269.783c-4.188,4.164-4.188,10.93,0,15.086c4.156,4.156,10.906,4.156,15.062,0c4.188-4.156,4.188-10.922,0-15.086   C387.365,265.621,380.615,265.621,376.459,269.783z"></path><path d="M56.479,333.584c-4.188,4.156-4.188,10.906,0,15.062c4.156,4.188,10.906,4.188,15.062,0c4.188-4.156,4.188-10.906,0-15.062   C67.385,329.398,60.635,329.398,56.479,333.584z"></path><path d="M440.455,333.771c-4.188,4.188-4.188,10.938,0,15.094c4.156,4.156,10.906,4.156,15.062,0   c4.188-4.156,4.188-10.906,0-15.094C451.361,329.617,444.611,329.617,440.455,333.771z"></path></g></svg></g><path fill="#ff4136" fill-rule="nonzero" d="M2.71 19.44L0 19.44L0 0L3.91 0Q5.86 0 7.13 0.52Q8.40 1.03 9.01 2.17Q9.62 3.31 9.62 5.16L9.62 5.16Q9.62 6.29 9.38 7.21Q9.14 8.14 8.62 8.77Q8.09 9.41 7.22 9.70L7.22 9.70L9.98 19.44L7.37 19.44L4.82 10.32L2.71 10.32L2.71 19.44ZM2.71 1.94L2.71 8.38L3.74 8.38Q4.90 8.38 5.62 8.09Q6.34 7.80 6.67 7.10Q7.01 6.41 7.01 5.16L7.01 5.16Q7.01 3.46 6.38 2.70Q5.76 1.94 3.91 1.94L3.91 1.94L2.71 1.94ZM16.08 19.63L16.08 19.63Q14.45 19.63 13.56 19.00Q12.67 18.36 12.32 17.12Q11.98 15.89 11.98 14.09L11.98 14.09L11.98 10.92Q11.98 9.07 12.34 7.85Q12.70 6.62 13.60 6.00Q14.50 5.38 16.08 5.38L16.08 5.38Q17.83 5.38 18.66 6.10Q19.49 6.82 19.75 8.17Q20.02 9.53 20.02 11.42L20.02 11.42L20.02 12.55L14.54 12.55L14.54 15.34Q14.54 16.18 14.70 16.70Q14.86 17.23 15.20 17.48Q15.55 17.74 16.10 17.74L16.10 17.74Q16.68 17.74 16.98 17.46Q17.28 17.18 17.39 16.67Q17.50 16.15 17.50 15.46L17.50 15.46L17.50 14.62L19.99 14.62L19.99 15.14Q19.99 17.23 19.10 18.43Q18.22 19.63 16.08 19.63ZM14.54 10.42L14.54 11.16L17.50 11.16L17.50 9.91Q17.50 9.05 17.40 8.46Q17.30 7.87 17.00 7.57Q16.70 7.27 16.06 7.27L16.06 7.27Q15.43 7.27 15.11 7.56Q14.78 7.85 14.66 8.53Q14.54 9.22 14.54 10.42L14.54 10.42ZM25.56 19.63L25.56 19.63Q23.81 19.63 22.94 18.35Q22.08 17.06 22.08 13.99L22.08 13.99L22.08 11.30Q22.08 9.72 22.34 8.36Q22.61 7.01 23.34 6.19Q24.07 5.38 25.49 5.38L25.49 5.38Q26.18 5.38 26.76 5.69Q27.34 6.00 27.79 6.46L27.79 6.46L27.79 0L30.36 0L30.36 19.44L27.79 19.44L27.79 18.55Q27.34 19.03 26.80 19.33Q26.26 19.63 25.56 19.63ZM26.21 17.62L26.21 17.62Q26.57 17.62 26.98 17.48Q27.38 17.35 27.79 17.09L27.79 17.09L27.79 7.99Q27.46 7.75 27.05 7.57Q26.64 7.39 26.16 7.39L26.16 7.39Q25.27 7.39 24.96 8.24Q24.65 9.10 24.65 10.30L24.65 10.30L24.65 14.21Q24.65 15.17 24.76 15.95Q24.86 16.73 25.20 17.17Q25.54 17.62 26.21 17.62ZM35.33 19.44L33.12 19.44L33.48 0L36.14 0L39.58 15.77L43.03 0L45.67 0L46.03 19.44L43.85 19.44L43.63 5.33L40.34 19.44L38.81 19.44L35.54 5.33L35.33 19.44ZM52.63 19.63L52.63 19.63Q51 19.63 50.11 19.00Q49.22 18.36 48.88 17.12Q48.53 15.89 48.53 14.09L48.53 14.09L48.53 10.92Q48.53 9.07 48.89 7.85Q49.25 6.62 50.15 6.00Q51.05 5.38 52.63 5.38L52.63 5.38Q54.38 5.38 55.21 6.10Q56.04 6.82 56.30 8.17Q56.57 9.53 56.57 11.42L56.57 11.42L56.57 12.55L51.10 12.55L51.10 15.34Q51.10 16.18 51.25 16.70Q51.41 17.23 51.76 17.48Q52.10 17.74 52.66 17.74L52.66 17.74Q53.23 17.74 53.53 17.46Q53.83 17.18 53.94 16.67Q54.05 16.15 54.05 15.46L54.05 15.46L54.05 14.62L56.54 14.62L56.54 15.14Q56.54 17.23 55.66 18.43Q54.77 19.63 52.63 19.63ZM51.10 10.42L51.10 11.16L54.05 11.16L54.05 9.91Q54.05 9.05 53.95 8.46Q53.86 7.87 53.56 7.57Q53.26 7.27 52.61 7.27L52.61 7.27Q51.98 7.27 51.66 7.56Q51.34 7.85 51.22 8.53Q51.10 9.22 51.10 10.42L51.10 10.42ZM61.46 19.44L58.90 19.44L58.90 5.57L61.46 5.57L61.46 6.94Q62.16 6.29 63 5.83Q63.84 5.38 64.85 5.38L64.85 5.38Q65.69 5.38 66.13 5.81Q66.58 6.24 66.76 6.89Q66.94 7.54 66.94 8.21L66.94 8.21L66.94 19.44L64.37 19.44L64.37 8.95Q64.37 8.21 64.15 7.80Q63.94 7.39 63.26 7.39L63.26 7.39Q62.83 7.39 62.36 7.64Q61.90 7.90 61.46 8.26L61.46 8.26L61.46 19.44ZM71.42 19.63L71.42 19.63Q70.61 19.63 70.15 19.20Q69.70 18.77 69.52 18.12Q69.34 17.47 69.34 16.80L69.34 16.80L69.34 5.57L71.90 5.57L71.90 16.03Q71.90 16.78 72.12 17.20Q72.34 17.62 73.01 17.62L73.01 17.62Q73.44 17.62 73.91 17.36Q74.38 17.11 74.81 16.75L74.81 16.75L74.81 5.57L77.38 5.57L77.38 19.44L74.81 19.44L74.81 18.07Q74.14 18.72 73.28 19.18Q72.43 19.63 71.42 19.63Z" transform="translate(0, 52)"></path></svg>