<?xml version="1.0" encoding="UTF-8"?>
<svg id="Layer_2" data-name="Layer 2" xmlns="http://www.w3.org/2000/svg" viewBox="0 0 1416.89 4164.21">
  <defs>
    <style>
      .cls-1 {
        fill: #4b22dd;
      }

      .cls-2 {
        fill: #24ce3c;
      }
    </style>
  </defs>
  <g id="Layer_2-2" data-name="Layer 2">
    <g>
      <g id="Layer_2-2" data-name="Layer 2-2">
        <g id="Layer_1-2" data-name="Layer 1-2">
          <path class="cls-1" d="m0,4.73l8,2.55c8,2.55,24,7.65,40,6.81,16-.91,32-7.6,48-11.06,16-3.39,32-3.39,48,1.71,16,5.1,32,15.3,48,13.6,16-1.64,32-15.35,48-17.85,16-2.6,32,6.01,48,6.81s32-5.9,48-5.1c16,.8,32,9.4,48,16.15,16,6.81,32,11.91,48,9.36s32-12.75,48-17.01c16-4.19,32-2.6,48-2.55,16-.05,32-1.64,48-1.69,16,.05,32,1.64,48,.84,16-.8,32-4.3,48-5.94,16-1.71,32-1.71,48,.84s32,7.65,48,14.46c16,6.74,32,15.35,48,17.85,16,2.6,32-.91,48-7.65,16-6.81,32-17.01,48-18.71,16-1.64,32,5.05,48,10.2,16,5.05,32,8.56,48,11.06,16,2.6,32,4.19,48-.86,16-5.15,32-16.94,48-19.54,16-2.5,32,4.19,48,10.2,16,5.94,32,11.05,48,12.75,16,1.64,32,.05,48,0,16,.05,32,1.64,48,0,16-1.71,32-6.81,48-7.65,16-.91,32,2.6,48,2.55,16,.05,16.89-5.17,24.89-6.81h0v4144.16H0V4.73Z"/>
        </g>
      </g>
      <circle class="cls-2" cx="429" cy="840" r="150"/>
      <circle class="cls-2" cx="1175" cy="207" r="150"/>
      <circle class="cls-2" cx="642" cy="2298" r="150"/>
      <circle class="cls-2" cx="1097" cy="3443" r="150"/>
      <circle class="cls-2" cx="367" cy="3592" r="150"/>
    </g>
  </g> 
</svg>