<svg width="648" height="584" viewBox="0 0 648 584" fill="none" xmlns="http://www.w3.org/2000/svg">
<path d="M100 132C100 114.33 114.33 100 132 100H516C533.7 100 548 114.33 548 132C548 149.7 533.7 164 516 164H132C114.33 164 100 149.7 100 132ZM100 292C100 274.3 114.33 260 132 260H516C533.7 260 548 274.3 548 292C548 309.7 533.7 324 516 324H132C114.33 324 100 309.7 100 292ZM516 484H132C114.33 484 100 469.7 100 452C100 434.3 114.33 420 132 420H516C533.7 420 548 434.3 548 452C548 469.7 533.7 484 516 484Z" fill="#212529"/>
</svg>
