<svg width="856" height="598" viewBox="0 0 856 598" fill="none" xmlns="http://www.w3.org/2000/svg">
<path d="M522.744 309.482V505.309H553.534V326.725H676.696V505.309H707.486V113.655H676.696C666.493 113.655 650.832 166.794 650.832 220.19C650.832 260.438 655.532 294.93 662.216 309.482H522.744ZM676.696 309.482H676.396C676.497 309.263 676.596 309.032 676.696 308.804V309.482Z" fill="#3F3D56"/>
<path d="M636.845 16.7285H636.845C611.571 16.7285 591.083 39.4663 591.083 67.5148V103.151H602.043L608.388 89.9473L606.802 103.151H677.248L683.016 91.1476L681.574 103.151H689.506V75.1701C689.506 42.8938 665.929 16.7285 636.845 16.7285Z" fill="#2F2E41"/>
<path d="M584.41 249.554L556.312 261.496L458.672 340.872C455.082 345.284 452.882 350.662 452.35 356.326C451.648 365.457 422.145 413.224 432.682 419.546C443.218 425.868 481.15 444.834 483.258 432.19C485.365 419.546 496.604 365.457 496.604 365.457L590.732 281.164L584.41 249.554Z" fill="#2F2E41"/>
<path d="M474.126 421.653L462.184 456.775C462.184 456.775 474.828 470.122 468.506 481.361V519.995H458.672L455.862 499.624C455.862 499.624 444.661 519.738 439.004 519.995C427.144 520.535 403.658 524.753 402.955 518.431C402.253 512.109 420.74 505.946 420.74 505.946L440.409 451.858L448.838 418.843L474.126 421.653Z" fill="#2F2E41"/>
<path d="M657.464 240.422C657.464 240.422 663.786 302.237 645.522 313.477C627.258 324.716 546.477 360.54 546.477 360.54C546.477 360.54 580.897 392.853 573.873 400.58C566.848 408.306 535.238 429.38 531.024 425.165C526.809 420.95 479.745 370.375 485.365 354.218C490.984 338.062 568.956 285.379 568.956 285.379L578.087 252.364L580.897 225.671L610.4 206.705L657.464 240.422Z" fill="#2F2E41"/>
<path d="M625.281 96.5015C641.454 96.5015 654.565 83.3907 654.565 67.2178C654.565 51.0448 641.454 37.9341 625.281 37.9341C609.108 37.9341 595.998 51.0448 595.998 67.2178C595.998 83.3907 609.108 96.5015 625.281 96.5015Z" fill="#FFB9B9"/>
<path d="M647.981 79.2114C647.981 79.2114 646.576 105.904 668.352 114.334C690.127 122.763 614.263 177.554 614.263 177.554V116.441C614.263 116.441 624.098 105.904 614.263 89.748L647.981 79.2114Z" fill="#FFB9B9"/>
<path d="M694.693 204.598L689.074 231.993L672.215 326.12C672.215 326.12 686.264 366.16 667.298 365.457C648.332 364.755 657.464 321.906 657.464 321.906L667.298 243.935V213.729L694.693 204.598Z" fill="#FFB9B9"/>
<path d="M573.873 191.251L567.551 215.837L538.751 285.379C538.751 285.379 519.082 318.394 535.238 317.691C551.395 316.989 551.395 285.379 551.395 285.379L584.409 229.183V197.573L573.873 191.251Z" fill="#FFB9B9"/>
<path d="M568.956 396.365L592.136 418.141C592.136 418.141 608.293 414.628 614.615 433.594C620.937 452.56 625.151 464.502 625.151 464.502L616.722 469.419L606.185 454.668C606.185 454.668 599.863 481.361 593.541 483.468C587.219 485.575 555.609 499.624 558.419 483.468L573.873 460.99C573.873 460.99 575.98 435.702 569.658 433.594C563.336 431.487 546.478 410.414 546.478 410.414L568.956 396.365Z" fill="#2F2E41"/>
<path d="M658.577 262.198C658.577 262.198 592.547 238.315 588.333 240.422C585.196 241.808 581.854 242.676 578.439 242.99L578.499 233.398C578.499 233.398 600.274 225.671 612.216 230.588C624.157 235.505 660.685 257.281 660.685 257.281L658.577 262.198Z" fill="#3F3D56"/>
<path d="M618.478 163.505C618.478 163.505 637.444 141.729 643.064 128.383C646.619 120.292 653.145 113.874 661.295 110.456C661.295 110.456 703.474 119.953 702.771 136.812C702.069 153.671 676.078 179.661 676.078 179.661C676.078 179.661 679.591 273.086 660.625 271.681C656.534 266.799 653.647 261.024 652.195 254.823C650.088 244.988 584.761 234.452 584.761 234.452C584.761 234.452 579.141 244.286 578.439 240.071C577.736 235.857 584.058 132.597 584.058 132.597L617.556 110.456L618.478 163.505Z" fill="#D0CDE1"/>
<path d="M697.36 130.026L697.831 130.29C699.332 131.132 700.582 132.36 701.451 133.845C702.321 135.331 702.779 137.021 702.779 138.743L702.772 190.873C702.777 192.29 703.091 193.689 703.691 194.973C704.291 196.256 705.163 197.394 706.247 198.307C708.953 200.609 711.462 203.925 706.284 205.651C697.854 208.461 664.839 222.51 664.137 217.593C663.434 212.676 662.03 207.056 664.137 207.056C665.787 207.056 675.616 156.685 683.515 135.149C683.997 133.83 684.76 132.632 685.751 131.637C686.742 130.643 687.937 129.876 689.254 129.388C690.571 128.901 691.978 128.706 693.377 128.816C694.777 128.926 696.136 129.339 697.36 130.026V130.026Z" fill="#D0CDE1"/>
<path d="M593.541 130.139L583.707 132.948L572.468 181.417C572.468 181.417 559.122 184.227 563.336 189.144C567.551 194.061 585.112 206.705 585.112 206.705L593.541 130.139Z" fill="#D0CDE1"/>
<path d="M649.855 30.7183C647.653 27.7612 644.799 25.3512 641.515 23.6753C638.231 21.9994 634.605 21.1027 630.918 21.0547H630.019C612.697 21.0547 598.654 36.7298 598.654 56.0661V56.0662H604.458L605.396 48.931L606.77 56.0662H641.196L644.08 50.0297L643.359 56.0662H650.131C653.292 71.761 648.751 87.4557 636.509 103.151H648.046L653.814 91.0776L652.372 103.151H674.364L678.69 75.3828C678.69 54.5873 666.607 36.9531 649.855 30.7183Z" fill="#2F2E41"/>
<path d="M61.5349 354.728C68.9249 338.639 74.1219 300.501 74.1219 256.001C74.1219 196.963 56.8062 138.209 45.525 138.209H11.4811V571.248H45.525V373.793H181.701V571.248H215.745V354.728H61.5349ZM45.5249 353.979C45.6352 354.231 45.7449 354.486 45.8561 354.728H45.5249V353.979Z" fill="#3F3D56"/>
<path d="M203.433 275.729C203.433 275.729 244.433 292.729 231.433 302.729C218.433 312.729 191.433 290.729 192.433 287.729C193.433 284.729 188.433 277.729 188.433 277.729L203.433 275.729Z" fill="#9F616A"/>
<path d="M167.433 141.729L180.433 153.729L183.433 188.729L193.433 225.729C193.433 225.729 210.433 260.729 207.433 267.729C204.433 274.729 210.433 276.729 210.433 276.729L187.433 285.729C187.433 285.729 162.433 257.729 162.433 251.729C162.433 245.729 167.433 141.729 167.433 141.729Z" fill="#575A88"/>
<path opacity="0.1" d="M167.433 141.729L180.433 153.729L183.433 188.729L193.433 225.729C193.433 225.729 210.433 260.729 207.433 267.729C204.433 274.729 210.433 276.729 210.433 276.729L187.433 285.729C187.433 285.729 162.433 257.729 162.433 251.729C162.433 245.729 167.433 141.729 167.433 141.729Z" fill="black"/>
<path d="M290.433 501.729C290.433 501.729 285.433 524.729 284.433 526.729C283.433 528.729 303.433 535.729 303.433 535.729L327.433 518.729C327.433 518.729 317.433 496.729 317.433 492.729L290.433 501.729Z" fill="#575A88"/>
<path d="M159.433 277.729L166.433 285.729C166.433 285.729 311.433 303.729 314.433 331.729C317.433 359.729 338.433 491.729 326.433 495.729C314.433 499.729 283.433 514.729 283.433 506.729C283.433 498.729 263.433 388.729 267.433 368.729C267.433 368.729 94.4332 346.729 90.4332 321.729C86.4332 296.729 94.4332 285.729 94.4332 285.729L159.433 277.729Z" fill="#2F2E41"/>
<path opacity="0.1" d="M159.433 277.729L166.433 285.729C166.433 285.729 311.433 303.729 314.433 331.729C317.433 359.729 338.433 491.729 326.433 495.729C314.433 499.729 283.433 514.729 283.433 506.729C283.433 498.729 263.433 388.729 267.433 368.729C267.433 368.729 94.4332 346.729 90.4332 321.729C86.4332 296.729 94.4332 285.729 94.4332 285.729L159.433 277.729Z" fill="black"/>
<path d="M288.433 524.728C288.433 524.728 284.433 515.728 282.433 518.728C280.433 521.728 273.433 556.728 280.433 556.728C287.433 556.728 351.433 572.728 360.433 570.728C369.433 568.728 386.433 571.728 384.433 561.728C382.433 551.728 372.433 550.728 372.433 550.728C372.433 550.728 335.433 528.728 333.433 517.728C331.433 506.728 320.433 512.728 320.433 512.728V519.728C320.433 519.728 299.433 535.728 288.433 524.728Z" fill="#2F2E41"/>
<path d="M98.4332 65.7286C98.4332 65.7286 105.433 99.7286 90.4332 102.729C75.4332 105.729 109.433 125.729 109.433 125.729L131.433 137.729L147.433 121.729C147.433 121.729 132.933 92.2286 143.933 70.2286C154.933 48.2286 98.4332 65.7286 98.4332 65.7286Z" fill="#9F616A"/>
<path d="M147.433 121.729L131.433 137.729L109.433 125.729C109.433 125.729 75.4332 105.729 90.4332 102.729C100.083 100.799 100.623 86.0386 99.7933 75.7586C99.5224 72.393 99.0683 69.0447 98.4332 65.7286C98.4332 65.7286 154.933 48.2286 143.933 70.2286C142.262 73.6258 141.103 77.2518 140.493 80.9886C137.123 100.759 147.433 121.729 147.433 121.729Z" fill="#9F616A"/>
<path d="M203.433 530.728V553.728H241.433L244.433 544.728L240.433 520.728L203.433 530.728Z" fill="#575A88"/>
<path d="M46.4332 297.729C46.4332 297.729 46.4332 356.729 70.4332 358.729C94.4332 360.729 180.433 371.729 180.433 371.729C180.433 371.729 185.433 469.729 194.433 501.729C203.433 533.729 195.433 535.729 203.433 537.729C211.433 539.729 245.433 532.729 244.433 525.729C243.433 518.729 239.433 341.729 239.433 341.729C239.433 341.729 248.433 303.729 128.433 285.729L46.4332 297.729Z" fill="#2F2E41"/>
<path d="M206.433 546.728C206.433 546.728 200.433 533.728 199.433 537.728C198.433 541.728 186.433 576.728 198.433 579.728C210.433 582.728 248.433 598.728 273.433 597.728C298.433 596.728 301.433 595.728 301.433 595.728C301.433 595.728 308.433 585.728 299.433 579.728C290.433 573.728 253.433 538.728 251.433 534.728C249.433 530.728 234.433 527.728 234.433 534.728C234.433 541.728 213.433 555.728 206.433 546.728Z" fill="#2F2E41"/>
<path opacity="0.1" d="M143.933 70.2286C142.262 73.6258 141.103 77.2518 140.493 80.9886C135.513 83.9986 132.183 83.2286 125.933 83.2286C116.663 83.2286 112.923 71.3786 106.933 65.2286C106.463 59.5186 98.4332 65.7286 98.4332 65.7286C98.4332 65.7286 154.933 48.2286 143.933 70.2286Z" fill="black"/>
<path d="M123.433 82.7285C141.659 82.7285 156.433 67.9539 156.433 49.7285C156.433 31.5031 141.659 16.7285 123.433 16.7285C105.208 16.7285 90.4332 31.5031 90.4332 49.7285C90.4332 67.9539 105.208 82.7285 123.433 82.7285Z" fill="#9F616A"/>
<path d="M180.433 153.729C180.433 153.729 175.433 189.729 172.433 202.729C169.433 215.729 165.433 275.729 163.433 283.729C161.433 291.729 149.433 293.729 125.433 290.729C123.927 290.539 122.411 290.425 120.893 290.389C106.113 289.919 89.2033 295.449 73.5532 299.789C64.5532 302.289 55.9632 304.389 48.4332 304.729C37.0332 305.249 33.6932 292.609 34.0832 278.929C34.4532 266.199 38.0632 252.549 41.4332 247.729C47.5033 239.049 41.5332 161.119 43.7733 135.419V135.409C44.1132 131.489 44.6432 128.789 45.4332 127.729C51.4332 119.729 90.4332 99.7285 94.8032 100.539C99.1632 101.349 136.433 124.729 136.433 124.729C145.433 124.729 145.143 114.969 145.143 114.969C145.143 114.969 151.433 126.729 163.433 129.729C175.433 132.729 180.433 153.729 180.433 153.729Z" fill="#575A88"/>
<path d="M113.586 283.371C113.586 283.371 178.002 285.422 166.718 293.075C155.433 300.728 105.433 307.728 104.433 297.728C103.433 287.728 113.586 283.371 113.586 283.371Z" fill="#9F616A"/>
<path opacity="0.1" d="M120.893 290.389C121.103 294.229 110.773 302.879 107.433 308.729C105.583 311.969 91.2633 307.699 73.5533 299.789C59.963 293.689 46.7791 286.721 34.0833 278.929C34.4533 266.199 38.0633 252.549 41.4333 247.729C47.5033 239.049 41.5333 161.119 43.7733 135.419V135.409C44.3074 135.137 44.8625 134.91 45.4333 134.729H57.4333C98.4333 153.729 51.4333 235.729 51.4333 235.729C51.4333 235.729 113.433 286.729 119.433 288.729C119.827 288.803 120.184 289.007 120.449 289.308C120.713 289.608 120.87 289.989 120.893 290.389V290.389Z" fill="black"/>
<path d="M57.4332 128.729H45.4332C45.4332 128.729 34.4332 131.729 25.4332 151.729C16.4332 171.729 -16.5668 233.729 12.4332 257.729C41.4332 281.729 103.433 309.729 107.433 302.729C111.433 295.729 125.433 284.729 119.433 282.729C113.433 280.729 51.4332 229.729 51.4332 229.729C51.4332 229.729 98.4332 147.729 57.4332 128.729Z" fill="#575A88"/>
<path d="M118.356 34.3724C118.356 34.3724 119.805 14.3249 137.67 22.4991C155.536 30.6734 154.37 8.14245 148.971 4.16098C143.572 0.179506 143.743 -0.805781 123.997 1.85809C104.251 4.52196 65.9156 9.03533 78.3112 48.7386C90.7069 88.4418 101.933 78.2281 101.933 78.2281C101.933 78.2281 92.0802 42.5004 102.064 49.3071L112.047 56.1139L117.315 54.998L118.356 34.3724Z" fill="#2F2E41"/>
<path d="M855.535 323.046C855.535 304.996 721.406 290.364 555.949 290.364C390.492 290.364 256.362 304.996 256.362 323.046C256.362 330.042 276.521 336.523 310.832 341.839V565.439H327.174V344.145C382.128 351.229 464.215 355.728 555.949 355.728C648.44 355.728 731.131 351.155 786.086 343.969V565.439H802.427V341.625C835.905 336.349 855.535 329.948 855.535 323.046Z" fill="#3F3D56"/>
<path d="M593.481 323.729C627.17 323.729 654.481 317.013 654.481 308.729C654.481 300.444 627.17 293.729 593.481 293.729C559.792 293.729 532.481 300.444 532.481 308.729C532.481 317.013 559.792 323.729 593.481 323.729Z" fill="#F2F2F2"/>
<path d="M593.481 321.023C621.095 321.023 643.481 315.519 643.481 308.728C643.481 301.938 621.095 296.433 593.481 296.433C565.867 296.433 543.481 301.938 543.481 308.728C543.481 315.519 565.867 321.023 593.481 321.023Z" fill="#D0CDE1"/>
<path d="M366.481 335.729C400.17 335.729 427.481 329.013 427.481 320.729C427.481 312.444 400.17 305.729 366.481 305.729C332.792 305.729 305.481 312.444 305.481 320.729C305.481 329.013 332.792 335.729 366.481 335.729Z" fill="#F2F2F2"/>
<path d="M366.481 333.023C394.095 333.023 416.481 327.519 416.481 320.728C416.481 313.938 394.095 308.433 366.481 308.433C338.867 308.433 316.481 313.938 316.481 320.728C316.481 327.519 338.867 333.023 366.481 333.023Z" fill="#D0CDE1"/>
<path d="M592.061 307.669C608.122 307.669 621.142 305.613 621.142 303.077C621.142 300.542 608.122 298.486 592.061 298.486C576.001 298.486 562.981 300.542 562.981 303.077C562.981 305.613 576.001 307.669 592.061 307.669Z" fill="#9F616A"/>
<path d="M576.565 301.356C581.636 301.356 585.748 299.129 585.748 296.382C585.748 293.634 581.636 291.407 576.565 291.407C571.493 291.407 567.381 293.634 567.381 296.382C567.381 299.129 571.493 301.356 576.565 301.356Z" fill="#469834"/>
<path d="M573.121 301.356C578.193 301.356 582.304 299.129 582.304 296.382C582.304 293.634 578.193 291.407 573.121 291.407C568.049 291.407 563.938 293.634 563.938 296.382C563.938 299.129 568.049 301.356 573.121 301.356Z" fill="#469834"/>
<path d="M613.298 302.504C618.37 302.504 622.481 300.277 622.481 297.529C622.481 294.782 618.37 292.555 613.298 292.555C608.226 292.555 604.115 294.782 604.115 297.529C604.115 300.277 608.226 302.504 613.298 302.504Z" fill="#469834"/>
<path d="M592.253 301.356C597.325 301.356 601.436 299.129 601.436 296.382C601.436 293.634 597.325 291.407 592.253 291.407C587.181 291.407 583.07 293.634 583.07 296.382C583.07 299.129 587.181 301.356 592.253 301.356Z" fill="#469834"/>
<path d="M607.941 301.356C613.013 301.356 617.124 299.129 617.124 296.382C617.124 293.634 613.013 291.407 607.941 291.407C602.869 291.407 598.758 293.634 598.758 296.382C598.758 299.129 602.869 301.356 607.941 301.356Z" fill="#469834"/>
<path d="M619.803 293.32C603.206 298.952 584.584 298.952 563.938 293.32V292.545C563.934 286.69 566.182 281.057 570.215 276.812C574.248 272.568 579.759 270.036 585.607 269.741C590.529 269.493 595.46 269.499 600.381 269.76C605.643 270.066 610.587 272.375 614.199 276.213C617.81 280.051 619.816 285.126 619.803 290.396V293.32Z" fill="#3F3D56"/>
<path d="M611.654 314.406C599.389 315.645 587.03 315.645 574.764 314.406C571.855 314.121 569.155 312.764 567.19 310.6C565.225 308.436 564.134 305.618 564.129 302.695H622.29C622.285 305.618 621.194 308.436 619.229 310.6C617.264 312.764 614.564 314.121 611.654 314.406V314.406Z" fill="#3F3D56"/>
<path d="M584.217 276.867C582.884 277.423 581.453 277.709 580.008 277.709C578.564 277.709 577.133 277.423 575.799 276.867C577.133 276.311 578.564 276.025 580.008 276.025C581.453 276.025 582.884 276.311 584.217 276.867V276.867Z" fill="#D0CDE1"/>
<path d="M592.635 280.311C591.302 280.866 589.871 281.152 588.426 281.152C586.982 281.152 585.551 280.866 584.217 280.311C585.551 279.755 586.982 279.469 588.426 279.469C589.871 279.469 591.302 279.755 592.635 280.311V280.311Z" fill="#D0CDE1"/>
<path d="M593.401 274.188C592.067 274.744 590.636 275.03 589.192 275.03C587.747 275.03 586.316 274.744 584.983 274.188C586.316 273.633 587.747 273.347 589.192 273.347C590.636 273.347 592.067 273.633 593.401 274.188V274.188Z" fill="#D0CDE1"/>
<path d="M609.089 274.188C607.755 274.744 606.325 275.03 604.88 275.03C603.435 275.03 602.004 274.744 600.671 274.188C602.004 273.633 603.435 273.347 604.88 273.347C606.325 273.347 607.755 273.633 609.089 274.188V274.188Z" fill="#D0CDE1"/>
<path d="M604.88 277.632C603.546 278.188 602.116 278.474 600.671 278.474C599.226 278.474 597.795 278.188 596.462 277.632C597.795 277.077 599.226 276.791 600.671 276.791C602.116 276.791 603.546 277.077 604.88 277.632V277.632Z" fill="#D0CDE1"/>
<path d="M366.061 319.669C382.122 319.669 395.142 317.613 395.142 315.077C395.142 312.542 382.122 310.486 366.061 310.486C350.001 310.486 336.981 312.542 336.981 315.077C336.981 317.613 350.001 319.669 366.061 319.669Z" fill="#9F616A"/>
<path d="M350.565 313.356C355.636 313.356 359.748 311.129 359.748 308.382C359.748 305.634 355.636 303.407 350.565 303.407C345.493 303.407 341.381 305.634 341.381 308.382C341.381 311.129 345.493 313.356 350.565 313.356Z" fill="#469834"/>
<path d="M347.121 313.356C352.193 313.356 356.304 311.129 356.304 308.382C356.304 305.634 352.193 303.407 347.121 303.407C342.049 303.407 337.938 305.634 337.938 308.382C337.938 311.129 342.049 313.356 347.121 313.356Z" fill="#469834"/>
<path d="M387.298 314.504C392.37 314.504 396.481 312.277 396.481 309.529C396.481 306.782 392.37 304.555 387.298 304.555C382.226 304.555 378.115 306.782 378.115 309.529C378.115 312.277 382.226 314.504 387.298 314.504Z" fill="#469834"/>
<path d="M366.253 313.356C371.325 313.356 375.436 311.129 375.436 308.382C375.436 305.634 371.325 303.407 366.253 303.407C361.181 303.407 357.07 305.634 357.07 308.382C357.07 311.129 361.181 313.356 366.253 313.356Z" fill="#469834"/>
<path d="M381.941 313.356C387.013 313.356 391.124 311.129 391.124 308.382C391.124 305.634 387.013 303.407 381.941 303.407C376.869 303.407 372.758 305.634 372.758 308.382C372.758 311.129 376.869 313.356 381.941 313.356Z" fill="#469834"/>
<path d="M393.803 305.32C377.206 310.952 358.584 310.952 337.938 305.32V304.545C337.934 298.69 340.182 293.057 344.215 288.812C348.248 284.568 353.759 282.036 359.607 281.741C364.529 281.493 369.46 281.499 374.381 281.76C379.643 282.066 384.587 284.375 388.199 288.213C391.81 292.051 393.816 297.126 393.803 302.396V305.32Z" fill="#3F3D56"/>
<path d="M385.654 326.406C373.389 327.645 361.03 327.645 348.764 326.406C345.855 326.121 343.155 324.764 341.19 322.6C339.225 320.436 338.134 317.618 338.129 314.695H396.29C396.285 317.618 395.194 320.436 393.229 322.6C391.264 324.764 388.564 326.121 385.654 326.406V326.406Z" fill="#3F3D56"/>
<path d="M358.217 288.867C356.884 289.423 355.453 289.709 354.008 289.709C352.564 289.709 351.133 289.423 349.799 288.867C351.133 288.311 352.564 288.025 354.008 288.025C355.453 288.025 356.884 288.311 358.217 288.867Z" fill="#D0CDE1"/>
<path d="M366.635 292.311C365.302 292.866 363.871 293.152 362.426 293.152C360.982 293.152 359.551 292.866 358.217 292.311C359.551 291.755 360.982 291.469 362.426 291.469C363.871 291.469 365.302 291.755 366.635 292.311Z" fill="#D0CDE1"/>
<path d="M367.401 286.188C366.067 286.744 364.636 287.03 363.192 287.03C361.747 287.03 360.316 286.744 358.983 286.188C360.316 285.633 361.747 285.347 363.192 285.347C364.636 285.347 366.067 285.633 367.401 286.188V286.188Z" fill="#D0CDE1"/>
<path d="M383.089 286.188C381.755 286.744 380.325 287.03 378.88 287.03C377.435 287.03 376.004 286.744 374.671 286.188C376.004 285.633 377.435 285.347 378.88 285.347C380.325 285.347 381.755 285.633 383.089 286.188Z" fill="#D0CDE1"/>
<path d="M378.88 289.632C377.546 290.188 376.116 290.474 374.671 290.474C373.226 290.474 371.795 290.188 370.462 289.632C371.795 289.077 373.226 288.791 374.671 288.791C376.116 288.791 377.546 289.077 378.88 289.632V289.632Z" fill="#D0CDE1"/>
<path d="M645.958 304.664L646.099 307.762L646.278 311.779C646.278 311.779 627.826 312.822 624.109 316.75C624.023 316.834 623.944 316.925 623.872 317.022L616.481 315.404L616.463 311.763C616.463 311.763 616.565 311.707 616.763 311.6C616.808 311.576 616.865 311.546 616.922 311.516C625.966 307.088 635.888 304.746 645.958 304.664Z" fill="#469834"/>
<path opacity="0.1" d="M645.958 304.664L646.099 307.762C637.916 308.015 622.432 312.892 622.432 312.892L616.763 311.6C625.846 307.113 635.828 304.742 645.958 304.664V304.664Z" fill="black"/>
<path opacity="0.1" d="M616.922 311.516L622.431 312.892L624.109 316.75C624.023 316.834 623.944 316.925 623.872 317.022L616.481 315.404L616.463 311.763C616.463 311.763 616.565 311.707 616.763 311.6C616.808 311.576 616.865 311.546 616.922 311.516Z" fill="white"/>
<path d="M422.958 317.664L423.099 320.762L423.278 324.779C423.278 324.779 404.826 325.822 401.109 329.75C401.023 329.834 400.944 329.925 400.872 330.022L393.481 328.404L393.463 324.763C393.463 324.763 393.565 324.707 393.763 324.6C393.808 324.576 393.865 324.546 393.922 324.516C402.966 320.088 412.888 317.746 422.958 317.664Z" fill="#469834"/>
<path opacity="0.1" d="M422.958 317.664L423.099 320.762C414.916 321.015 399.432 325.892 399.432 325.892L393.763 324.6C402.846 320.113 412.828 317.742 422.958 317.664Z" fill="black"/>
<path opacity="0.1" d="M393.922 324.516L399.431 325.892L401.109 329.75C401.023 329.834 400.944 329.925 400.872 330.022L393.481 328.404L393.463 324.763C393.463 324.763 393.565 324.707 393.763 324.6C393.808 324.576 393.865 324.546 393.922 324.516Z" fill="white"/>
<path d="M757.086 211.884C755.512 210.311 753.667 209.036 751.639 208.12V169.264C751.639 168.808 751.458 168.371 751.136 168.049C750.814 167.727 750.377 167.546 749.921 167.546H740.302C739.846 167.546 739.409 167.727 739.087 168.049C738.765 168.371 738.584 168.808 738.584 169.264V207.375C735.107 208.528 732.081 210.747 729.936 213.717C727.792 216.687 726.637 220.257 726.635 223.921V307.273C726.635 308.276 726.833 309.269 727.217 310.196C727.601 311.122 728.163 311.964 728.873 312.674C729.582 313.383 730.424 313.945 731.351 314.329C732.277 314.713 733.271 314.911 734.274 314.911H754.878C756.895 314.911 758.828 314.11 760.254 312.684C761.68 311.258 762.481 309.324 762.481 307.308V224.903C762.484 222.485 762.009 220.089 761.083 217.855C760.157 215.621 758.799 213.591 757.086 211.884Z" fill="#3F3D56"/>
<path d="M762.481 236.139H726.636V283.491H762.481V236.139Z" fill="#469834"/>
<path d="M752.413 170.201H751.639V169.264C751.639 168.808 751.458 168.371 751.136 168.049C750.814 167.727 750.377 167.546 749.921 167.546H740.302C739.846 167.546 739.409 167.727 739.087 168.049C738.765 168.371 738.584 168.808 738.584 169.264V170.201H737.81V174.184H738.584V194.541H751.639V174.184H752.413V170.201Z" fill="#469834"/>
<path d="M470.075 245.61C469.126 243.585 468.378 242.153 468.116 241.66C452.025 245.631 441.29 242.275 439.597 241.682C438.769 243.245 433.601 253.239 431.512 262.82C429.625 271.463 430.72 277.256 434.768 280.041L434.888 280.126L434.914 280.144C439.381 283.087 443.643 285.695 447.58 287.892C448.11 288.187 448.61 288.462 449.08 288.715L449.13 288.742L449.166 288.787C449.706 289.468 450.209 290.178 450.672 290.913C451.542 292.13 452.07 293.557 452.201 295.046V337.97L451.93 337.976C441.667 338.185 435.314 339.925 435.314 341.417C435.314 343.054 442.931 344.878 453.862 344.878C464.793 344.878 472.41 343.054 472.41 341.417C472.41 339.947 466.165 338.217 456.076 337.984L455.804 337.978L456.057 298.273C456.064 295.584 456.688 292.934 457.884 290.526C458.088 290.121 458.307 289.727 458.535 289.356C458.718 289.058 458.912 288.767 459.111 288.492L459.148 288.441L459.203 288.411C459.708 288.135 460.245 287.836 460.812 287.514L460.879 287.478C464.605 285.374 468.619 282.906 472.812 280.143C476.555 277.675 477.858 272.687 476.685 265.319C475.568 258.293 472.474 250.723 470.075 245.61Z" fill="#D0CDE1"/>
<path d="M471.037 279.243C466.641 282.14 463.012 284.313 460.237 285.879H460.234C456.185 285.603 452.119 285.717 448.093 286.22C445.248 284.632 441.409 282.355 436.688 279.243C436.643 279.213 436.598 279.183 436.553 279.151V279.149C432.222 276.169 432.115 269.859 433.524 263.408C437.108 263.01 442.823 263.184 450.502 265.927C459.594 269.175 469.113 267.338 474.628 265.668C475.534 271.36 474.982 276.642 471.037 279.243Z" fill="#469834"/>
<path d="M444.902 261.073C445.589 261.073 446.146 260.516 446.146 259.829C446.146 259.141 445.589 258.584 444.902 258.584C444.214 258.584 443.657 259.141 443.657 259.829C443.657 260.516 444.214 261.073 444.902 261.073Z" fill="#469834"/>
<path d="M441.417 272.523C442.104 272.523 442.661 271.966 442.661 271.278C442.661 270.591 442.104 270.034 441.417 270.034C440.73 270.034 440.172 270.591 440.172 271.278C440.172 271.966 440.73 272.523 441.417 272.523Z" fill="white"/>
<path d="M447.888 263.562C448.301 263.562 448.635 263.228 448.635 262.816C448.635 262.403 448.301 262.069 447.888 262.069C447.476 262.069 447.142 262.403 447.142 262.816C447.142 263.228 447.476 263.562 447.888 263.562Z" fill="#469834"/>
<path d="M450.875 277.75C451.288 277.75 451.622 277.415 451.622 277.003C451.622 276.591 451.288 276.256 450.875 276.256C450.463 276.256 450.129 276.591 450.129 277.003C450.129 277.415 450.463 277.75 450.875 277.75Z" fill="white"/>
<path d="M445.648 278.496C446.061 278.496 446.395 278.162 446.395 277.75C446.395 277.337 446.061 277.003 445.648 277.003C445.236 277.003 444.901 277.337 444.901 277.75C444.901 278.162 445.236 278.496 445.648 278.496Z" fill="white"/>
<path d="M460.831 253.606C461.244 253.606 461.578 253.271 461.578 252.859C461.578 252.447 461.244 252.112 460.831 252.112C460.419 252.112 460.085 252.447 460.085 252.859C460.085 253.271 460.419 253.606 460.831 253.606Z" fill="#469834"/>
<path d="M528.454 205.144C527.505 203.12 526.756 201.688 526.494 201.195C510.404 205.165 499.669 201.81 497.976 201.217C497.148 202.78 491.979 212.774 489.891 222.355C488.003 230.997 489.099 236.791 493.146 239.575L493.266 239.661L493.292 239.678C497.76 242.622 502.022 245.229 505.958 247.427C506.489 247.722 506.989 247.996 507.459 248.25L507.509 248.277L507.544 248.322C508.085 249.003 508.588 249.713 509.051 250.448C509.921 251.664 510.449 253.092 510.58 254.581V297.505L510.308 297.511C500.045 297.72 493.692 299.46 493.692 300.952C493.692 302.589 501.31 304.412 512.241 304.412C523.171 304.412 530.789 302.589 530.789 300.952C530.789 299.482 524.544 297.752 514.455 297.519L514.182 297.512L514.436 257.807C514.442 255.119 515.067 252.468 516.262 250.06C516.466 249.656 516.685 249.262 516.913 248.891C517.096 248.593 517.29 248.301 517.49 248.026L517.526 247.976L517.581 247.946C518.086 247.67 518.623 247.371 519.191 247.049L519.258 247.012C522.983 244.908 526.997 242.441 531.19 239.678C534.933 237.21 536.237 232.222 535.064 224.853C533.946 217.827 530.852 210.258 528.454 205.144Z" fill="#D0CDE1"/>
<path d="M529.415 238.777C525.019 241.675 521.39 243.848 518.615 245.413H518.613C514.564 245.137 510.498 245.251 506.471 245.754C503.626 244.166 499.788 241.889 495.066 238.777C495.021 238.747 494.977 238.718 494.932 238.685V238.683C490.601 235.703 490.494 229.394 491.903 222.942C495.487 222.544 501.202 222.718 508.88 225.461C517.973 228.709 527.491 226.872 533.007 225.202C533.913 230.895 533.36 236.176 529.415 238.777Z" fill="#469834"/>
<path d="M503.28 220.607C503.967 220.607 504.524 220.05 504.524 219.363C504.524 218.675 503.967 218.118 503.28 218.118C502.593 218.118 502.035 218.675 502.035 219.363C502.035 220.05 502.593 220.607 503.28 220.607Z" fill="#469834"/>
<path d="M499.795 232.057C500.483 232.057 501.04 231.5 501.04 230.812C501.04 230.125 500.483 229.568 499.795 229.568C499.108 229.568 498.551 230.125 498.551 230.812C498.551 231.5 499.108 232.057 499.795 232.057Z" fill="white"/>
<path d="M506.267 223.096C506.679 223.096 507.013 222.762 507.013 222.35C507.013 221.937 506.679 221.603 506.267 221.603C505.854 221.603 505.52 221.937 505.52 222.35C505.52 222.762 505.854 223.096 506.267 223.096Z" fill="#469834"/>
<path d="M509.254 237.284C509.666 237.284 510 236.95 510 236.537C510 236.125 509.666 235.791 509.254 235.791C508.841 235.791 508.507 236.125 508.507 236.537C508.507 236.95 508.841 237.284 509.254 237.284Z" fill="white"/>
<path d="M504.027 238.031C504.439 238.031 504.773 237.697 504.773 237.284C504.773 236.872 504.439 236.538 504.027 236.538C503.614 236.538 503.28 236.872 503.28 237.284C503.28 237.697 503.614 238.031 504.027 238.031Z" fill="white"/>
<path d="M519.21 213.14C519.622 213.14 519.957 212.806 519.957 212.394C519.957 211.981 519.622 211.647 519.21 211.647C518.797 211.647 518.463 211.981 518.463 212.394C518.463 212.806 518.797 213.14 519.21 213.14Z" fill="#469834"/>
</svg>
