<svg width="300" height="251" viewBox="0 0 300 251" fill="none" xmlns="http://www.w3.org/2000/svg">
<g clip-path="url(#clip0_114_126)">
<path d="M123.614 58.9122H122.251V21.597C122.251 18.7609 121.693 15.9525 120.607 13.3322C119.522 10.7119 117.931 8.33108 115.926 6.32561C113.92 4.32014 111.539 2.72931 108.919 1.64396C106.299 0.55861 103.491 -8.87302e-06 100.654 1.05708e-10H21.5971C18.7609 -8.87302e-06 15.9525 0.558609 13.3322 1.64396C10.712 2.72931 8.33111 4.32014 6.32563 6.32561C4.32016 8.33108 2.72932 10.7119 1.64397 13.3322C0.558615 15.9525 -4.43655e-06 18.7609 0 21.5971V226.311C-2.66192e-06 229.147 0.55862 231.956 1.64397 234.576C2.72933 237.196 4.32016 239.577 6.32564 241.583C8.33112 243.588 10.712 245.179 13.3322 246.264C15.9525 247.35 18.7609 247.908 21.5971 247.908H100.654C103.491 247.908 106.299 247.35 108.919 246.264C111.539 245.179 113.92 243.588 115.926 241.583C117.931 239.577 119.522 237.196 120.607 234.576C121.693 231.956 122.251 229.147 122.251 226.311V85.4738H123.614V58.9122Z" fill="#E6E6E6"/>
<path d="M101.526 5.6189H91.2062C91.6808 6.78239 91.8619 8.04474 91.7337 9.29474C91.6055 10.5447 91.1718 11.744 90.4709 12.7869C89.77 13.8299 88.8234 14.6844 87.7145 15.2753C86.6055 15.8662 85.3683 16.1753 84.1117 16.1754H38.8208C37.5642 16.1753 36.327 15.8662 35.218 15.2753C34.1091 14.6844 33.1625 13.8299 32.4616 12.787C31.7607 11.744 31.327 10.5447 31.1988 9.29474C31.0706 8.04474 31.2517 6.78239 31.7263 5.6189H22.0878C19.9698 5.61889 17.8725 6.03606 15.9157 6.84659C13.9589 7.65712 12.1809 8.84513 10.6833 10.3428C9.18561 11.8404 7.9976 13.6184 7.18706 15.5752C6.37653 17.532 5.95935 19.6293 5.95935 21.7473V226.161C5.95935 228.279 6.37653 230.376 7.18706 232.333C7.99759 234.29 9.1856 236.068 10.6833 237.566C12.1809 239.063 13.9589 240.251 15.9157 241.062C17.8725 241.872 19.9698 242.289 22.0878 242.289H101.526C103.644 242.289 105.741 241.872 107.698 241.062C109.655 240.251 111.433 239.063 112.93 237.566C114.428 236.068 115.616 234.29 116.427 232.333C117.237 230.376 117.654 228.279 117.654 226.161V21.7473C117.654 19.6293 117.237 17.532 116.427 15.5752C115.616 13.6184 114.428 11.8404 112.93 10.3428C111.433 8.84513 109.655 7.65712 107.698 6.84659C105.741 6.03606 103.644 5.61889 101.526 5.6189Z" fill="white"/>
<path d="M38.4028 47.1738H33.6598C33.4931 47.1738 33.3331 47.2401 33.2152 47.358C33.0973 47.4759 33.031 47.6359 33.031 47.8027V49.8845C33.031 50.0513 33.0973 50.2112 33.2152 50.3291C33.3331 50.4471 33.4931 50.5133 33.6598 50.5133H34.4458V53.6326H37.6168V50.5133H38.4028C38.5696 50.5133 38.7295 50.4471 38.8475 50.3291C38.9654 50.2112 39.0317 50.0513 39.0317 49.8845V47.8027C39.0317 47.6359 38.9654 47.4759 38.8475 47.358C38.7295 47.2401 38.5696 47.1738 38.4028 47.1738Z" fill="#E6E6E6"/>
<path d="M43.1535 66.227C40.2487 61.9765 38.7637 56.9158 38.9113 51.7697C38.9139 51.651 38.8754 51.535 38.8022 51.4414C38.729 51.3479 38.6257 51.2825 38.5099 51.2565V50.3569H33.5006V51.244H33.4316C33.2953 51.2442 33.1646 51.2985 33.0684 51.395C32.9721 51.4915 32.9181 51.6223 32.9183 51.7586C32.9183 51.7711 32.9188 51.7836 32.9197 51.7961C33.3143 57.2972 31.9817 62.2305 28.9219 66.5959C28.7458 66.8468 28.6559 67.148 28.6656 67.4544L29.2133 84.3974C29.2265 84.7753 29.3851 85.1335 29.656 85.3973C29.927 85.661 30.2893 85.81 30.6675 85.813H41.9976C42.38 85.8099 42.7462 85.6576 43.018 85.3885C43.2897 85.1194 43.4457 84.7548 43.4527 84.3724L43.6637 67.9221C43.67 67.3183 43.492 66.727 43.1535 66.227Z" fill="#E6E6E6"/>
<path d="M41.3599 71.8547H31.4979C31.3519 71.8547 31.2076 71.8863 31.075 71.9473C30.9423 72.0082 30.8245 72.0972 30.7294 72.208C30.6343 72.3188 30.5644 72.4488 30.5243 72.5892C30.4842 72.7296 30.4749 72.8769 30.4971 73.0212L31.9874 82.7081H40.5449L42.355 73.0539C42.3825 72.9076 42.3773 72.7572 42.34 72.6131C42.3026 72.4691 42.234 72.3351 42.139 72.2206C42.044 72.1061 41.9249 72.014 41.7903 71.9508C41.6556 71.8875 41.5086 71.8547 41.3599 71.8547Z" fill="white"/>
<path d="M91.2016 97.9287H86.4586C86.2918 97.9287 86.1319 97.995 86.014 98.1129C85.896 98.2308 85.8298 98.3908 85.8298 98.5575V100.639C85.8298 100.806 85.896 100.966 86.014 101.084C86.1319 101.202 86.2918 101.268 86.4586 101.268H87.2446V104.388H90.4156V101.268H91.2016C91.3684 101.268 91.5283 101.202 91.6463 101.084C91.7642 100.966 91.8304 100.806 91.8304 100.639V98.5575C91.8304 98.3908 91.7642 98.2308 91.6462 98.1129C91.5283 97.995 91.3684 97.9287 91.2016 97.9287Z" fill="#E6E6E6"/>
<path d="M95.9522 116.982C93.0475 112.731 91.5625 107.671 91.7101 102.525C91.7127 102.406 91.6742 102.29 91.601 102.196C91.5278 102.103 91.4245 102.037 91.3086 102.011V101.112H86.2994V101.999H86.2304C86.1629 101.999 86.0961 102.012 86.0337 102.038C85.9714 102.064 85.9148 102.102 85.8671 102.15C85.8195 102.198 85.7817 102.254 85.7559 102.317C85.7302 102.379 85.717 102.446 85.717 102.514C85.7171 102.526 85.7175 102.538 85.7185 102.551C86.1131 108.052 84.7805 112.985 81.7207 117.351C81.5446 117.602 81.4547 117.903 81.4643 118.209L82.0121 135.152C82.0252 135.53 82.1838 135.888 82.4548 136.152C82.7257 136.416 83.0881 136.565 83.4662 136.568H94.7964C95.1788 136.565 95.5449 136.412 95.8167 136.143C96.0885 135.874 96.2445 135.51 96.2514 135.127L96.4625 118.677C96.4687 118.073 96.2907 117.482 95.9522 116.982Z" fill="#E6E6E6"/>
<path d="M94.1586 122.61H84.2966C84.1507 122.61 84.0064 122.641 83.8737 122.702C83.7411 122.763 83.6232 122.852 83.5282 122.963C83.4331 123.074 83.3631 123.204 83.3231 123.344C83.283 123.485 83.2737 123.632 83.2959 123.776L84.7862 133.463H93.3437L95.1538 123.809C95.1812 123.663 95.1761 123.512 95.1388 123.368C95.1014 123.224 95.0328 123.09 94.9378 122.976C94.8428 122.861 94.7237 122.769 94.589 122.706C94.4544 122.643 94.3074 122.61 94.1587 122.61H94.1586Z" fill="white"/>
<path d="M31.7348 169.681H29.485C29.4059 169.681 29.33 169.713 29.2741 169.769C29.2181 169.825 29.1867 169.901 29.1867 169.98V170.967C29.1867 171.046 29.2181 171.122 29.2741 171.178C29.33 171.234 29.4059 171.265 29.485 171.265H29.8578V172.745H31.362V171.265H31.7348C31.8139 171.265 31.8898 171.234 31.9457 171.178C32.0017 171.122 32.0331 171.046 32.0331 170.967V169.98C32.0331 169.901 32.0017 169.825 31.9457 169.769C31.8898 169.713 31.8139 169.681 31.7348 169.681Z" fill="#E6E6E6"/>
<path d="M33.9883 178.719C32.6104 176.703 31.906 174.302 31.976 171.861C31.9773 171.805 31.959 171.75 31.9243 171.706C31.8896 171.661 31.8406 171.63 31.7856 171.618V171.191H29.4095V171.612H29.3767C29.3447 171.612 29.313 171.618 29.2835 171.631C29.2539 171.643 29.227 171.661 29.2044 171.684C29.1818 171.706 29.1639 171.733 29.1517 171.763C29.1395 171.792 29.1332 171.824 29.1332 171.856C29.1332 171.862 29.1335 171.868 29.1339 171.874C29.3532 174.365 28.6812 176.852 27.2376 178.894C27.1541 179.013 27.1114 179.156 27.116 179.301L27.3758 187.338C27.382 187.517 27.4573 187.687 27.5858 187.812C27.7143 187.938 27.8862 188.008 28.0656 188.01H33.44C33.6214 188.008 33.7951 187.936 33.924 187.808C34.0529 187.681 34.1269 187.508 34.1302 187.326L34.2303 179.523C34.2333 179.237 34.1488 178.956 33.9883 178.719Z" fill="#E6E6E6"/>
<path d="M33.2147 181.673H28.0867V184.237H33.2147V181.673Z" fill="white"/>
<path d="M42.2078 169.681H39.958C39.8788 169.681 39.803 169.713 39.747 169.769C39.6911 169.825 39.6597 169.901 39.6597 169.98V170.967C39.6597 171.046 39.6911 171.122 39.747 171.178C39.803 171.234 39.8788 171.265 39.958 171.265H40.3308V172.745H41.8349V171.265H42.2078C42.2869 171.265 42.3628 171.234 42.4187 171.178C42.4746 171.122 42.5061 171.046 42.5061 170.967V169.98C42.5061 169.901 42.4746 169.825 42.4187 169.769C42.3628 169.713 42.2869 169.681 42.2078 169.681Z" fill="#E6E6E6"/>
<path d="M44.4612 178.719C43.0834 176.703 42.379 174.302 42.449 171.861C42.4502 171.805 42.4319 171.75 42.3972 171.706C42.3625 171.661 42.3135 171.63 42.2586 171.618V171.191H39.8824V171.612H39.8497C39.8177 171.612 39.786 171.618 39.7564 171.631C39.7269 171.643 39.7 171.661 39.6774 171.684C39.6548 171.706 39.6369 171.733 39.6246 171.763C39.6124 171.792 39.6062 171.824 39.6062 171.856C39.6062 171.862 39.6064 171.868 39.6069 171.874C39.8262 174.365 39.1542 176.852 37.7106 178.894C37.627 179.013 37.5844 179.156 37.589 179.301L37.8488 187.338C37.855 187.517 37.9302 187.687 38.0588 187.812C38.1873 187.938 38.3592 188.008 38.5385 188.01H43.9129C44.0944 188.008 44.268 187.936 44.3969 187.808C44.5259 187.681 44.5999 187.508 44.6031 187.326L44.7033 179.523C44.7062 179.237 44.6218 178.956 44.4612 178.719Z" fill="#E6E6E6"/>
<path d="M43.6877 181.673H38.5597V184.237H43.6877V181.673Z" fill="white"/>
<path d="M52.6807 169.681H50.4309C50.3518 169.681 50.2759 169.713 50.22 169.769C50.1641 169.825 50.1326 169.901 50.1326 169.98V170.967C50.1326 171.046 50.1641 171.122 50.22 171.178C50.2759 171.234 50.3518 171.265 50.4309 171.265H50.8037V172.745H52.3079V171.265H52.6807C52.7598 171.265 52.8357 171.234 52.8917 171.178C52.9476 171.122 52.979 171.046 52.979 170.967V169.98C52.979 169.901 52.9476 169.825 52.8917 169.769C52.8357 169.713 52.7598 169.681 52.6807 169.681Z" fill="#E6E6E6"/>
<path d="M54.9342 178.719C53.5563 176.703 52.8519 174.302 52.9219 171.861C52.9232 171.805 52.9049 171.75 52.8702 171.706C52.8355 171.661 52.7865 171.63 52.7315 171.618V171.191H50.3554V171.612H50.3227C50.2906 171.612 50.259 171.618 50.2294 171.631C50.1998 171.643 50.173 171.661 50.1504 171.684C50.1278 171.706 50.1098 171.733 50.0976 171.763C50.0854 171.792 50.0791 171.824 50.0792 171.856C50.0792 171.862 50.0794 171.868 50.0799 171.874C50.2992 174.365 49.6271 176.852 48.1835 178.894C48.1 179.013 48.0573 179.156 48.0619 179.301L48.3217 187.338C48.328 187.517 48.4032 187.687 48.5317 187.812C48.6603 187.938 48.8321 188.008 49.0115 188.01H54.3859C54.5673 188.008 54.741 187.936 54.8699 187.808C54.9988 187.681 55.0728 187.508 55.0761 187.326L55.1762 179.523C55.1792 179.237 55.0948 178.956 54.9342 178.719Z" fill="#E6E6E6"/>
<path d="M54.1607 181.673H49.0327V184.237H54.1607V181.673Z" fill="white"/>
<path d="M82.9619 150.046H78.2189C78.1363 150.046 78.0546 150.063 77.9783 150.094C77.902 150.126 77.8327 150.172 77.7743 150.231C77.7159 150.289 77.6696 150.358 77.638 150.435C77.6064 150.511 77.5901 150.593 77.5901 150.675V152.757C77.5901 152.924 77.6563 153.084 77.7743 153.202C77.8922 153.32 78.0521 153.386 78.2189 153.386H79.0049V156.505H82.1759V153.386H82.9619C83.1287 153.386 83.2886 153.32 83.4066 153.202C83.5245 153.084 83.5907 152.924 83.5907 152.757V150.675C83.5907 150.593 83.5745 150.511 83.5429 150.435C83.5113 150.358 83.465 150.289 83.4066 150.231C83.3482 150.172 83.2788 150.126 83.2026 150.094C83.1263 150.063 83.0445 150.046 82.9619 150.046Z" fill="#E6E6E6"/>
<path d="M87.7125 169.099C84.8078 164.849 83.3228 159.788 83.4704 154.642C83.473 154.523 83.4345 154.407 83.3613 154.314C83.2881 154.22 83.1848 154.155 83.0689 154.129V153.229H78.0597V154.116H77.9907C77.9232 154.116 77.8564 154.13 77.794 154.156C77.7317 154.182 77.6751 154.22 77.6274 154.267C77.5798 154.315 77.542 154.372 77.5162 154.434C77.4905 154.497 77.4773 154.563 77.4774 154.631C77.4774 154.643 77.4778 154.656 77.4788 154.668C77.8734 160.169 76.5408 165.103 73.481 169.468C73.3049 169.719 73.215 170.02 73.2246 170.327L73.7724 187.27C73.7855 187.648 73.9441 188.006 74.2151 188.27C74.4861 188.533 74.8484 188.682 75.2265 188.685H86.5567C86.9391 188.682 87.3052 188.53 87.577 188.261C87.8488 187.992 88.0048 187.627 88.0117 187.245L88.2228 170.794C88.2291 170.191 88.051 169.599 87.7125 169.099Z" fill="#E6E6E6"/>
<path d="M85.919 174.727H76.0569C75.911 174.727 75.7667 174.759 75.6341 174.82C75.5014 174.881 75.3835 174.97 75.2885 175.081C75.1934 175.191 75.1235 175.321 75.0834 175.462C75.0433 175.602 75.034 175.749 75.0562 175.894L76.5465 185.581H85.104L86.9141 175.926C86.9415 175.78 86.9364 175.63 86.8991 175.486C86.8617 175.342 86.7931 175.208 86.6981 175.093C86.6031 174.979 86.484 174.887 86.3493 174.823C86.2147 174.76 86.0677 174.727 85.919 174.727Z" fill="white"/>
<path d="M85.5513 87.994H57.2784C59.2551 77.3071 58.8003 64.4022 57.2784 50.5239H85.5513C84.0698 64.4022 83.6271 77.3071 85.5513 87.994Z" fill="#E6E6E6"/>
<path d="M71.5851 75.0498C75.3477 75.0498 78.3979 71.9996 78.3979 68.2371C78.3979 64.4745 75.3477 61.4243 71.5851 61.4243C67.8226 61.4243 64.7724 64.4745 64.7724 68.2371C64.7724 71.9996 67.8226 75.0498 71.5851 75.0498Z" fill="white"/>
<path d="M59.6628 137.727H31.39C33.3666 127.04 32.9119 114.135 31.39 100.257H59.6628C58.1814 114.135 57.7387 127.04 59.6628 137.727Z" fill="#E6E6E6"/>
<path d="M45.6967 124.783C49.4593 124.783 52.5094 121.733 52.5094 117.97C52.5094 114.208 49.4593 111.157 45.6967 111.157C41.9341 111.157 38.884 114.208 38.884 117.97C38.884 121.733 41.9341 124.783 45.6967 124.783Z" fill="white"/>
<path d="M101.561 90.3785H73.2883C75.265 79.6916 74.8102 66.7867 73.2883 52.9084H101.561C100.08 66.7868 99.6371 79.6916 101.561 90.3785Z" fill="#E6E6E6"/>
<path d="M87.5951 77.4343C91.3577 77.4343 94.4078 74.3842 94.4078 70.6216C94.4078 66.859 91.3577 63.8088 87.5951 63.8088C83.8325 63.8088 80.7823 66.859 80.7823 70.6216C80.7823 74.3842 83.8325 77.4343 87.5951 77.4343Z" fill="white"/>
<path d="M101.561 88.6754H73.2883C75.265 77.9884 74.8102 65.0836 73.2883 51.2053H101.561C100.08 65.0836 99.6371 77.9885 101.561 88.6754Z" fill="#E6E6E6"/>
<path d="M87.5951 75.7312C91.3577 75.7312 94.4078 72.681 94.4078 68.9184C94.4078 65.1559 91.3577 62.1057 87.5951 62.1057C83.8325 62.1057 80.7823 65.1559 80.7823 68.9184C80.7823 72.681 83.8325 75.7312 87.5951 75.7312Z" fill="white"/>
<path d="M101.561 90.3785H73.2883C75.265 79.6916 74.8102 66.7867 73.2883 52.9084H101.561C100.08 66.7868 99.6371 79.6916 101.561 90.3785Z" fill="#E6E6E6"/>
<path d="M87.5951 77.4343C91.3577 77.4343 94.4078 74.3842 94.4078 70.6216C94.4078 66.859 91.3577 63.8088 87.5951 63.8088C83.8325 63.8088 80.7823 66.859 80.7823 70.6216C80.7823 74.3842 83.8325 77.4343 87.5951 77.4343Z" fill="white"/>
<path d="M108.033 85.9502H15.38V96.1693H108.033V85.9502Z" fill="#E6E6E6"/>
<path d="M108.033 136.705H15.38V146.924H108.033V136.705Z" fill="#E6E6E6"/>
<path d="M108.033 187.46H15.38V197.679H108.033V187.46Z" fill="#E6E6E6"/>
<path d="M269.208 228.918L246.125 212.592C253.91 205.009 260.991 194.21 267.762 182.001L290.845 198.327C281.621 208.802 273.808 219.082 269.208 228.918Z" fill="#54B13F"/>
<path d="M269.214 211.536C272.977 211.536 276.027 208.486 276.027 204.724C276.027 200.961 272.977 197.911 269.214 197.911C265.451 197.911 262.401 200.961 262.401 204.724C262.401 208.486 265.451 211.536 269.214 211.536Z" fill="white"/>
<path d="M157.859 154.418H155.325C155.236 154.418 155.151 154.454 155.088 154.517C155.025 154.58 154.989 154.665 154.989 154.754V155.866C154.989 155.91 154.998 155.954 155.015 155.995C155.032 156.036 155.056 156.073 155.088 156.104C155.119 156.135 155.156 156.16 155.197 156.177C155.237 156.194 155.281 156.202 155.325 156.202H155.745V157.869H157.439V156.202H157.859C157.948 156.202 158.034 156.167 158.097 156.104C158.16 156.041 158.195 155.955 158.195 155.866V154.754C158.195 154.665 158.159 154.58 158.097 154.517C158.034 154.454 157.948 154.418 157.859 154.418Z" fill="#E6E6E6"/>
<path d="M160.397 164.597C158.845 162.326 158.052 159.622 158.131 156.873C158.132 156.81 158.111 156.748 158.072 156.698C158.033 156.648 157.978 156.613 157.916 156.599V156.119H155.24V156.593H155.203C155.167 156.593 155.131 156.6 155.098 156.614C155.065 156.627 155.035 156.648 155.009 156.673C154.984 156.699 154.964 156.729 154.95 156.762C154.936 156.796 154.929 156.831 154.929 156.867C154.929 156.874 154.929 156.881 154.93 156.887C155.177 159.693 154.42 162.494 152.794 164.794C152.7 164.928 152.652 165.089 152.657 165.252L152.95 174.304C152.957 174.505 153.041 174.697 153.186 174.838C153.331 174.979 153.525 175.058 153.727 175.06H159.779C159.984 175.058 160.179 174.977 160.324 174.833C160.47 174.689 160.553 174.495 160.557 174.29L160.669 165.502C160.673 165.18 160.578 164.864 160.397 164.597Z" fill="#54B13F"/>
<path opacity="0.2" d="M157.331 154.781C157.331 154.973 157.254 155.157 157.118 155.293C156.983 155.429 156.798 155.506 156.606 155.506C156.414 155.506 156.229 155.429 156.094 155.293C155.958 155.157 155.881 154.973 155.881 154.781" fill="black"/>
<path d="M159.218 166.341H154.108V169.747H159.218V166.341Z" fill="white"/>
<path d="M238.041 189.778H233.298C233.132 189.778 232.972 189.844 232.854 189.962C232.736 190.08 232.67 190.24 232.67 190.406V192.488C232.67 192.655 232.736 192.815 232.854 192.933C232.972 193.051 233.132 193.117 233.298 193.117H234.084V196.236H237.255V193.117H238.041C238.208 193.117 238.368 193.051 238.486 192.933C238.604 192.815 238.67 192.655 238.67 192.488V190.406C238.67 190.24 238.604 190.08 238.486 189.962C238.368 189.844 238.208 189.778 238.041 189.778Z" fill="#E6E6E6"/>
<path d="M242.792 208.831C239.887 204.58 238.402 199.52 238.55 194.373C238.552 194.255 238.514 194.139 238.441 194.045C238.368 193.952 238.264 193.886 238.148 193.86V192.961H233.139V193.848H233.07C233.003 193.848 232.936 193.861 232.873 193.887C232.811 193.913 232.754 193.951 232.707 193.999C232.659 194.047 232.621 194.103 232.596 194.166C232.57 194.228 232.557 194.295 232.557 194.362C232.557 194.375 232.557 194.387 232.558 194.4C232.953 199.901 231.62 204.834 228.56 209.2C228.384 209.451 228.294 209.752 228.304 210.058L228.852 227.001C228.865 227.379 229.024 227.737 229.295 228.001C229.565 228.265 229.928 228.414 230.306 228.417H241.636C242.019 228.414 242.385 228.261 242.656 227.992C242.928 227.723 243.084 227.359 243.091 226.976L243.302 210.526C243.308 209.922 243.13 209.331 242.792 208.831Z" fill="#54B13F"/>
<path opacity="0.2" d="M237.053 190.456C237.053 190.816 236.91 191.161 236.655 191.415C236.401 191.67 236.056 191.813 235.696 191.813C235.336 191.813 234.991 191.67 234.737 191.415C234.482 191.161 234.339 190.816 234.339 190.456" fill="black"/>
<path d="M240.998 214.458H231.136C230.99 214.458 230.846 214.49 230.714 214.551C230.581 214.612 230.463 214.701 230.368 214.812C230.273 214.923 230.203 215.053 230.163 215.193C230.123 215.333 230.113 215.481 230.136 215.625L231.626 225.312H240.183L241.994 215.658C242.021 215.511 242.016 215.361 241.979 215.217C241.941 215.073 241.873 214.939 241.778 214.824C241.683 214.71 241.563 214.618 241.429 214.555C241.294 214.491 241.147 214.459 240.998 214.458Z" fill="white"/>
<path d="M224.509 228.892H196.236C198.213 218.205 197.758 205.3 196.236 191.422H224.509C223.027 205.3 222.585 218.205 224.509 228.892Z" fill="#54B13F"/>
<path d="M210.543 215.948C214.305 215.948 217.355 212.898 217.355 209.135C217.355 205.372 214.305 202.322 210.543 202.322C206.78 202.322 203.73 205.372 203.73 209.135C203.73 212.898 206.78 215.948 210.543 215.948Z" fill="white"/>
<path d="M108.866 110.968L115.213 110.391L119.252 100.582L112.039 96.5432L108.866 110.968Z" fill="#FFB8B8"/>
<path d="M167.115 137.897C167.326 137.37 167.409 136.801 167.357 136.237C167.305 135.672 167.12 135.128 166.816 134.649C166.512 134.17 166.099 133.77 165.611 133.482C165.122 133.194 164.572 133.026 164.006 132.992L154.152 132.405L152.701 137.23L162.846 140.016C163.693 140.249 164.597 140.161 165.384 139.771C166.172 139.38 166.788 138.713 167.115 137.897Z" fill="#FFB8B8"/>
<path d="M156.533 140.097L156.425 131.043L134.535 127.55L117.672 108.21C116.795 107.204 115.582 106.549 114.26 106.369C112.937 106.188 111.593 106.492 110.478 107.226C109.803 107.67 109.233 108.258 108.81 108.946C108.387 109.635 108.12 110.408 108.028 111.211C107.936 112.014 108.022 112.828 108.279 113.594C108.536 114.36 108.959 115.061 109.517 115.646L123.429 132.767L156.533 140.097Z" fill="#54B13F"/>
<path d="M103.961 241.948H109.731L124.043 177.241L138.87 197.23L147.525 240.506H153.007L151.853 194.057L132.523 144.435H113.482C108.278 153.852 104.197 163.559 108.866 173.573L103.961 241.948Z" fill="#2F2E41"/>
<path d="M143.988 245.879C143.924 246.083 143.905 246.298 143.931 246.51C143.957 246.723 144.027 246.927 144.138 247.11C144.25 247.293 144.398 247.45 144.575 247.57C144.751 247.691 144.952 247.773 145.162 247.81L159.282 250.316C159.839 250.418 160.415 250.313 160.901 250.019C161.386 249.726 161.748 249.265 161.917 248.724C162.081 248.207 162.058 247.648 161.852 247.146C161.645 246.644 161.269 246.23 160.788 245.979C157.683 244.385 155.011 242.062 153.001 239.209C151.449 240.654 149.715 240.518 147.873 239.453L145.92 239.697L143.988 245.879Z" fill="#2F2E41"/>
<path d="M101.29 245.879C101.226 246.083 101.206 246.298 101.232 246.51C101.258 246.723 101.329 246.927 101.44 247.11C101.551 247.293 101.7 247.45 101.877 247.57C102.053 247.691 102.253 247.773 102.464 247.81L116.583 250.316C117.141 250.418 117.717 250.313 118.203 250.019C118.688 249.726 119.049 249.265 119.219 248.724C119.383 248.207 119.36 247.648 119.154 247.146C118.947 246.644 118.57 246.23 118.09 245.979C114.985 244.385 112.313 242.062 110.303 239.209C108.751 240.654 107.017 240.518 105.175 239.453L103.221 239.697L101.29 245.879Z" fill="#2F2E41"/>
<path d="M119.396 104.189C123.858 104.189 127.474 100.572 127.474 96.1105C127.474 91.6491 123.858 88.0325 119.396 88.0325C114.935 88.0325 111.318 91.6491 111.318 96.1105C111.318 100.572 114.935 104.189 119.396 104.189Z" fill="#FFB8B8"/>
<path d="M112.184 146.598L133.244 146.021L127.059 126.555C130.903 120.393 127.035 114.238 121.56 108.083L117.232 105.198L110.308 104.621C107.311 107.829 105.67 112.073 105.731 116.463C105.868 125.864 107.533 136.097 112.184 146.598Z" fill="#54B13F"/>
<path d="M160.571 159.701C160.972 159.3 161.273 158.81 161.447 158.27C161.621 157.731 161.665 157.157 161.574 156.598C161.483 156.038 161.261 155.508 160.925 155.051C160.589 154.594 160.15 154.223 159.643 153.969L150.814 149.552L147.582 153.418L155.812 159.97C156.5 160.518 157.365 160.793 158.243 160.743C159.121 160.694 159.95 160.323 160.571 159.701Z" fill="#FFB8B8"/>
<path d="M149.977 157.561L153.439 149.195L134.689 137.373L126.793 112.958C126.383 111.687 125.525 110.609 124.38 109.922C123.236 109.236 121.881 108.987 120.566 109.223C119.771 109.366 119.016 109.682 118.356 110.148C117.696 110.615 117.146 111.221 116.746 111.923C116.346 112.625 116.105 113.407 116.04 114.213C115.975 115.018 116.088 115.828 116.37 116.586L122.425 137.799L149.977 157.561Z" fill="#54B13F"/>
<path d="M106.125 92.9369C106.125 96.0801 108.166 100.948 110.741 103.034C112.474 104.438 114.763 104.379 115.646 102.457C116.551 100.486 119.673 95.852 125.166 92.9369C132.49 89.0509 122.569 82.4026 115.646 83.4163C110.443 84.1781 106.125 87.6788 106.125 92.9369Z" fill="#2F2E41"/>
<path d="M111.03 88.6094C114.216 88.6094 116.8 86.0261 116.8 82.8394C116.8 79.6527 114.216 77.0693 111.03 77.0693C107.843 77.0693 105.26 79.6527 105.26 82.8394C105.26 86.0261 107.843 88.6094 111.03 88.6094Z" fill="#2F2E41"/>
<path d="M117.665 80.8198C117.665 79.3652 117.114 77.9645 116.124 76.8984C115.135 75.8324 113.779 75.1799 112.328 75.0717C112.471 75.061 112.615 75.0498 112.761 75.0498C114.291 75.0498 115.759 75.6577 116.841 76.7398C117.923 77.8219 118.531 79.2895 118.531 80.8198C118.531 82.3502 117.923 83.8178 116.841 84.8999C115.759 85.982 114.291 86.5899 112.761 86.5899C112.615 86.5899 112.471 86.5787 112.328 86.568C113.779 86.4598 115.135 85.8072 116.124 84.7412C117.114 83.6752 117.665 82.2745 117.665 80.8198Z" fill="#2F2E41"/>
<path d="M119.54 98.9955C120.257 98.9955 120.839 98.2205 120.839 97.2645C120.839 96.3084 120.257 95.5334 119.54 95.5334C118.823 95.5334 118.242 96.3084 118.242 97.2645C118.242 98.2205 118.823 98.9955 119.54 98.9955Z" fill="#FFB8B8"/>
<path d="M283.024 231.367H193.202L174.182 141.451H157.949V137.416H177.452L196.473 227.332H283.024V231.367Z" fill="#3F3D56"/>
<path d="M206.365 247.793C211.14 247.793 215.011 243.922 215.011 239.147C215.011 234.373 211.14 230.502 206.365 230.502C201.59 230.502 197.719 234.373 197.719 239.147C197.719 243.922 201.59 247.793 206.365 247.793Z" fill="#3F3D56"/>
<path d="M270.92 247.793C275.695 247.793 279.566 243.922 279.566 239.147C279.566 234.373 275.695 230.502 270.92 230.502C266.145 230.502 262.274 234.373 262.274 239.147C262.274 243.922 266.145 247.793 270.92 247.793Z" fill="#3F3D56"/>
<path d="M281.386 229.467H193.995L178.576 153.267H295.856C296.455 153.267 297.046 153.396 297.59 153.647C298.133 153.897 298.616 154.262 299.005 154.717C299.394 155.172 299.68 155.706 299.843 156.281C300.006 156.857 300.042 157.461 299.95 158.053L285.479 225.967C285.33 226.944 284.834 227.835 284.083 228.477C283.332 229.119 282.375 229.471 281.386 229.467ZM194.944 228.314H281.386C282.1 228.317 282.79 228.063 283.332 227.6C283.875 227.136 284.232 226.493 284.34 225.788L298.81 157.874C298.877 157.447 298.851 157.011 298.734 156.595C298.616 156.18 298.41 155.794 298.129 155.466C297.848 155.138 297.5 154.874 297.108 154.694C296.715 154.513 296.288 154.419 295.856 154.419H179.975L194.944 228.314Z" fill="#3F3D56"/>
<path d="M210.984 229.223L200.886 153.937L202.023 153.749L212.121 229.035L210.984 229.223Z" fill="#3F3D56"/>
<path d="M267.132 228.645L265.994 228.46L275.797 153.751L276.935 153.935L267.132 228.645Z" fill="#3F3D56"/>
<path d="M240.381 153.843H239.228V229.129H240.381V153.843Z" fill="#3F3D56"/>
<path d="M184.464 174.016L184.461 175.169L296.047 175.439L296.05 174.287L184.464 174.016Z" fill="#3F3D56"/>
<path d="M288.176 209.627L190.145 210.297L190.153 211.449L288.184 210.779L288.176 209.627Z" fill="#3F3D56"/>
<path d="M159.678 142.315C163.18 142.315 166.018 140.767 166.018 138.857C166.018 136.947 163.18 135.399 159.678 135.399C156.177 135.399 153.338 136.947 153.338 138.857C153.338 140.767 156.177 142.315 159.678 142.315Z" fill="#3F3D56"/>
</g>
<defs>
<clipPath id="clip0_114_126">
<rect width="300" height="250.354" fill="white"/>
</clipPath>
</defs>
</svg>
