<svg width="98" height="87" viewBox="0 0 98 87" fill="none" xmlns="http://www.w3.org/2000/svg">
<path d="M97.6626 86.241L97.0289 86.8747H0.132172V0.368742C2.16897 0.000178135 85.9526 -0.15824 97.1777 0.207091C97.3232 0.533626 97.5753 0.902191 97.64 1.29985C97.724 1.81067 97.6594 2.34412 97.6594 2.86787V86.241H97.6626ZM60.428 10.1648C60.0659 11.6358 59.61 12.9161 59.4677 14.2287C59.2964 15.8096 59.3611 17.3906 59.0475 18.9909C58.7048 20.7529 59.222 22.641 58.5302 24.4062C58.8664 28.1792 57.903 31.9004 58.0678 35.6701C58.1422 37.3868 58.1196 39.1133 58.0678 40.8332C58.0194 42.4982 58.2457 44.16 57.6993 45.8347C57.4762 46.5104 58.0226 47.4415 58.2909 48.5537C59.7167 45.9155 59.3223 43.1739 60.04 40.6522H60.7803C61.3882 41.121 61.7987 41.4378 62.1285 41.69C62.1285 43.106 62.0703 44.3831 62.1447 45.6504C62.2158 46.866 62.5326 48.0687 62.5617 49.2811C62.7396 56.9272 62.2126 64.5862 63.0111 72.2226C63.1017 73.0826 63.176 73.8618 64.0198 74.5084C64.8378 73.4997 65.1676 72.3358 64.7279 71.4273C64.327 70.5996 64.3949 69.8658 64.3916 69.0963C64.3625 63.4838 64.3755 57.8713 64.3755 52.2555C64.3755 46.6397 64.2914 40.8785 64.3981 35.1916C64.5015 29.6405 63.9713 24.0797 64.7828 18.5319C65.0512 16.6987 64.8119 14.7945 64.8281 12.9258C64.841 11.3739 64.2009 10.0613 63.4088 8.74873H61.8408C61.3914 9.19812 60.9129 9.67338 60.4247 10.1648H60.428ZM14.2023 21.6C13.63 21.7584 13.0869 21.9007 12.547 22.0591C10.869 22.5602 10.4714 24.0862 9.97671 25.4473C9.02297 28.0822 8.63177 30.8852 8.65441 33.6398C8.73523 43.8335 8.13389 54.0401 9.03913 63.9655C9.41093 64.7447 9.73423 65.291 9.94438 65.8762C10.5069 67.4378 11.8745 68.9573 13.3067 69.3194C13.8175 69.4487 14.3801 69.4487 14.9847 69.1254C16.7402 68.1878 18.1821 65.3072 17.4935 63.2963C17.2995 62.7272 17.2672 62.1938 17.1411 61.6474C16.7111 59.7626 16.2229 57.7904 14.0309 57.2893C12.7151 56.9886 11.826 56.4422 11.3055 54.9001V48.4987C11.3055 46.1774 11.2344 43.8529 11.3249 41.538C11.4122 39.3525 11.6708 37.1767 11.868 34.8263C12.1784 34.5806 12.5955 34.1603 13.0933 33.8725C16.6594 31.7872 17.8362 26.9151 15.7864 23.5269C15.3758 22.8479 14.7745 22.2886 14.199 21.5968L14.2023 21.6ZM77.5306 33.1063C77.3399 34.3769 77.078 35.5763 76.9972 36.7887C76.9066 38.1304 76.9778 39.4851 76.9778 40.8332V43.4196C76.3538 43.5684 75.8397 43.6912 75.1091 43.869C74.9636 42.7601 74.8019 41.8581 74.7405 40.9464C74.6823 40.0508 74.8375 39.1327 74.692 38.2565C74.5821 37.597 74.2265 36.9342 73.8191 36.3911C73.6284 36.1356 73.0626 36.1647 72.513 36.0257C72.3352 36.8986 72.3481 37.7457 71.9892 38.3794C71.5107 39.2232 71.5883 40.0541 71.5851 40.9141C71.5722 43.536 71.5366 46.158 71.5916 48.78C71.6465 51.3438 71.5592 53.8914 71.944 56.4713C72.3352 59.1095 72.0312 61.8511 72.0312 64.5507C72.0312 65.1488 71.9601 65.7598 72.0603 66.345C72.1121 66.6392 72.4709 66.8817 72.694 67.15C72.9559 66.8881 73.1693 66.6748 73.2404 66.6069C73.4473 64.1983 73.6963 61.9449 73.8029 59.685C73.8514 58.6601 73.8805 57.6805 74.5013 56.814C75.2158 56.814 76.0046 56.5974 76.5284 57.5479C76.5284 58.4661 76.5348 59.5072 76.5284 60.5482C76.4993 64.9128 77.2817 69.245 77.0069 73.6225C76.9842 73.9976 77.369 74.3984 77.7375 75.1356C78.0026 74.0363 78.2645 73.3671 78.3098 72.6817C78.5199 69.6006 78.2322 66.526 78.6913 63.4191C79.2053 59.9404 78.5684 56.3647 79.1698 52.8213C79.6224 50.1605 78.9531 47.406 79.6191 44.687C79.9489 43.3453 79.742 41.8516 79.6579 40.4323C79.5739 38.9581 79.9489 37.5549 80.1041 36.1195C80.2173 35.0817 80.0847 34.0213 80.1397 32.977C80.1849 32.0782 79.9263 31.3411 79.2538 30.6298C78.1352 31.1309 78.1837 32.4435 77.5338 33.1128L77.5306 33.1063ZM83.1949 53.0928C83.4891 52.2005 83.6863 51.6089 83.9417 50.8362C85.0312 50.9946 86.1531 51.1563 87.5077 51.3535C87.9086 51.1175 88.5099 50.7618 89.066 50.4321V44.3184C88.6457 43.966 88.3063 43.4972 87.8536 43.3324C86.8094 42.9541 85.6617 42.9153 84.6303 42.4271C84.4202 42.3269 84.0354 42.4271 83.8091 42.5661C83.1367 42.9703 82.503 43.439 81.8726 43.869C82.2379 45.977 80.9738 47.6937 80.9738 49.6755C80.9738 51.6412 81.1678 53.5972 80.7345 55.6081C80.3207 57.535 80.6763 59.6171 80.5503 61.6216C80.4242 63.6131 80.9123 65.5173 81.129 67.5024C83.7542 69.5715 86.832 69.4681 90.1588 69.3355C89.9745 67.2147 89.7967 65.207 89.6577 63.5905C88.2675 62.2003 87.1618 61.0946 85.8977 59.8305H83.35V58.2107C84.1518 58.007 85.1411 58.4823 85.4935 57.3766V54.3052C84.7176 53.8946 83.9773 53.5034 83.1949 53.0896V53.0928ZM31.4569 75.2196C31.486 74.9513 31.5539 74.6733 31.5377 74.4017C31.4375 72.6623 31.6573 70.9359 31.1627 69.1771C30.7618 67.7514 31.0948 66.1833 30.7198 64.6444C30.3512 63.1314 30.6098 61.4922 30.2542 59.8919C29.9471 58.5049 30.141 57.0371 29.8113 55.5823C29.4815 54.1274 29.9471 52.5271 29.294 51.0657C29.4039 48.0041 28.9028 45.0071 28.4275 41.9939C28.0622 39.6726 27.3962 37.5032 26.1644 35.3015C26.061 34.3122 26.0642 33.1742 27.047 32.2948V29.8183C27.047 29.0683 27.1052 28.315 27.0309 27.5746C26.9598 26.8795 26.8078 26.1812 26.5847 25.5152C26.158 24.2381 25.7409 22.8609 24.4606 22.2078C23.4164 21.6776 22.2201 21.4448 21.2147 21.1183C19.4398 22.4729 19.3525 24.1961 19.401 25.9613C20.3094 26.5982 19.5335 27.6587 20.2221 28.7999C20.4614 29.2849 21.3763 28.7029 22.1749 29.1071C22.2913 29.8442 22.5467 30.6815 22.5241 31.506C22.4659 33.394 22.6243 35.2627 22.1878 37.1831C21.7805 38.9645 22.0423 40.9108 22.1393 42.7795C22.1652 43.3033 22.6437 43.8011 22.9734 44.4219C24.4703 42.4821 24.3442 40.3806 24.4089 38.3632H25.159C25.7797 40.2901 26.5589 42.2364 26.9856 44.257C27.2022 45.2851 27.3348 46.3714 27.4673 47.4318C27.6096 48.5698 27.7842 49.7273 27.865 50.8427C28.0493 53.3676 28.5536 55.8441 28.7573 58.3368C28.9578 60.8101 29.6044 63.2704 29.3069 65.7824C29.2552 66.2254 29.1259 66.7912 29.3328 67.108C29.9083 67.9938 29.669 68.9379 29.7628 69.8625C29.8598 70.8551 30.1831 71.8411 30.1637 72.824C30.1443 73.7518 30.4902 74.4728 30.8911 75.2132H31.4633L31.4569 75.2196ZM31.2597 51.6703C31.6347 51.0431 31.8254 50.7457 31.9936 50.4353C32.5723 49.3587 32.3815 48.1819 32.472 47.0342C32.5011 46.6688 32.8503 46.3261 33.0184 46.0384C33.4937 46.2841 33.8622 46.4716 34.2114 46.6527C34.3731 47.7972 34.5541 48.9255 34.6867 50.0603C34.8451 51.4181 34.5703 52.7663 35.0682 54.163C35.4464 55.2266 35.0843 56.5328 35.1587 57.7258C35.2363 58.9414 35.482 60.1441 35.5822 61.3564C35.7633 63.5355 35.7277 65.7501 36.1124 67.8871C36.2902 68.8797 36.3484 69.8722 36.5198 70.8518C36.7235 72.0254 37.1535 73.1602 37.4865 74.3112C37.8389 73.9006 37.8518 73.5449 37.8389 73.1893C37.6934 69.3614 37.5414 65.5335 37.3927 61.7056C37.3862 61.5569 37.4541 61.3597 37.383 61.2627C36.6038 60.2023 37.0791 58.9866 36.9401 57.8518C36.8011 56.7171 36.6103 55.5855 36.5004 54.4475C36.3581 52.9377 36.6685 51.4246 36.0995 49.9019C35.7794 49.0483 36.0995 47.975 36.0251 47.0083C35.954 46.0933 35.663 45.1913 35.6081 44.2764C35.4206 41.1242 35.2621 37.9688 35.1619 34.8133C35.1264 33.7464 34.2728 33.0772 34.1241 32.1364C33.4807 31.9133 32.8891 31.7096 32.5496 31.5933C31.9095 32.0879 31.4472 32.4468 31.0948 32.7183C31.0948 33.4328 31.153 33.9631 31.0786 34.4771C31.001 35.0235 30.668 35.5505 30.6648 36.0872C30.6292 40.8009 30.6325 45.5114 30.6648 50.2252C30.6648 50.6067 30.9687 50.9881 31.2564 51.6703H31.2597ZM44.14 44.5609V42.4045C44.14 39.9344 44.0818 37.458 44.1562 34.9912C44.2305 32.505 44.4407 30.022 44.5894 27.5358C44.6023 27.316 44.5183 27.0315 44.625 26.8795C45.5043 25.651 44.8545 24.3545 45.0808 22.5634C44.3534 23.2553 43.7714 23.5463 43.7326 23.8954C43.5969 25.1757 42.7304 26.2264 42.711 27.5617C42.7078 27.8979 42.6237 28.8969 41.6538 28.9519C40.8326 27.1511 40.0244 25.3277 38.0134 24.264C37.7839 25.1983 37.4218 26.0066 37.4153 26.8213C37.3636 32.2884 37.3959 37.7554 37.3765 43.2224C37.3765 43.8561 37.5059 44.3346 38.1201 44.5868C38.993 43.7979 39.2517 42.8086 39.2 41.6544C39.1385 40.2577 39.187 38.8611 39.187 37.3092C41.7152 39.3234 42.2099 42.2331 43.4805 44.6611C43.6939 44.6288 43.8361 44.6062 44.1335 44.5577L44.14 44.5609ZM22.5661 74.9966C22.3107 72.824 23.0349 70.5253 22.1005 68.3204C22.3559 65.9603 21.7966 63.6519 21.6479 61.3176C21.4798 58.686 21.7966 56.064 21.2826 53.4C20.7621 50.6875 20.914 47.8489 20.7459 45.0653C20.6166 42.8797 20.5972 40.6716 20.2254 38.5249C20.0831 37.6907 20.0961 36.7693 19.7922 36.0257C19.4107 35.0979 19.3492 33.8596 18.1756 33.4199C17.4805 33.2938 16.8986 33.5622 16.7273 34.1603C16.2488 35.8382 15.2239 37.3674 15.35 39.2103C15.3791 39.6564 15.5213 40.2028 15.3274 40.5423C14.3768 42.204 15.1237 44.0695 14.5547 45.8347C14.0729 47.3284 14.3898 49.1033 14.4868 50.7424C14.5288 51.444 14.9168 52.1294 15.2239 53.054C16.155 52.1488 16.2261 51.2888 16.2746 50.3577C16.3522 48.8447 16.5527 47.3348 16.7079 45.825C16.7143 45.7636 16.7854 45.7086 17.0085 45.3918C17.2833 45.311 17.7974 45.159 18.4537 44.9683C18.8125 45.8185 19.2781 46.5007 19.3622 47.2281C19.5206 48.586 19.5561 49.9439 19.7728 51.3179C20.1122 53.4646 19.8503 55.6696 20.2351 57.8712C20.6586 60.3057 19.9344 62.8695 20.7491 65.3104C20.4614 68.4141 21.1565 71.4693 21.2567 74.5051C21.4572 74.8963 21.6479 75.2681 21.8548 75.669C22.0682 75.4653 22.2751 75.2714 22.5628 74.9966H22.5661ZM53.3153 10.931C52.3098 10.75 51.2656 10.5625 50.3927 10.404C49.6943 11.0603 49.1512 11.5679 48.6468 12.0399V14.8042C49.2385 15.5866 49.8366 16.3787 50.3862 17.1061V23.3975C49.9303 23.8308 49.5003 24.2414 49.0898 24.6326V27.3612C49.5876 28.0434 50.0888 28.7385 50.5446 29.3625H52.9758C54.9577 27.2481 55.8597 24.5582 56.2056 21.7907C56.4513 19.8154 56.4513 17.7592 55.905 15.703C55.4135 13.8472 54.8963 12.1596 53.3153 10.9278V10.931ZM72.8783 22.3597C72.3578 21.7875 71.9149 21.4998 71.1325 21.9136C69.2412 22.9094 68.2163 24.5647 67.5471 26.456C66.8455 28.4443 66.0308 30.4261 66.1795 32.6117C65.3971 33.5816 65.7527 34.7261 65.7592 35.7865C65.7657 36.9213 65.3842 38.1369 66.1795 39.1844C66.0857 41.7643 67.3886 43.8884 68.4426 46.0901C68.6107 46.4458 68.9631 46.7109 69.183 46.9598C70.6217 46.5136 69.9363 45.0944 70.7704 44.5674C69.1927 42.8668 68.3294 41.0983 68.4038 38.8611C68.4879 36.3232 69.0633 33.9695 71.2068 32.1461C72.8848 30.7203 73.1208 29.1297 73.3956 27.0218C73.609 25.3826 72.7587 23.9116 72.8783 22.363V22.3597ZM57.4827 13.9668C57.6411 12.8708 58.459 12.1693 58.042 11.4418C57.4568 10.4202 57.8092 9.33068 57.5441 8.31874C57.2305 8.0892 56.9492 7.88875 56.6809 7.69153C55.9632 8.49656 55.656 9.11083 55.8435 9.64751C56.3123 10.9892 56.8458 12.3051 57.4794 13.9636L57.4827 13.9668Z" fill="#8C8C8C"/>
<path d="M61.4559 28.9195C61.0873 28.5509 60.7155 28.1791 60.2532 27.7168C60.4536 26.152 60.6605 24.5064 60.8901 22.7121C61.0938 22.5601 61.4332 22.3144 62.0475 21.8618C62.2091 24.1993 62.0928 26.2458 62.1348 28.2406C61.8794 28.496 61.6692 28.7061 61.4559 28.9195Z" fill="#8C8C8C"/>
<path d="M24.7191 32.0232H23.9755V28.9615H24.7191V32.0232Z" fill="#8C8C8C"/>
<path d="M33.07 39.2588H33.681V41.8743H32.4816C32.6885 40.9529 32.8825 40.0994 33.07 39.2588Z" fill="#8C8C8C"/>
<path d="M18.0945 40.5165C18.2303 40.7655 18.3467 41.0241 18.5051 41.2569C18.6603 41.48 18.8575 41.6707 19.1517 42.0102C18.7153 42.3788 18.3661 42.6697 17.8844 43.0706C17.4415 42.1686 17.6775 41.4218 17.5837 40.7041C17.7518 40.6394 17.9232 40.578 18.0913 40.5133L18.0945 40.5165Z" fill="#8C8C8C"/>
<path d="M52.2386 18.351C52.4455 18.1441 52.6524 17.9372 52.9337 17.6559C53.2408 18.0471 53.5512 18.4383 54.0006 19.0105V21.5614C53.6999 21.8135 53.2667 22.1789 52.8335 22.541C52.6169 21.348 51.5694 20.1453 52.7785 18.9168C52.5393 18.6646 52.3906 18.5062 52.2386 18.3477V18.351Z" fill="#8C8C8C"/>
</svg>
