<svg width="203" height="43" viewBox="0 0 203 43" fill="none" xmlns="http://www.w3.org/2000/svg">
<path d="M197.279 42.1557C192.842 42.169 188.427 41.9131 184.007 41.4544C178.79 40.9119 173.801 36.4573 173.149 30.8118C172.611 26.1675 172.474 21.5232 172.76 16.8657C172.88 14.9118 173.007 12.9447 173.334 11.0173C174.154 6.16131 178.591 1.9316 183.54 1.3891C187.13 0.996567 190.742 0.784861 194.354 0.634902C199.021 0.445249 203.687 0.61726 208.336 1.03626C209.359 1.12888 210.382 1.26561 211.406 1.40675C215.838 2.01099 220.831 6.23629 221.453 11.7803C222.163 18.1095 222.225 24.4342 221.492 30.7721C220.84 36.4397 215.843 40.9119 210.607 41.4544C206.17 41.9131 201.733 42.169 197.279 42.1557ZM197.504 31.4602C200.053 31.3455 202.871 31.2705 205.681 31.0764C207.37 30.9618 208.442 29.8635 208.596 28.192C209.011 23.7241 209.13 19.2474 208.649 14.7751C208.442 12.8256 207.269 11.6568 205.328 11.5245C200.009 11.1629 194.685 11.1849 189.366 11.5333C187.258 11.6701 186.102 12.711 185.833 14.7927C185.242 19.3179 185.388 23.8564 185.899 28.3772C186.036 29.568 186.764 30.4149 187.902 30.8118C188.462 31.0059 189.071 31.1161 189.666 31.147C192.189 31.2705 194.712 31.3543 197.508 31.4602H197.504Z" fill="#8C8C8C"/>
<path d="M115.556 29.2241C115.569 29.4358 115.587 29.6431 115.6 29.8504C115.71 31.3985 116.579 32.4261 118.119 32.5805C119.856 32.7569 121.612 32.8628 123.358 32.8628C126.45 32.8628 129.542 32.8275 132.629 32.6996C135.333 32.5849 136.722 30.018 135.456 27.6098C134.905 26.5557 133.948 26.1235 132.823 26.0529C130.592 25.9118 128.36 25.8148 126.124 25.6913C121.541 25.4399 116.959 25.2502 112.381 24.9062C109.161 24.6592 106.519 23.2081 104.622 20.5265C103.82 19.3886 103.401 18.0963 103.171 16.7511C102.744 14.2415 102.744 11.7187 103.277 9.22671C104.186 4.98377 107.3 2.01989 111.785 1.40241C114.802 0.987824 117.858 0.762887 120.902 0.718781C125.233 0.652623 129.573 0.780529 133.904 0.934898C135.527 0.992235 137.163 1.23481 138.751 1.58325C142.456 2.3992 144.926 4.71914 146.077 8.29168C146.562 9.80449 146.65 11.4452 146.915 13.0286C146.986 13.4608 146.805 13.5976 146.364 13.5931C142.491 13.5799 138.623 13.5755 134.751 13.5931C134.288 13.5931 134.155 13.4652 134.155 13.0021C134.155 11.0924 133.353 10.1706 131.478 10.0162C126.896 9.64571 122.309 9.70305 117.731 10.0735C116.571 10.1662 115.653 10.6734 115.287 11.8289C114.89 13.0859 114.899 14.3297 115.812 15.4059C116.262 15.9351 116.893 16.1424 117.581 16.1777C120.514 16.3277 123.447 16.4644 126.375 16.6232C130.411 16.8437 134.451 17.051 138.486 17.3245C140.14 17.4347 141.772 17.7832 143.245 18.5903C145.958 20.0678 147.603 22.3701 148.124 25.4002C148.565 27.9583 148.6 30.5473 148.124 33.1098C147.277 37.7012 144.022 40.8282 139.254 41.406C136.136 41.7853 132.978 41.9794 129.833 42.0323C125.639 42.1029 121.435 41.997 117.241 41.8735C115.437 41.8206 113.629 41.6309 111.847 41.3531C107.026 40.5989 104.027 37.6526 103.123 32.8452C102.929 31.7999 102.889 30.7281 102.774 29.6652C102.739 29.3388 102.81 29.1579 103.198 29.1579C107.225 29.1668 111.251 29.1668 115.278 29.1712C115.353 29.1712 115.424 29.202 115.547 29.2329L115.556 29.2241Z" fill="#8C8C8C"/>
<path d="M25.4748 42.438C20.879 42.1469 16.27 41.9838 11.6874 41.5251C7.59005 41.1105 4.2601 39.1875 2.13863 35.5267C0.98748 33.542 0.400879 31.3896 0.400879 29.0829C0.4097 23.8608 0.400879 18.6388 0.400879 13.4123C0.400879 7.42276 4.4718 2.3771 10.3952 1.40237C13.5663 0.881927 16.8081 0.727558 20.0278 0.568778C25.9379 0.273272 31.848 0.493799 37.7405 1.02747C40.131 1.24359 42.4201 1.78609 44.3916 3.27244C47.0158 5.25277 48.4846 7.91233 48.9344 11.1232C49.1329 12.539 49.1461 13.9812 49.2432 15.4147C49.2696 15.7807 49.1682 15.9748 48.7271 15.9704C44.6827 15.9351 40.6382 15.9175 36.5937 15.913C36.135 15.913 36.0116 15.7675 35.9851 15.3176C35.8087 12.4905 34.9883 11.6877 32.1435 11.4937C27.0714 11.1497 21.9993 11.1717 16.9272 11.5025C16.3935 11.5378 15.8466 11.6613 15.3394 11.8333C14.2456 12.1994 13.6237 12.98 13.4781 14.14C13.0194 17.7522 12.993 21.3777 13.1958 25.0076C13.2576 26.1323 13.3149 27.257 13.4649 28.3728C13.6766 29.943 14.5587 30.8912 16.1421 31.0897C17.7563 31.2926 19.3971 31.3852 21.029 31.394C24.6059 31.4073 28.1828 31.3499 31.7554 31.297C32.3949 31.2882 33.0388 31.2176 33.6651 31.0941C35.1912 30.7854 36.1924 29.6651 36.3688 28.1258C36.4217 27.6627 36.4747 27.1952 36.4614 26.7321C36.4526 26.3131 36.6202 26.2028 37.0127 26.2028C41.0572 26.2117 45.1061 26.2117 49.1505 26.2028C49.4857 26.2028 49.6622 26.2866 49.6533 26.6571C49.5872 29.0256 49.5695 31.4161 48.8242 33.6875C47.3069 38.3186 44.0387 41.0178 39.2224 41.5251C35.1471 41.9573 31.0365 42.0323 26.9435 42.2572C26.4583 42.2837 25.9732 42.2572 25.4836 42.2572C25.4836 42.319 25.4748 42.3763 25.4748 42.438Z" fill="#8C8C8C"/>
<path d="M49.8651 41.4413C50.3679 40.246 50.8399 39.1214 51.3118 37.9967C56.4104 25.9471 61.5178 13.9019 66.6031 1.84789C66.7928 1.3936 67.0089 1.21277 67.5293 1.21277C73.3248 1.23482 79.1246 1.23041 84.9201 1.21277C85.3832 1.21277 85.5949 1.3495 85.7757 1.78173C91.2624 14.8457 96.7624 27.9054 102.258 40.965C102.315 41.1017 102.351 41.2517 102.417 41.4589C102.174 41.4722 101.989 41.4898 101.799 41.4898C97.6357 41.4898 93.4721 41.481 89.313 41.5031C88.8058 41.5031 88.6029 41.3266 88.4441 40.8812C87.7208 38.8523 86.9445 36.8411 86.23 34.8079C86.0624 34.3359 85.8242 34.2124 85.3435 34.2124C79.1952 34.2301 73.0513 34.2301 66.903 34.2124C66.3914 34.2124 66.1974 34.3977 66.0386 34.8387C65.2888 36.8984 64.5037 38.9494 63.7451 41.0047C63.6216 41.3355 63.4716 41.5031 63.0835 41.4986C58.8053 41.4854 54.5227 41.4942 50.2444 41.4898C50.1518 41.4898 50.0548 41.4634 49.8607 41.4369L49.8651 41.4413ZM83.1735 25.7442C83.0809 25.4796 83.0191 25.2987 82.953 25.1223C81.2285 20.5706 79.5039 16.019 77.775 11.4629C77.2502 10.078 77.2502 10.0956 75.7506 10.0824C75.358 10.0824 75.1684 10.2014 75.0272 10.5675C73.1572 15.4588 71.2739 20.3457 69.395 25.237C69.3376 25.3869 69.3068 25.5457 69.2494 25.7442H83.1779H83.1735Z" fill="#8C8C8C"/>
<path d="M153.698 1.47742H166.471V41.2296H153.698V1.47742Z" fill="#8C8C8C"/>
</svg>
