<svg width="282" height="43" viewBox="0 0 282 43" fill="none" xmlns="http://www.w3.org/2000/svg">
<path d="M49.0091 9.38768C47.6077 10.9025 46.1982 12.4011 44.8131 13.924C41.7592 17.2695 38.7215 20.6312 35.6676 23.9767C30.459 29.6956 25.2504 35.4065 20.0337 41.1092C19.823 41.336 19.5233 41.6277 19.256 41.6358C17.1985 41.6763 15.141 41.6601 13.0753 41.6601C13.0024 41.5629 12.9376 41.4657 12.8647 41.3685C17.9275 35.8115 22.9903 30.2546 28.2314 24.5032C27.6076 24.4627 27.2431 24.4141 26.8705 24.4141C20.3334 24.4141 13.7882 24.4303 7.25108 24.3979C6.26282 24.3979 5.9712 24.7138 5.9793 25.6859C6.01981 30.4085 5.9955 35.1392 6.00361 39.8618C6.00361 41.093 5.40687 41.7087 4.2134 41.7087C3.43575 41.7087 2.6581 41.6763 1.88045 41.7168C1.0542 41.7654 0.697782 41.4576 0.730184 40.5989C0.770686 39.2056 0.746385 37.8123 0.746385 36.4271C0.746385 25.3862 0.746385 14.3533 0.746385 3.31231C0.746385 2.06483 1.38632 1.44109 2.6662 1.44109C15.2625 1.44109 27.8587 1.44109 40.455 1.44109C41.8699 1.44109 42.5773 2.16744 42.5773 3.62013C42.5773 4.36537 42.5773 5.11062 42.5773 5.85587C42.5773 6.4148 42.2938 6.69022 41.743 6.69832C41.419 6.69832 41.0949 6.70642 40.7709 6.70642C29.6975 6.70642 18.6242 6.70642 7.5508 6.70642C6.52474 6.70642 6.01171 7.23025 6.01171 8.27792C6.01171 11.5181 6.03601 14.7502 5.9955 17.9904C5.9874 18.8734 6.27092 19.1731 7.17008 19.1731C15.5217 19.1488 23.8814 19.1731 32.233 19.1245C32.7676 19.1245 33.44 18.8005 33.8045 18.4035C38.3651 13.4541 42.9419 8.52093 47.3809 3.46622C48.677 1.99193 49.9569 1.03607 51.982 1.42489C52.4194 1.5059 52.8893 1.43299 53.3348 1.40869C54.4203 1.35199 54.5742 1.4735 54.5661 2.59137C54.5418 6.66592 54.4608 10.7486 54.4608 14.8231C54.4608 18.6385 54.5499 22.4538 54.5661 26.261C54.5661 28.2942 54.4608 30.3356 54.4608 32.3688C54.4608 35.0501 54.5418 37.7394 54.5661 40.4207C54.5742 41.5872 54.4527 41.6925 53.2862 41.7006C52.3141 41.7006 51.3421 41.6682 50.37 41.7087C49.56 41.7411 49.2764 41.4009 49.2926 40.6151C49.325 38.8978 49.3007 37.1805 49.3007 35.4713C49.3007 34.5532 48.8255 34.0942 47.8751 34.0942C43.436 34.0942 39.005 34.0942 34.5659 34.0942C33.2699 34.0942 33.2051 34.0213 33.197 32.709C33.197 31.7046 33.2132 30.7001 33.197 29.6956C33.1889 29.0638 33.3752 28.7803 34.0961 28.7884C38.7296 28.8289 43.355 28.8127 47.9885 28.8127C49.2521 28.8127 49.3007 28.7641 49.3007 27.5004C49.3007 21.8382 49.3007 16.1678 49.3007 10.5056C49.3007 10.1572 49.2683 9.81701 49.2521 9.46869C49.1711 9.44439 49.0901 9.41199 49.0091 9.38768Z" fill="#8C8C8C"/>
<path d="M149.828 41.0365C151.837 38.8493 153.854 36.6703 155.855 34.475C158.844 31.2024 161.817 27.9136 164.798 24.641C168.654 20.4045 172.509 16.176 176.365 11.9476C179.395 8.62635 182.424 5.29705 185.495 2.01635C185.819 1.66803 186.426 1.47361 186.92 1.44121C188.014 1.36021 189.124 1.47361 190.217 1.40881C190.97 1.36021 191.222 1.65992 191.181 2.34847C191.173 2.47808 191.181 2.60768 191.181 2.73729C191.181 15.2283 191.181 27.7273 191.181 40.2183C191.181 41.212 190.671 41.7088 189.65 41.7088C188.743 41.7088 187.836 41.6764 186.928 41.7088C186.167 41.7412 185.9 41.401 185.908 40.6638C185.94 39.0437 185.908 37.4236 185.908 35.8116C185.908 34.6668 185.319 34.0943 184.142 34.0943C179.865 34.0943 175.596 34.0943 171.319 34.0943C170.015 34.0943 169.95 34.0214 169.934 32.7253C169.925 31.7857 169.966 30.846 169.917 29.9064C169.877 29.0882 170.12 28.7804 171.011 28.7885C175.515 28.8371 180.011 28.8128 184.514 28.8128C185.867 28.8128 185.9 28.7804 185.908 27.4762C185.908 21.7816 185.908 16.0869 185.908 10.3842C185.908 10.1006 185.875 9.81713 185.851 9.2987C185.438 9.68752 185.154 9.92243 184.911 10.1898C179.589 16.0221 174.283 21.8626 168.961 27.6949C164.887 32.1664 160.812 36.6379 156.705 41.077C156.381 41.4253 155.766 41.6683 155.28 41.6764C152.04 41.725 148.807 41.6764 145.567 41.7169C144.628 41.725 144.32 41.3767 144.328 40.4613C144.36 36.6784 144.344 32.8874 144.344 29.1044C144.344 20.364 144.344 11.6235 144.344 2.8831C144.344 1.43311 144.344 1.44121 145.81 1.43311C146.782 1.43311 147.754 1.43311 148.718 1.38451C149.366 1.34401 149.609 1.61942 149.593 2.21886C149.593 2.47808 149.593 2.73729 149.593 2.99651C149.593 15.1635 149.593 27.3385 149.593 39.5055V40.9473C149.666 40.9797 149.739 41.0041 149.812 41.0365H149.828Z" fill="#8C8C8C"/>
<path d="M95.5466 21.3928C96.4214 22.7294 97.3611 23.8958 98.0172 25.2081C101.743 32.693 96.2108 41.6683 87.8511 41.7088C78.2115 41.7493 68.5638 41.7169 58.9243 41.7088C57.7335 41.7088 57.6768 41.6521 57.6768 40.4371C57.6768 27.8813 57.6768 15.3336 57.6768 2.77785C57.6768 1.45747 57.7011 1.43317 59.0539 1.43317C68.6368 1.43317 78.2115 1.42507 87.7944 1.43317C94.7851 1.44127 100.172 7.85686 99.0217 14.7585C98.5924 17.3749 97.4016 19.5702 95.5547 21.3847L95.5466 21.3928ZM62.9259 21.5386C62.9259 26.0668 62.9259 30.6031 62.9259 35.1312C62.9259 36.4111 62.9664 36.4516 64.222 36.4516C69.1795 36.4516 74.1289 36.4516 79.0864 36.4516C82.197 36.4516 85.3076 36.484 88.4101 36.4111C91.067 36.3463 93.3433 34.3617 93.8617 31.8181C94.6069 28.1972 92.2335 24.8922 88.5073 24.4467C87.6648 24.3495 87.3894 24.0255 87.4218 23.2316C87.4623 22.1947 87.4461 21.1579 87.4299 20.121C87.4299 19.4973 87.6729 19.149 88.3291 19.1247C88.6126 19.1166 88.9042 19.0275 89.1877 18.9545C92.2497 18.1688 94.3234 15.2607 93.9427 12.2878C93.5053 8.91803 91.0589 6.70659 87.7053 6.69849C79.8721 6.69039 72.0309 6.69849 64.1977 6.69849C62.9745 6.69849 62.9259 6.74709 62.9259 7.94597C62.9259 12.4741 62.9259 17.0104 62.9259 21.5386Z" fill="#8C8C8C"/>
<path d="M230.963 35.1635V34.0214C230.963 23.596 230.963 13.1788 230.963 2.75343C230.963 1.41685 230.963 1.41685 232.283 1.42495C233.32 1.42495 234.357 1.44115 235.394 1.40875C235.977 1.39255 236.244 1.62746 236.228 2.2026C236.228 2.39701 236.228 2.59142 236.228 2.78583C236.228 15.212 236.228 27.6463 236.228 40.0724C236.228 41.6925 236.22 41.7006 234.616 41.7006C233.19 41.7006 231.765 41.7573 230.347 41.6682C229.796 41.6358 229.108 41.4009 228.743 41.0121C225.155 37.1481 221.631 33.2275 218.083 29.3231C215.118 26.0667 212.145 22.8265 209.18 19.5701C206.126 16.2246 203.081 12.8791 200.027 9.53355C199.946 9.44444 199.84 9.37964 199.541 9.13662C199.541 9.75226 199.541 10.1816 199.541 10.619C199.541 20.4935 199.541 30.368 199.541 40.2344C199.541 41.6925 199.541 41.6925 198.083 41.6925C197.111 41.6925 196.139 41.6844 195.167 41.6925C194.559 41.6925 194.267 41.4252 194.292 40.8096C194.292 40.6152 194.292 40.4207 194.292 40.2263C194.292 27.7678 194.292 15.3011 194.292 2.84254C194.292 1.88128 194.772 1.40605 195.734 1.41685C196.706 1.41685 197.686 1.49785 198.642 1.39255C199.541 1.28724 200.075 1.67606 200.634 2.2836C204.741 6.81178 208.889 11.3076 213.004 15.8276C217.791 21.093 222.562 26.3745 227.35 31.6398C228.451 32.8549 229.585 34.0457 230.703 35.2445C230.792 35.2121 230.873 35.1716 230.963 35.1392V35.1635Z" fill="#8C8C8C"/>
<path d="M131.326 24.487C132.866 26.828 134.283 28.9909 135.709 31.1456C137.774 34.2805 139.848 37.4073 141.906 40.5503C142.084 40.8257 142.132 41.1821 142.246 41.498C141.946 41.571 141.638 41.6925 141.339 41.7006C140.043 41.7249 138.746 41.7735 137.458 41.6763C136.989 41.6439 136.373 41.3441 136.122 40.9715C132.533 35.6252 128.985 30.2546 125.462 24.8677C125.227 24.5113 125.138 24.0253 125.113 23.5878C125.065 22.4862 125.138 21.3845 125.081 20.2909C125.032 19.3756 125.437 19.1326 126.296 19.1326C128.264 19.1326 130.257 19.1812 132.209 18.9625C136.098 18.525 137.588 16.2974 137.467 12.5874C137.353 9.20946 134.712 6.74691 131.294 6.73071C123.331 6.69021 115.368 6.73071 107.406 6.69021C106.361 6.69021 106.28 7.20054 106.28 8.01869C106.296 18.6951 106.288 29.3797 106.288 40.0562C106.288 41.1632 105.737 41.7168 104.635 41.7168C103.76 41.7168 102.886 41.7006 102.011 41.7168C101.306 41.733 100.998 41.4089 101.031 40.7204C101.039 40.526 101.031 40.3316 101.031 40.1372C101.031 27.711 101.031 15.2848 101.031 2.85867C101.031 1.30338 101.047 1.30338 102.618 1.37628C103.161 1.40059 103.712 1.31958 104.263 1.31958C113.003 1.31958 121.744 1.31958 130.484 1.31958C133.141 1.31958 135.628 1.88661 137.783 3.52292C142.959 7.45976 144.311 14.2642 140.699 19.4647C138.836 22.1541 136.081 23.5392 132.938 24.2116C132.469 24.3088 131.999 24.3817 131.335 24.5032L131.326 24.487Z" fill="#8C8C8C"/>
<path d="M259.484 0.436646C268.97 0.469048 277.079 5.76678 280.278 14.4343C282.927 21.6195 281.712 28.3753 276.892 34.3129C272.356 39.8942 266.297 42.4701 259.168 42.4377C249.14 42.3891 240.545 35.8682 238.034 26.2529C236.366 19.8616 237.824 13.9726 241.874 8.79636C245.608 4.02517 250.63 1.42491 256.584 0.590555C257.54 0.452847 258.52 0.485249 259.492 0.436646L259.484 0.436646ZM259.355 37.626C264.426 37.6098 268.735 35.8358 272.275 32.1582C278.342 25.856 277.848 15.2201 271.181 9.59021C266.127 5.32125 260.367 4.23578 254.097 6.06649C245.479 8.59385 240.626 17.3991 243.097 25.9289C245.049 32.6766 251.813 37.6989 259.347 37.626H259.355Z" fill="#8C8C8C"/>
</svg>
