<svg width="286" height="61" viewBox="0 0 286 61" fill="none" xmlns="http://www.w3.org/2000/svg">
<path d="M157.905 12.1651C158.24 12.1651 158.494 12.1651 158.746 12.1651C168.117 12.1651 177.488 12.1595 186.862 12.1651C190.561 12.1651 194.308 14.6426 195.234 17.7948C196.194 21.0604 195.113 23.8587 192.964 26.3169C191.656 27.8129 190.006 28.847 188.076 29.342C187.337 29.5328 186.934 29.8425 186.945 30.7107C187.124 30.7798 187.351 30.8711 187.581 30.9568C189.502 31.6757 191.253 32.6601 192.597 34.2445C195.782 38.0023 195.165 43.4607 191.164 46.7374C188.991 48.5181 186.502 49.461 183.649 49.4527C176.379 49.4306 169.112 49.4444 161.843 49.4444H160.834C159.858 37.0069 158.884 24.6357 157.905 12.1651ZM173.556 16.6169V28.1392C176.022 28.1917 178.298 27.7714 180.234 26.2146C183.173 23.8532 182.924 19.7774 179.717 17.7865C177.831 16.6169 175.746 16.4178 173.556 16.6169ZM172.862 44.5557C174.842 44.7548 177.084 44.152 178.533 43.068C180.79 41.3785 181.5 38.5802 180.317 36.2382C178.904 33.4454 174.958 32.591 172.862 33.1966V44.5529V44.5557Z" fill="#8C8C8C"/>
<path d="M266.356 11.2222C275.666 11.3107 283.431 18.0327 285.095 27.4894C286.757 36.935 281.047 46.4083 271.975 49.2702C261.492 52.5745 250.257 46.071 247.838 35.2981C245.582 25.2579 250.968 15.4169 260.486 12.2287C261.39 11.9245 262.327 11.6867 263.267 11.5319C264.288 11.3604 265.327 11.3217 266.359 11.2249L266.356 11.2222ZM270.327 18.2843C269.273 18.276 268.17 18.8401 267.434 20.112C264.207 25.6865 260.975 31.2555 257.732 36.8189C256.905 38.2346 257.021 39.5978 257.92 40.8974C258.749 42.0975 259.93 42.8275 261.376 43.0736C263.074 43.3612 264.404 42.7418 265.253 41.2818C268.48 35.7377 271.701 30.1909 274.908 24.6358C275.138 24.2404 275.332 23.7952 275.409 23.35C275.843 20.8697 273.479 18.3424 270.324 18.2843H270.327Z" fill="#8C8C8C"/>
<path d="M113.428 49.4416C114.186 47.3623 114.888 45.4239 115.599 43.4856C119.326 33.3182 123.065 23.1536 126.773 12.978C127.005 12.3393 127.307 12.1374 127.992 12.1429C133.368 12.1761 138.74 12.1706 144.116 12.1485C144.752 12.1485 145.05 12.2812 145.23 12.9614C148.413 24.951 151.629 36.9322 154.836 48.9135C154.875 49.06 154.902 49.2094 154.955 49.4389C154.134 49.4389 153.362 49.4389 152.588 49.4389C149.914 49.4389 147.24 49.425 144.566 49.4499C144.074 49.4555 143.828 49.3006 143.648 48.8444C143.12 47.4978 142.537 46.1705 141.998 44.8266C141.843 44.4423 141.641 44.2792 141.196 44.2819C135.173 44.3068 129.148 44.3151 123.126 44.3123C122.697 44.3123 122.481 44.4395 122.335 44.8571C121.859 46.223 121.351 47.5807 120.817 48.9246C120.734 49.1347 120.46 49.4112 120.269 49.414C118.041 49.4472 115.809 49.4361 113.428 49.4361V49.4416ZM138.522 36.8493C136.252 31.4545 134.012 26.1372 131.706 20.6623C129.546 26.1566 127.456 31.4656 125.341 36.8493H138.522Z" fill="#8C8C8C"/>
<path d="M59.3925 40.0346C60.2829 40.7867 61.0793 41.5278 61.9448 42.1748C63.2692 43.1647 64.7375 43.8809 66.4076 44.044C67.0409 44.1049 67.7156 44.0717 68.3294 43.9168C69.8032 43.5435 70.4392 42.2495 69.9387 40.7618C69.3746 39.0945 68.1635 37.9055 66.8197 36.8796C65.4012 35.7984 63.8416 34.8942 62.4176 33.8186C60.9963 32.7457 59.4727 31.7171 58.328 30.3843C55.3914 26.9528 55.126 23.0236 56.8735 18.9672C59.2128 13.5365 65.0472 10.1132 70.9673 10.4976C75.6459 10.799 79.7217 12.6516 83.6426 15.1624C82.8435 16.3541 82.0693 17.5072 81.2453 18.7349C80.4074 18.2067 79.6443 17.6233 78.7981 17.2141C77.4792 16.5781 76.1326 15.9725 74.7417 15.5273C74.1223 15.3283 73.3426 15.4472 72.6789 15.6048C70.3479 16.1661 69.5599 18.215 71.0337 20.1119C71.8135 21.1157 72.8255 21.9922 73.8735 22.725C75.6763 23.9858 77.5926 25.0808 79.4507 26.2643C81.4001 27.5058 83.0537 29.0543 84.3063 31.0093C86.0345 33.7108 86.4299 36.5893 85.3874 39.6198C83.3772 45.4681 79.1272 48.7337 73.1739 49.8646C67.4418 50.9541 62.6167 48.9936 58.4137 45.1777C58.375 45.1418 58.339 45.1058 58.3031 45.0671C56.7325 43.4993 56.7159 43.2864 58.0791 41.6163C58.5049 41.0936 58.9391 40.5821 59.3981 40.0318L59.3925 40.0346Z" fill="#8C8C8C"/>
<path d="M120.692 19.3239H110.575C109.698 29.3834 108.83 39.3766 107.959 49.4029H96.6581C95.8451 39.4125 95.0294 29.4194 94.2082 19.3377H85.2906C85.8409 16.8712 86.3663 14.5181 86.9 12.1318H87.7378C97.7835 12.1318 107.829 12.1374 117.875 12.1152C118.505 12.1152 118.782 12.2784 118.939 12.8978C119.479 14.9965 120.079 17.0814 120.695 19.3211L120.692 19.3239Z" fill="#8C8C8C"/>
<path d="M238.409 41.5278H247.313V49.3779H227.044C226.01 37.0206 224.973 24.655 223.934 12.223H240.975C240.123 21.9618 239.272 31.6867 238.412 41.525L238.409 41.5278Z" fill="#8C8C8C"/>
<path d="M39.1849 30.4757C39.1738 44.4063 29.5208 56.6641 16.1902 59.6753C2.6024 62.7446 -11.096 56.042 -17.0825 43.3888C-25.082 26.4828 -15.9488 6.41084 1.98578 1.48616C17.2935 -2.71683 33.3782 6.38318 37.9323 21.8264C38.7646 24.6496 39.1821 27.5364 39.1849 30.4784V30.4757ZM-16.7645 30.4453C-16.7949 32.8703 -16.452 35.2427 -15.8188 37.5793C-12.0389 51.4989 2.28994 59.9436 16.0381 56.3544C32.0592 52.1736 40.4292 34.427 33.5275 19.2714C28.4258 8.07267 16.1764 1.73225 4.47162 4.23469C-7.99077 6.90026 -16.7617 17.7257 -16.7645 30.4453Z" fill="#8C8C8C"/>
<path d="M203.887 49.4084C202.844 36.9875 201.81 24.6412 200.77 12.2258H217.812C216.722 24.6219 215.636 36.9985 214.543 49.4084H203.887Z" fill="#8C8C8C"/>
<path d="M0.127728 17.5294C0.0641303 17.1699 0.0143585 16.8934 -0.0298834 16.6418C0.75541 16.0334 2.06054 16.8325 2.72141 15.5717C1.77297 15.5025 0.976619 15.4445 0.205151 15.3892C-0.193026 14.2112 0.412536 13.2932 1.60154 13.1992C1.62642 13.1992 1.65407 13.1964 1.67896 13.1936C3.75833 13.0803 6.80549 15.591 6.87738 17.6538C6.94927 19.805 6.74742 21.9618 5.63308 23.8919C4.35006 26.1095 3.06705 28.3299 1.70385 30.4978C1.11764 31.4351 0.265984 32.2038 -0.345107 33.1274C-0.920251 33.9984 -1.39585 34.9524 -1.79679 35.9174C-1.95717 36.3045 -1.88251 36.8465 -1.76638 37.2778C-1.22994 39.266 0.661395 39.7499 2.09926 38.2705C2.45319 37.9055 2.738 37.452 2.98133 37.0013C3.97124 35.1542 4.84226 33.238 5.93724 31.4573C6.51515 30.5171 7.41381 29.7457 8.27377 29.024C8.59452 28.7557 9.21391 28.8138 9.70333 28.7779C10.9393 28.6811 11.8435 28.2829 12.4159 27.0027C12.7394 26.281 13.616 25.7445 14.346 25.2883C14.9322 24.9205 15.5626 25.28 16.0908 26.0349C16.7544 25.7611 17.4042 25.4459 18.0844 25.233C18.5102 25.1003 18.9858 25.0035 19.3425 25.5123C19.4421 25.6533 19.7988 25.6809 20.0255 25.656C21.0956 25.5371 22.163 25.3823 23.3049 25.2274C23.1501 26.751 22.2874 28.2442 23.916 29.5466C23.6036 30.2323 23.2801 31.0397 22.8708 31.8001C22.622 32.2619 22.3759 32.7292 22.7906 33.1246C22.9897 33.3154 23.4515 33.2352 23.7916 33.2767C23.8663 33.285 23.9409 33.2961 24.234 33.332C23.9299 33.9016 23.7474 34.4657 23.3907 34.875C22.5556 35.8289 21.6238 36.6972 20.761 37.629C20.4513 37.9664 20.1693 38.3618 19.9868 38.7793C19.5969 39.678 20.2163 40.6043 21.1343 40.3969C23.2026 39.9324 25.2433 39.3462 27.2922 38.7959C27.7098 38.6853 28.1107 38.5138 28.6029 38.4973C28.2739 38.8484 27.9586 39.2162 27.6102 39.548C26.1945 40.8974 24.9834 42.4127 23.999 44.0966C23.6285 44.7298 23.1943 44.951 22.4478 44.9483C13.5441 44.9179 4.6404 44.8958 -4.26052 44.9676C-5.57395 44.9787 -6.21545 44.3538 -6.72147 43.3971C-8.25335 40.5075 -7.7418 37.7534 -5.33891 35.5192C-2.32217 32.7154 0.238332 29.5327 2.47255 26.0874C3.43204 24.6081 4.19798 23.0485 4.44408 21.2429C4.67635 19.5424 3.88552 18.4861 2.57762 17.651C2.40066 17.5376 2.13797 17.5321 1.91123 17.5266C1.34161 17.51 0.771999 17.5211 0.133257 17.5211L0.127728 17.5294Z" fill="#8C8C8C"/>
</svg>
