<svg width="447" height="312" viewBox="0 0 447 312" fill="none" xmlns="http://www.w3.org/2000/svg">
<path d="M272.573 161.412V263.668H288.651V170.416H352.963V263.668H369.04V59.1567H352.963C347.635 59.1567 339.457 86.9044 339.457 114.786C339.457 135.803 341.911 153.814 345.401 161.412H272.573ZM352.963 161.412H352.806C352.859 161.298 352.91 161.177 352.963 161.058V161.412Z" fill="#3F3D56"/>
<path d="M332.154 8.54395H332.154C318.956 8.54395 308.258 20.417 308.258 35.0632V53.6713H313.981L317.294 46.7768L316.466 53.6713H353.251L356.263 47.4036L355.51 53.6713H359.652V39.0606C359.652 22.2067 347.34 8.54395 332.154 8.54395Z" fill="#2F2E41"/>
<path d="M304.773 130.119L290.101 136.355L239.116 177.803C237.242 180.107 236.093 182.915 235.815 185.872C235.448 190.641 220.043 215.583 225.545 218.884C231.047 222.185 250.854 232.089 251.954 225.486C253.055 218.884 258.923 190.641 258.923 190.641L308.074 146.625L304.773 130.119Z" fill="#2F2E41"/>
<path d="M247.186 219.985L240.95 238.325C240.95 238.325 247.553 245.294 244.251 251.163V271.336H239.116L237.649 260.699C237.649 260.699 231.8 271.202 228.846 271.336C222.653 271.618 210.389 273.821 210.022 270.52C209.656 267.219 219.309 264 219.309 264L229.58 235.757L233.981 218.518L247.186 219.985Z" fill="#2F2E41"/>
<path d="M342.92 125.351C342.92 125.351 346.221 157.629 336.684 163.498C327.148 169.367 284.966 188.073 284.966 188.073C284.966 188.073 302.939 204.946 299.271 208.981C295.603 213.015 279.097 224.019 276.896 221.819C274.696 219.618 250.12 193.208 253.055 184.772C255.989 176.336 296.703 148.826 296.703 148.826L301.472 131.586L302.939 117.648L318.344 107.745L342.92 125.351Z" fill="#2F2E41"/>
<path d="M326.115 50.199C334.56 50.199 341.406 43.3529 341.406 34.9079C341.406 26.4628 334.56 19.6167 326.115 19.6167C317.67 19.6167 310.824 26.4628 310.824 34.9079C310.824 43.3529 317.67 50.199 326.115 50.199Z" fill="#FFB9B9"/>
<path d="M337.968 41.1709C337.968 41.1709 337.235 55.1092 348.605 59.5108C359.976 63.9123 320.362 92.5225 320.362 92.5225V60.6111C320.362 60.6111 325.497 55.1092 320.362 46.6728L337.968 41.1709Z" fill="#FFB9B9"/>
<path d="M362.36 106.644L359.426 120.949L350.623 170.1C350.623 170.1 357.959 191.007 348.055 190.641C338.152 190.274 342.92 167.899 342.92 167.899L348.055 127.185V111.412L362.36 106.644Z" fill="#FFB9B9"/>
<path d="M299.271 99.6753L295.97 112.513L280.931 148.826C280.931 148.826 270.661 166.066 279.097 165.699C287.534 165.332 287.534 148.826 287.534 148.826L304.773 119.482V102.976L299.271 99.6753Z" fill="#FFB9B9"/>
<path d="M296.704 206.78L308.808 218.151C308.808 218.151 317.244 216.317 320.545 226.22C323.847 236.124 326.047 242.359 326.047 242.359L321.646 244.927L316.144 237.224C316.144 237.224 312.843 251.162 309.541 252.263C306.24 253.363 289.734 260.699 291.202 252.263L299.271 240.525C299.271 240.525 300.372 227.32 297.07 226.22C293.769 225.12 284.966 214.116 284.966 214.116L296.704 206.78Z" fill="#2F2E41"/>
<path d="M343.501 136.722C343.501 136.722 309.022 124.25 306.822 125.351C305.184 126.075 303.439 126.527 301.655 126.692L301.687 121.683C301.687 121.683 313.057 117.648 319.293 120.216C325.528 122.783 344.602 134.154 344.602 134.154L343.501 136.722Z" fill="#3F3D56"/>
<path d="M322.563 85.1867C322.563 85.1867 332.466 73.816 335.401 66.8469C337.257 62.6219 340.665 59.2711 344.92 57.4858C344.92 57.4858 366.945 62.4453 366.578 71.2484C366.212 80.0516 352.64 93.6231 352.64 93.6231C352.64 93.6231 354.474 142.407 344.571 141.674C342.434 139.124 340.927 136.109 340.169 132.87C339.069 127.735 304.956 122.233 304.956 122.233C304.956 122.233 302.022 127.368 301.655 125.168C301.288 122.967 304.59 69.0477 304.59 69.0477L322.081 57.4858L322.563 85.1867Z" fill="#D0CDE1"/>
<path d="M363.753 67.705L363.999 67.8429C364.783 68.2828 365.435 68.9235 365.889 69.6993C366.343 70.475 366.583 71.3577 366.583 72.2566L366.579 99.4778C366.582 100.218 366.745 100.948 367.059 101.618C367.372 102.289 367.827 102.883 368.393 103.36C369.806 104.561 371.116 106.293 368.412 107.195C364.011 108.662 346.771 115.998 346.405 113.43C346.038 110.863 345.304 107.928 346.405 107.928C347.266 107.928 352.399 81.6258 356.523 70.3799C356.775 69.6914 357.174 69.0658 357.691 68.5465C358.208 68.0272 358.833 67.6265 359.52 67.3721C360.208 67.1177 360.942 67.0157 361.673 67.0732C362.404 67.1307 363.114 67.3463 363.753 67.705V67.705Z" fill="#D0CDE1"/>
<path d="M309.541 67.7637L304.406 69.2309L298.538 94.5399C298.538 94.5399 291.568 96.0071 293.769 98.5747C295.97 101.142 305.14 107.745 305.14 107.745L309.541 67.7637Z" fill="#D0CDE1"/>
<path d="M338.947 15.8488C337.797 14.3047 336.307 13.0463 334.592 12.1711C332.877 11.296 330.984 10.8278 329.058 10.8027H328.589C319.544 10.8027 312.211 18.9879 312.211 29.0847V29.0848H315.242L315.731 25.359L316.449 29.0848H334.425L335.931 25.9327L335.555 29.0848H339.091C340.741 37.2802 338.37 45.4756 331.978 53.671H338.002L341.014 47.3668L340.261 53.671H351.745L354.004 39.1714C354.004 28.3125 347.695 19.1044 338.947 15.8488Z" fill="#2F2E41"/>
<path d="M31.7419 185.039C35.6007 176.637 38.3145 156.723 38.3145 133.486C38.3145 102.658 29.2727 71.978 23.3819 71.978H5.6051V298.099H23.3819V194.994H94.4892V298.099H112.266V185.039H31.7419ZM23.3819 184.647C23.4395 184.779 23.4967 184.912 23.5548 185.039H23.3819V184.647Z" fill="#3F3D56"/>
<path d="M105.837 143.787C105.837 143.787 127.247 152.664 120.458 157.885C113.67 163.107 99.5714 151.619 100.094 150.053C100.616 148.486 98.0049 144.831 98.0049 144.831L105.837 143.787Z" fill="#9F616A"/>
<path d="M87.0392 73.8154L93.8275 80.0815L95.394 98.3576L100.616 117.678C100.616 117.678 109.493 135.954 107.926 139.609C106.36 143.264 109.493 144.309 109.493 144.309L97.4827 149.008C97.4827 149.008 84.4283 134.388 84.4283 131.254C84.4283 128.121 87.0392 73.8154 87.0392 73.8154Z" fill="#575A88"/>
<path opacity="0.1" d="M87.0392 73.8154L93.8275 80.0815L95.394 98.3576L100.616 117.678C100.616 117.678 109.493 135.954 107.926 139.609C106.36 143.264 109.493 144.309 109.493 144.309L97.4827 149.008C97.4827 149.008 84.4283 134.388 84.4283 131.254C84.4283 128.121 87.0392 73.8154 87.0392 73.8154Z" fill="black"/>
<path d="M151.266 261.798C151.266 261.798 148.656 273.808 148.133 274.853C147.611 275.897 158.055 279.552 158.055 279.552L170.587 270.675C170.587 270.675 165.365 259.187 165.365 257.099L151.266 261.798Z" fill="#575A88"/>
<path d="M82.8619 144.831L86.5171 149.008C86.5171 149.008 162.232 158.408 163.799 173.028C165.365 187.649 176.331 256.576 170.065 258.665C163.799 260.754 147.611 268.586 147.611 264.409C147.611 260.231 137.168 202.792 139.257 192.349C139.257 192.349 48.9206 180.861 46.8319 167.807C44.7432 154.752 48.9206 149.008 48.9206 149.008L82.8619 144.831Z" fill="#2F2E41"/>
<path opacity="0.1" d="M82.8619 144.831L86.5171 149.008C86.5171 149.008 162.232 158.408 163.799 173.028C165.365 187.649 176.331 256.576 170.065 258.665C163.799 260.754 147.611 268.586 147.611 264.409C147.611 260.231 137.168 202.792 139.257 192.349C139.257 192.349 48.9206 180.861 46.8319 167.807C44.7432 154.752 48.9206 149.008 48.9206 149.008L82.8619 144.831Z" fill="black"/>
<path d="M150.222 273.808C150.222 273.808 148.133 269.108 147.089 270.675C146.045 272.241 142.39 290.517 146.045 290.517C149.7 290.517 183.119 298.872 187.819 297.828C192.518 296.784 201.395 298.35 200.351 293.128C199.306 287.907 194.085 287.384 194.085 287.384C194.085 287.384 174.764 275.897 173.72 270.153C172.676 264.409 166.932 267.542 166.932 267.542V271.197C166.932 271.197 155.966 279.552 150.222 273.808Z" fill="#2F2E41"/>
<path d="M51.0092 34.1305C51.0092 34.1305 54.6644 51.8843 46.8318 53.4509C38.9992 55.0174 56.7531 65.4609 56.7531 65.4609L68.2409 71.7269L76.5957 63.3722C76.5957 63.3722 69.0242 47.968 74.7681 36.4802C80.512 24.9924 51.0092 34.1305 51.0092 34.1305Z" fill="#9F616A"/>
<path d="M76.5957 63.3722L68.2409 71.7269L56.7531 65.4609C56.7531 65.4609 38.9992 55.0174 46.8318 53.4509C51.8708 52.4431 52.1527 44.7358 51.7194 39.3679C51.5779 37.6105 51.3408 35.8621 51.0092 34.1305C51.0092 34.1305 80.512 24.9924 74.7681 36.4802C73.8953 38.2542 73.29 40.1476 72.9718 42.0988C71.212 52.4222 76.5957 63.3722 76.5957 63.3722Z" fill="#9F616A"/>
<path d="M105.837 276.941V288.951H125.68L127.246 284.251L125.158 271.719L105.837 276.941Z" fill="#575A88"/>
<path d="M23.8562 155.275C23.8562 155.275 23.8562 186.083 36.3884 187.127C48.9205 188.172 93.8274 193.916 93.8274 193.916C93.8274 193.916 96.4383 245.089 101.138 261.798C105.837 278.508 101.66 279.552 105.837 280.596C110.015 281.641 127.769 277.986 127.247 274.33C126.724 270.675 124.636 178.25 124.636 178.25C124.636 178.25 129.335 158.408 66.6744 149.009L23.8562 155.275Z" fill="#2F2E41"/>
<path d="M107.404 285.296C107.404 285.296 104.271 278.507 103.749 280.596C103.227 282.685 96.9605 300.961 103.227 302.527C109.493 304.094 129.335 312.449 142.39 311.926C155.444 311.404 157.01 310.882 157.01 310.882C157.01 310.882 160.666 305.66 155.966 302.527C151.266 299.394 131.946 281.118 130.902 279.03C129.857 276.941 122.025 275.374 122.025 279.03C122.025 282.685 111.059 289.995 107.404 285.296Z" fill="#2F2E41"/>
<path opacity="0.1" d="M74.7682 36.4802C73.8954 38.2542 73.2901 40.1476 72.9719 42.0988C70.3715 43.6706 68.6326 43.2685 65.369 43.2685C60.5285 43.2685 58.5756 37.0807 55.4478 33.8694C55.2023 30.8878 51.0093 34.1305 51.0093 34.1305C51.0093 34.1305 80.5121 24.9924 74.7682 36.4802Z" fill="black"/>
<path d="M64.0635 43.0074C73.5803 43.0074 81.2952 35.2925 81.2952 25.7757C81.2952 16.2588 73.5803 8.54395 64.0635 8.54395C54.5467 8.54395 46.8318 16.2588 46.8318 25.7757C46.8318 35.2925 54.5467 43.0074 64.0635 43.0074Z" fill="#9F616A"/>
<path d="M93.8274 80.0818C93.8274 80.0818 91.2166 98.88 89.65 105.668C88.0835 112.457 85.9948 143.787 84.9505 147.964C83.9061 152.142 77.6401 153.186 65.1079 151.62C64.3212 151.521 63.5299 151.461 62.7372 151.442C55.0195 151.197 46.1896 154.084 38.0176 156.35C33.318 157.656 28.8325 158.752 24.9006 158.93C18.9478 159.202 17.2037 152.601 17.4074 145.458C17.6006 138.811 19.4856 131.683 21.2454 129.166C24.415 124.634 21.2976 83.9407 22.4673 70.5208V70.5156C22.6448 68.4687 22.9215 67.0588 23.334 66.5053C26.4671 62.3279 46.8318 51.8844 49.1137 52.3074C51.3904 52.7304 70.8518 64.9388 70.8518 64.9388C75.5514 64.9388 75.3999 59.8424 75.3999 59.8424C75.3999 59.8424 78.6844 65.9831 84.9505 67.5496C91.2166 69.1162 93.8274 80.0818 93.8274 80.0818Z" fill="#575A88"/>
<path d="M58.9216 147.777C58.9216 147.777 92.5579 148.848 86.6655 152.845C80.7731 156.841 54.6644 160.496 54.1423 155.274C53.6201 150.053 58.9216 147.777 58.9216 147.777Z" fill="#9F616A"/>
<path opacity="0.1" d="M62.7372 151.442C62.8469 153.447 57.4529 157.964 55.7088 161.019C54.7427 162.711 47.2653 160.481 38.0175 156.351C30.921 153.165 24.0368 149.527 17.4073 145.458C17.6006 138.811 19.4856 131.683 21.2453 129.166C24.415 124.634 21.2975 83.9408 22.4673 70.5209V70.5157C22.7461 70.3741 23.036 70.2554 23.334 70.1606H29.6001C51.0092 80.0819 26.4671 122.9 26.4671 122.9C26.4671 122.9 58.8418 149.531 61.9748 150.575C62.1803 150.614 62.3669 150.721 62.505 150.878C62.6431 151.035 62.7248 151.233 62.7372 151.442V151.442Z" fill="black"/>
<path d="M29.6001 67.0273H23.334C23.334 67.0273 17.5901 68.5939 12.8906 79.0373C8.191 89.4808 -9.04072 121.856 6.10231 134.388C21.2453 146.92 53.6201 161.541 55.7088 157.886C57.7975 154.23 65.1079 148.486 61.9748 147.442C58.8418 146.398 26.4671 119.767 26.4671 119.767C26.4671 119.767 51.0092 76.9486 29.6001 67.0273Z" fill="#575A88"/>
<path d="M61.4126 17.7571C61.4126 17.7571 62.1688 7.28884 71.4978 11.5572C80.8268 15.8256 80.218 4.06054 77.3989 1.98152C74.5797 -0.0974924 74.669 -0.611983 64.3582 0.779019C54.0473 2.17002 34.0295 4.52678 40.5021 25.2588C46.9748 45.9907 52.8369 40.6574 52.8369 40.6574C52.8369 40.6574 47.6919 22.0014 52.905 25.5556L58.1181 29.1099L60.869 28.5273L61.4126 17.7571Z" fill="#2F2E41"/>
<path d="M446.348 168.495C446.348 159.07 376.309 151.429 289.912 151.429C203.514 151.429 133.475 159.07 133.475 168.495C133.475 172.148 144.002 175.532 161.918 178.308V295.066H170.451V179.512C199.147 183.211 242.011 185.561 289.912 185.561C338.208 185.561 381.387 183.173 410.083 179.42V295.066H418.616V178.196C436.097 175.441 446.348 172.099 446.348 168.495Z" fill="#3F3D56"/>
<path d="M309.51 168.851C327.102 168.851 341.363 165.344 341.363 161.019C341.363 156.693 327.102 153.186 309.51 153.186C291.918 153.186 277.657 156.693 277.657 161.019C277.657 165.344 291.918 168.851 309.51 168.851Z" fill="#F2F2F2"/>
<path d="M309.51 167.438C323.929 167.438 335.619 164.564 335.619 161.018C335.619 157.473 323.929 154.598 309.51 154.598C295.091 154.598 283.401 157.473 283.401 161.018C283.401 164.564 295.091 167.438 309.51 167.438Z" fill="#D0CDE1"/>
<path d="M190.977 175.117C208.568 175.117 222.829 171.611 222.829 167.285C222.829 162.959 208.568 159.452 190.977 159.452C173.385 159.452 159.124 162.959 159.124 167.285C159.124 171.611 173.385 175.117 190.977 175.117Z" fill="#F2F2F2"/>
<path d="M190.977 173.705C205.396 173.705 217.085 170.83 217.085 167.284C217.085 163.739 205.396 160.864 190.977 160.864C176.557 160.864 164.868 163.739 164.868 167.284C164.868 170.83 176.557 173.705 190.977 173.705Z" fill="#D0CDE1"/>
<path d="M308.769 160.465C317.155 160.465 323.954 159.392 323.954 158.068C323.954 156.743 317.155 155.67 308.769 155.67C300.382 155.67 293.584 156.743 293.584 158.068C293.584 159.392 300.382 160.465 308.769 160.465Z" fill="#9F616A"/>
<path d="M300.677 157.169C303.325 157.169 305.472 156.006 305.472 154.571C305.472 153.137 303.325 151.974 300.677 151.974C298.028 151.974 295.881 153.137 295.881 154.571C295.881 156.006 298.028 157.169 300.677 157.169Z" fill="#469834"/>
<path d="M298.879 157.169C301.527 157.169 303.674 156.006 303.674 154.571C303.674 153.137 301.527 151.974 298.879 151.974C296.23 151.974 294.083 153.137 294.083 154.571C294.083 156.006 296.23 157.169 298.879 157.169Z" fill="#469834"/>
<path d="M319.858 157.768C322.506 157.768 324.653 156.605 324.653 155.171C324.653 153.736 322.506 152.573 319.858 152.573C317.209 152.573 315.062 153.736 315.062 155.171C315.062 156.605 317.209 157.768 319.858 157.768Z" fill="#469834"/>
<path d="M308.869 157.169C311.517 157.169 313.664 156.006 313.664 154.571C313.664 153.137 311.517 151.974 308.869 151.974C306.22 151.974 304.073 153.137 304.073 154.571C304.073 156.006 306.22 157.169 308.869 157.169Z" fill="#469834"/>
<path d="M317.061 157.169C319.709 157.169 321.856 156.006 321.856 154.571C321.856 153.137 319.709 151.974 317.061 151.974C314.412 151.974 312.265 153.137 312.265 154.571C312.265 156.006 314.412 157.169 317.061 157.169Z" fill="#469834"/>
<path d="M323.254 152.973C314.588 155.914 304.864 155.914 294.083 152.973V152.568C294.081 149.51 295.255 146.569 297.361 144.353C299.467 142.136 302.345 140.814 305.398 140.66C307.969 140.531 310.544 140.534 313.113 140.67C315.861 140.83 318.442 142.036 320.328 144.04C322.214 146.044 323.261 148.694 323.254 151.446V152.973Z" fill="#3F3D56"/>
<path d="M319 163.984C312.595 164.63 306.141 164.63 299.737 163.984C298.217 163.835 296.808 163.126 295.781 161.996C294.755 160.866 294.185 159.395 294.183 157.868H324.553C324.551 159.395 323.981 160.866 322.955 161.996C321.929 163.126 320.519 163.835 319 163.984V163.984Z" fill="#3F3D56"/>
<path d="M304.673 144.381C303.976 144.672 303.229 144.821 302.475 144.821C301.72 144.821 300.974 144.672 300.277 144.381C300.974 144.091 301.72 143.942 302.475 143.942C303.229 143.942 303.976 144.091 304.673 144.381V144.381Z" fill="#D0CDE1"/>
<path d="M309.068 146.179C308.372 146.469 307.625 146.619 306.871 146.619C306.116 146.619 305.369 146.469 304.673 146.179C305.369 145.889 306.116 145.74 306.871 145.74C307.625 145.74 308.372 145.889 309.068 146.179V146.179Z" fill="#D0CDE1"/>
<path d="M309.468 142.983C308.772 143.273 308.025 143.422 307.27 143.422C306.516 143.422 305.769 143.273 305.072 142.983C305.769 142.692 306.516 142.543 307.27 142.543C308.025 142.543 308.772 142.692 309.468 142.983V142.983Z" fill="#D0CDE1"/>
<path d="M317.66 142.983C316.964 143.273 316.217 143.422 315.462 143.422C314.708 143.422 313.961 143.273 313.264 142.983C313.961 142.692 314.708 142.543 315.462 142.543C316.217 142.543 316.964 142.692 317.66 142.983V142.983Z" fill="#D0CDE1"/>
<path d="M315.462 144.781C314.766 145.071 314.019 145.22 313.264 145.22C312.51 145.22 311.763 145.071 311.066 144.781C311.763 144.491 312.51 144.341 313.264 144.341C314.019 144.341 314.766 144.491 315.462 144.781V144.781Z" fill="#D0CDE1"/>
<path d="M190.758 166.731C199.144 166.731 205.943 165.658 205.943 164.334C205.943 163.009 199.144 161.936 190.758 161.936C182.371 161.936 175.573 163.009 175.573 164.334C175.573 165.658 182.371 166.731 190.758 166.731Z" fill="#9F616A"/>
<path d="M182.666 163.435C185.314 163.435 187.461 162.272 187.461 160.837C187.461 159.403 185.314 158.24 182.666 158.24C180.017 158.24 177.87 159.403 177.87 160.837C177.87 162.272 180.017 163.435 182.666 163.435Z" fill="#469834"/>
<path d="M180.867 163.435C183.516 163.435 185.663 162.272 185.663 160.837C185.663 159.403 183.516 158.24 180.867 158.24C178.219 158.24 176.072 159.403 176.072 160.837C176.072 162.272 178.219 163.435 180.867 163.435Z" fill="#469834"/>
<path d="M201.847 164.034C204.495 164.034 206.642 162.871 206.642 161.437C206.642 160.002 204.495 158.839 201.847 158.839C199.198 158.839 197.051 160.002 197.051 161.437C197.051 162.871 199.198 164.034 201.847 164.034Z" fill="#469834"/>
<path d="M190.858 163.435C193.506 163.435 195.653 162.272 195.653 160.837C195.653 159.403 193.506 158.24 190.858 158.24C188.209 158.24 186.062 159.403 186.062 160.837C186.062 162.272 188.209 163.435 190.858 163.435Z" fill="#469834"/>
<path d="M199.049 163.435C201.698 163.435 203.845 162.272 203.845 160.837C203.845 159.403 201.698 158.24 199.049 158.24C196.401 158.24 194.254 159.403 194.254 160.837C194.254 162.272 196.401 163.435 199.049 163.435Z" fill="#469834"/>
<path d="M205.243 159.239C196.577 162.18 186.853 162.18 176.072 159.239V158.834C176.07 155.776 177.244 152.835 179.35 150.619C181.456 148.402 184.334 147.08 187.387 146.926C189.957 146.797 192.532 146.8 195.102 146.936C197.849 147.096 200.431 148.302 202.317 150.306C204.203 152.31 205.25 154.96 205.243 157.712V159.239Z" fill="#3F3D56"/>
<path d="M200.989 170.249C194.584 170.896 188.13 170.896 181.725 170.249C180.206 170.1 178.797 169.392 177.77 168.262C176.744 167.132 176.174 165.66 176.172 164.134H206.542C206.54 165.66 205.97 167.132 204.944 168.262C203.917 169.392 202.508 170.1 200.989 170.249V170.249Z" fill="#3F3D56"/>
<path d="M186.662 150.648C185.965 150.938 185.218 151.087 184.464 151.087C183.709 151.087 182.962 150.938 182.266 150.648C182.962 150.357 183.709 150.208 184.464 150.208C185.218 150.208 185.965 150.357 186.662 150.648Z" fill="#D0CDE1"/>
<path d="M191.057 152.445C190.361 152.736 189.614 152.885 188.859 152.885C188.105 152.885 187.358 152.736 186.662 152.445C187.358 152.155 188.105 152.006 188.859 152.006C189.614 152.006 190.361 152.155 191.057 152.445Z" fill="#D0CDE1"/>
<path d="M191.457 149.249C190.76 149.539 190.013 149.688 189.259 149.688C188.505 149.688 187.758 149.539 187.061 149.249C187.758 148.958 188.505 148.809 189.259 148.809C190.013 148.809 190.76 148.958 191.457 149.249V149.249Z" fill="#D0CDE1"/>
<path d="M199.649 149.249C198.952 149.539 198.205 149.688 197.451 149.688C196.696 149.688 195.949 149.539 195.253 149.249C195.949 148.958 196.696 148.809 197.451 148.809C198.205 148.809 198.952 148.958 199.649 149.249Z" fill="#D0CDE1"/>
<path d="M197.451 151.047C196.755 151.337 196.008 151.487 195.253 151.487C194.499 151.487 193.752 151.337 193.055 151.047C193.752 150.757 194.499 150.607 195.253 150.607C196.008 150.607 196.755 150.757 197.451 151.047V151.047Z" fill="#D0CDE1"/>
<path d="M336.912 158.896L336.985 160.513L337.079 162.611C337.079 162.611 327.444 163.156 325.503 165.207C325.458 165.251 325.417 165.298 325.379 165.349L321.52 164.504L321.51 162.603C321.51 162.603 321.564 162.573 321.667 162.518C321.691 162.505 321.72 162.49 321.75 162.474C326.472 160.162 331.654 158.939 336.912 158.896Z" fill="#469834"/>
<path opacity="0.1" d="M336.912 158.896L336.985 160.513C332.713 160.646 324.627 163.192 324.627 163.192L321.667 162.518C326.41 160.175 331.622 158.937 336.912 158.896V158.896Z" fill="black"/>
<path opacity="0.1" d="M321.75 162.474L324.627 163.192L325.503 165.207C325.458 165.251 325.417 165.299 325.379 165.349L321.52 164.504L321.51 162.603C321.51 162.603 321.564 162.574 321.667 162.518C321.691 162.506 321.72 162.49 321.75 162.474Z" fill="white"/>
<path d="M220.467 165.685L220.541 167.302L220.634 169.4C220.634 169.4 210.999 169.944 209.059 171.995C209.014 172.039 208.972 172.087 208.935 172.138L205.075 171.293L205.066 169.392C205.066 169.392 205.119 169.362 205.223 169.306C205.246 169.294 205.276 169.278 205.305 169.263C210.028 166.95 215.209 165.727 220.467 165.685Z" fill="#469834"/>
<path opacity="0.1" d="M220.468 165.685L220.541 167.302C216.268 167.434 208.183 169.981 208.183 169.981L205.223 169.306C209.966 166.963 215.178 165.725 220.468 165.685Z" fill="black"/>
<path opacity="0.1" d="M205.305 169.262L208.182 169.981L209.059 171.995C209.014 172.039 208.972 172.087 208.935 172.137L205.075 171.293L205.066 169.391C205.066 169.391 205.119 169.362 205.223 169.306C205.246 169.294 205.276 169.278 205.305 169.262Z" fill="white"/>
<path d="M394.94 110.449C394.118 109.628 393.155 108.962 392.096 108.484V88.1939C392.096 87.956 392.001 87.7278 391.833 87.5596C391.665 87.3914 391.437 87.2969 391.199 87.2969H386.176C385.938 87.2969 385.71 87.3914 385.542 87.5596C385.373 87.7278 385.279 87.956 385.279 88.1939V108.094C383.463 108.697 381.883 109.855 380.763 111.406C379.643 112.957 379.04 114.821 379.04 116.734V160.258C379.04 160.782 379.143 161.301 379.343 161.785C379.544 162.269 379.838 162.708 380.208 163.079C380.578 163.449 381.018 163.743 381.502 163.943C381.986 164.144 382.504 164.247 383.028 164.247H393.787C394.84 164.247 395.85 163.829 396.594 163.084C397.339 162.34 397.757 161.33 397.757 160.277V117.247C397.759 115.984 397.511 114.734 397.027 113.567C396.544 112.4 395.835 111.341 394.94 110.449Z" fill="#3F3D56"/>
<path d="M397.757 123.114H379.04V147.84H397.757V123.114Z" fill="#469834"/>
<path d="M392.5 88.6834H392.096V88.1939C392.096 87.956 392.001 87.7278 391.833 87.5596C391.665 87.3914 391.437 87.2969 391.199 87.2969H386.176C385.938 87.2969 385.71 87.3914 385.542 87.5596C385.373 87.7278 385.279 87.956 385.279 88.1939V88.6834H384.875V90.7631H385.279V101.393H392.096V90.7631H392.5V88.6834Z" fill="#469834"/>
<path d="M245.071 128.059C244.575 127.002 244.184 126.254 244.047 125.997C235.646 128.07 230.04 126.318 229.156 126.008C228.724 126.825 226.025 132.043 224.934 137.046C223.949 141.559 224.521 144.584 226.634 146.038L226.697 146.083L226.71 146.092C229.043 147.629 231.269 148.991 233.324 150.138C233.601 150.292 233.862 150.436 234.108 150.568L234.134 150.582L234.152 150.606C234.435 150.961 234.697 151.332 234.939 151.716C235.393 152.351 235.669 153.096 235.737 153.874V176.288L235.596 176.291C230.237 176.4 226.919 177.309 226.919 178.087C226.919 178.942 230.897 179.894 236.605 179.894C242.312 179.894 246.29 178.942 246.29 178.087C246.29 177.32 243.029 176.417 237.761 176.295L237.619 176.292L237.751 155.559C237.754 154.155 238.081 152.771 238.705 151.513C238.811 151.302 238.925 151.096 239.045 150.903C239.14 150.747 239.241 150.595 239.346 150.451L239.365 150.425L239.393 150.409C239.657 150.265 239.937 150.109 240.234 149.941L240.269 149.922C242.214 148.823 244.31 147.535 246.5 146.092C248.454 144.803 249.135 142.199 248.522 138.351C247.939 134.682 246.323 130.729 245.071 128.059Z" fill="#D0CDE1"/>
<path d="M245.573 145.622C243.277 147.135 241.382 148.27 239.933 149.087H239.932C237.818 148.943 235.695 149.002 233.592 149.265C232.106 148.436 230.102 147.247 227.637 145.622C227.613 145.606 227.59 145.591 227.566 145.574V145.573C225.305 144.017 225.249 140.722 225.985 137.353C227.856 137.145 230.84 137.236 234.85 138.669C239.598 140.365 244.568 139.405 247.448 138.533C247.921 141.506 247.633 144.264 245.573 145.622Z" fill="#469834"/>
<path d="M231.926 136.134C232.285 136.134 232.576 135.843 232.576 135.484C232.576 135.125 232.285 134.834 231.926 134.834C231.567 134.834 231.276 135.125 231.276 135.484C231.276 135.843 231.567 136.134 231.926 136.134Z" fill="#469834"/>
<path d="M230.106 142.113C230.465 142.113 230.756 141.822 230.756 141.463C230.756 141.104 230.465 140.813 230.106 140.813C229.747 140.813 229.456 141.104 229.456 141.463C229.456 141.822 229.747 142.113 230.106 142.113Z" fill="white"/>
<path d="M233.485 137.434C233.701 137.434 233.875 137.26 233.875 137.044C233.875 136.829 233.701 136.654 233.485 136.654C233.27 136.654 233.095 136.829 233.095 137.044C233.095 137.26 233.27 137.434 233.485 137.434Z" fill="#469834"/>
<path d="M235.045 144.842C235.26 144.842 235.435 144.668 235.435 144.452C235.435 144.237 235.26 144.062 235.045 144.062C234.83 144.062 234.655 144.237 234.655 144.452C234.655 144.668 234.83 144.842 235.045 144.842Z" fill="white"/>
<path d="M232.316 145.232C232.531 145.232 232.705 145.057 232.705 144.842C232.705 144.627 232.531 144.452 232.316 144.452C232.1 144.452 231.926 144.627 231.926 144.842C231.926 145.057 232.1 145.232 232.316 145.232Z" fill="white"/>
<path d="M240.244 132.235C240.459 132.235 240.634 132.06 240.634 131.845C240.634 131.63 240.459 131.455 240.244 131.455C240.029 131.455 239.854 131.63 239.854 131.845C239.854 132.06 240.029 132.235 240.244 132.235Z" fill="#469834"/>
<path d="M275.554 106.93C275.059 105.872 274.668 105.125 274.531 104.867C266.129 106.941 260.524 105.188 259.64 104.879C259.207 105.695 256.509 110.913 255.418 115.916C254.432 120.429 255.004 123.455 257.118 124.908L257.18 124.953L257.194 124.962C259.527 126.499 261.753 127.861 263.808 129.008C264.085 129.162 264.346 129.306 264.591 129.438L264.618 129.452L264.636 129.476C264.918 129.831 265.181 130.202 265.423 130.586C265.877 131.221 266.153 131.966 266.221 132.744V155.158L266.08 155.161C260.72 155.27 257.403 156.179 257.403 156.958C257.403 157.812 261.381 158.765 267.088 158.765C272.796 158.765 276.774 157.812 276.774 156.958C276.774 156.19 273.513 155.287 268.245 155.165L268.102 155.162L268.235 134.429C268.238 133.025 268.564 131.641 269.188 130.383C269.295 130.172 269.409 129.967 269.528 129.773C269.624 129.617 269.725 129.465 269.829 129.321L269.848 129.295L269.877 129.279C270.141 129.135 270.421 128.979 270.718 128.811L270.753 128.792C272.698 127.693 274.794 126.405 276.983 124.962C278.938 123.673 279.619 121.069 279.006 117.221C278.423 113.552 276.807 109.6 275.554 106.93Z" fill="#D0CDE1"/>
<path d="M276.056 124.492C273.761 126.005 271.866 127.14 270.417 127.957H270.416C268.302 127.813 266.178 127.872 264.076 128.135C262.59 127.306 260.586 126.117 258.12 124.492C258.097 124.477 258.074 124.461 258.05 124.444V124.443C255.789 122.887 255.733 119.592 256.468 116.223C258.34 116.015 261.324 116.106 265.334 117.539C270.082 119.235 275.052 118.276 277.932 117.403C278.405 120.376 278.117 123.134 276.056 124.492Z" fill="#469834"/>
<path d="M262.409 115.004C262.768 115.004 263.059 114.713 263.059 114.354C263.059 113.995 262.768 113.704 262.409 113.704C262.05 113.704 261.76 113.995 261.76 114.354C261.76 114.713 262.05 115.004 262.409 115.004Z" fill="#469834"/>
<path d="M260.59 120.983C260.949 120.983 261.24 120.692 261.24 120.333C261.24 119.974 260.949 119.683 260.59 119.683C260.231 119.683 259.94 119.974 259.94 120.333C259.94 120.692 260.231 120.983 260.59 120.983Z" fill="white"/>
<path d="M263.969 116.304C264.184 116.304 264.359 116.129 264.359 115.914C264.359 115.699 264.184 115.524 263.969 115.524C263.754 115.524 263.579 115.699 263.579 115.914C263.579 116.129 263.754 116.304 263.969 116.304Z" fill="#469834"/>
<path d="M265.529 123.712C265.744 123.712 265.919 123.537 265.919 123.322C265.919 123.107 265.744 122.932 265.529 122.932C265.313 122.932 265.139 123.107 265.139 123.322C265.139 123.537 265.313 123.712 265.529 123.712Z" fill="white"/>
<path d="M262.799 124.102C263.015 124.102 263.189 123.928 263.189 123.712C263.189 123.497 263.015 123.322 262.799 123.322C262.584 123.322 262.409 123.497 262.409 123.712C262.409 123.928 262.584 124.102 262.799 124.102Z" fill="white"/>
<path d="M270.728 111.105C270.943 111.105 271.117 110.93 271.117 110.715C271.117 110.5 270.943 110.325 270.728 110.325C270.512 110.325 270.338 110.5 270.338 110.715C270.338 110.93 270.512 111.105 270.728 111.105Z" fill="#469834"/>
</svg>
