<svg width="741" height="312" viewBox="0 0 741 312" fill="none" xmlns="http://www.w3.org/2000/svg">
<path d="M121.007 58H109.007C107.814 57.9987 106.67 57.5241 105.826 56.6805C104.983 55.8369 104.508 54.6931 104.507 53.5V4.5C104.508 3.30694 104.983 2.16311 105.826 1.31949C106.67 0.475866 107.814 0.00134456 109.007 0H121.007C122.2 0.00134456 123.344 0.475866 124.187 1.31949C125.031 2.16311 125.506 3.30694 125.507 4.5V53.5C125.506 54.6931 125.031 55.8369 124.187 56.6805C123.344 57.5241 122.2 57.9987 121.007 58V58Z" fill="#F2F2F2"/>
<path d="M125.007 9.5H105.007V13.5H125.007V9.5Z" fill="#CCCCCC"/>
<path d="M125.007 40.5H105.007V44.5H125.007V40.5Z" fill="#CCCCCC"/>
<path d="M151.007 58H139.007C137.814 57.9987 136.67 57.5241 135.826 56.6805C134.983 55.8369 134.508 54.6931 134.507 53.5V4.5C134.508 3.30694 134.983 2.16311 135.826 1.31949C136.67 0.475866 137.814 0.00134456 139.007 0H151.007C152.2 0.00134456 153.344 0.475866 154.187 1.31949C155.031 2.16311 155.506 3.30694 155.507 4.5V53.5C155.506 54.6931 155.031 55.8369 154.187 56.6805C153.344 57.5241 152.2 57.9987 151.007 58V58Z" fill="#F2F2F2"/>
<path d="M155.007 9.5H135.007V13.5H155.007V9.5Z" fill="#CCCCCC"/>
<path d="M155.007 40.5H135.007V44.5H155.007V40.5Z" fill="#CCCCCC"/>
<path d="M181.007 58H169.007C167.814 57.9987 166.67 57.5241 165.826 56.6805C164.983 55.8369 164.508 54.6931 164.507 53.5V4.5C164.508 3.30694 164.983 2.16311 165.826 1.31949C166.67 0.475866 167.814 0.00134456 169.007 0H181.007C182.2 0.00134456 183.344 0.475866 184.187 1.31949C185.031 2.16311 185.506 3.30694 185.507 4.5V53.5C185.506 54.6931 185.031 55.8369 184.187 56.6805C183.344 57.5241 182.2 57.9987 181.007 58V58Z" fill="#F2F2F2"/>
<path d="M185.007 9.5H165.007V13.5H185.007V9.5Z" fill="#CCCCCC"/>
<path d="M185.007 40.5H165.007V44.5H185.007V40.5Z" fill="#CCCCCC"/>
<path d="M348.948 59.5H63.9479C63.6827 59.5 63.4284 59.3946 63.2408 59.2071C63.0533 59.0196 62.9479 58.7652 62.9479 58.5C62.9479 58.2348 63.0533 57.9804 63.2408 57.7929C63.4284 57.6053 63.6827 57.5 63.9479 57.5H348.948C349.213 57.5 349.467 57.6053 349.655 57.7929C349.843 57.9804 349.948 58.2348 349.948 58.5C349.948 58.7652 349.843 59.0196 349.655 59.2071C349.467 59.3946 349.213 59.5 348.948 59.5Z" fill="#CCCCCC"/>
<path d="M332.07 216.482C332.07 208.75 302.968 202.482 267.07 202.482C231.172 202.482 202.07 208.75 202.07 216.482C202.07 221.438 214.034 225.789 232.07 228.277V304.982C232.07 306.706 232.755 308.36 233.974 309.579C235.193 310.798 236.846 311.482 238.57 311.482C240.294 311.482 241.947 310.798 243.166 309.579C244.385 308.36 245.07 306.706 245.07 304.982V229.658C251.942 230.191 259.347 230.482 267.07 230.482C274.793 230.482 282.198 230.191 289.07 229.658V304.982C289.07 306.706 289.755 308.36 290.974 309.579C292.193 310.798 293.846 311.482 295.57 311.482C297.294 311.482 298.947 310.798 300.166 309.579C301.385 308.36 302.07 306.706 302.07 304.982V228.277C320.106 225.789 332.07 221.438 332.07 216.482Z" fill="#CCCCCC"/>
<path d="M319.563 298.906H331.823L337.655 251.618H319.561L319.563 298.906Z" fill="#A0616A"/>
<path d="M355.467 310.289L316.936 310.29L316.936 295.403L340.58 295.402C344.528 295.402 348.314 296.97 351.106 299.762C353.898 302.554 355.467 306.34 355.467 310.289V310.289L355.467 310.289Z" fill="#2F2E41"/>
<path d="M338.701 292.064L350.398 288.393L341.806 241.528L324.542 246.945L338.701 292.064Z" fill="#A0616A"/>
<path d="M376.366 292.175L339.603 303.712L335.145 289.508L357.704 282.429C361.472 281.247 365.554 281.609 369.054 283.437C372.553 285.265 375.184 288.408 376.366 292.175V292.175Z" fill="#2F2E41"/>
<path d="M330.499 270.299L308.072 211.428C303.04 212.609 260.845 221.946 246.713 206.899C241.869 201.742 240.925 194.27 243.905 184.691L252.153 174.327L252.409 174.341C255.527 174.505 328.844 178.614 333.87 200.729C338.108 219.374 345.847 254.135 348.118 264.345C348.348 265.403 348.19 266.508 347.674 267.459C347.157 268.411 346.316 269.145 345.303 269.528L336.284 272.91C335.782 273.099 335.249 273.196 334.712 273.196C333.799 273.196 332.908 272.919 332.156 272.402C331.403 271.885 330.826 271.151 330.499 270.299Z" fill="#2F2E41"/>
<path d="M317.499 277.299L295.072 218.428C290.04 219.609 247.845 228.945 233.713 213.899C228.869 208.742 227.925 201.27 230.905 191.691L239.153 181.327L239.409 181.341C242.527 181.505 315.844 185.614 320.87 207.729C325.108 226.374 332.847 261.135 335.118 271.345C335.348 272.403 335.19 273.508 334.674 274.459C334.157 275.411 333.316 276.145 332.303 276.528L323.284 279.91C322.782 280.099 322.249 280.196 321.712 280.196C320.799 280.196 319.908 279.919 319.156 279.402C318.403 278.885 317.826 278.151 317.499 277.299Z" fill="#2F2E41"/>
<path d="M347.807 136.176C347.476 136.619 347.18 137.088 346.922 137.578L297.602 142.774L290.502 133.04L274.411 141.834L288.356 165.456L348.843 150.033C350.369 151.521 352.312 152.509 354.413 152.865C356.515 153.222 358.675 152.931 360.606 152.03C362.538 151.129 364.149 149.662 365.227 147.823C366.304 145.984 366.796 143.86 366.637 141.735C366.478 139.61 365.676 137.583 364.337 135.925C362.998 134.266 361.186 133.055 359.142 132.451C357.098 131.848 354.918 131.881 352.894 132.546C350.869 133.212 349.095 134.478 347.807 136.176V136.176Z" fill="#A0616A"/>
<path d="M230.588 194.8C229.913 194.313 229.386 193.65 229.065 192.882C228.744 192.114 228.642 191.273 228.769 190.451C231.552 172.108 228.35 145.832 225.175 127.018C224.524 123.201 224.777 119.285 225.913 115.583C227.049 111.881 229.036 108.497 231.715 105.701C234.394 102.905 237.69 100.775 241.34 99.4826C244.99 98.1899 248.892 97.77 252.734 98.2566C256.076 98.6981 259.387 99.3508 262.647 100.211C268.061 101.574 272.851 104.74 276.228 109.186C279.605 113.633 281.369 119.096 281.229 124.678C280.754 142.833 284.44 165.484 286.047 174.38C286.157 174.991 286.139 175.618 285.996 176.222C285.852 176.826 285.586 177.394 285.213 177.89C284.848 178.382 284.384 178.791 283.851 179.093C283.318 179.394 282.727 179.581 282.118 179.64C264.31 181.458 245.106 190.142 235.243 195.157C234.61 195.484 233.907 195.656 233.194 195.658C232.256 195.655 231.344 195.354 230.588 194.8V194.8Z" fill="#54B13F"/>
<path d="M278.659 147.488C278.108 147.272 277.606 146.949 277.182 146.537C276.757 146.126 276.418 145.634 276.185 145.091L266.254 122.148C265.652 120.762 265.33 119.271 265.305 117.76C265.28 116.249 265.554 114.749 266.109 113.343C266.665 111.938 267.492 110.656 268.543 109.571C269.594 108.486 270.849 107.618 272.236 107.018C273.622 106.418 275.114 106.097 276.624 106.073C278.135 106.05 279.636 106.324 281.04 106.881C282.445 107.437 283.726 108.266 284.811 109.318C285.895 110.37 286.762 111.625 287.361 113.012L297.292 135.955C297.765 137.05 297.784 138.288 297.345 139.397C296.906 140.507 296.045 141.396 294.95 141.872L282.103 147.433C281.561 147.67 280.977 147.796 280.386 147.806C279.795 147.815 279.208 147.707 278.659 147.488H278.659Z" fill="#54B13F"/>
<path d="M300.807 134.176C300.476 134.619 300.18 135.088 299.922 135.578L250.602 140.774L243.502 131.04L227.411 139.834L241.356 163.456L301.843 148.033C303.369 149.521 305.312 150.509 307.413 150.865C309.515 151.222 311.675 150.931 313.606 150.03C315.538 149.129 317.149 147.662 318.227 145.823C319.304 143.984 319.796 141.86 319.637 139.735C319.478 137.61 318.676 135.583 317.337 133.925C315.998 132.266 314.186 131.055 312.142 130.451C310.098 129.848 307.918 129.881 305.894 130.546C303.869 131.212 302.095 132.478 300.807 134.176V134.176Z" fill="#A0616A"/>
<path d="M231.659 148.488C231.108 148.272 230.606 147.949 230.182 147.537C229.757 147.126 229.418 146.634 229.185 146.091L219.254 123.148C218.652 121.762 218.33 120.271 218.305 118.76C218.28 117.249 218.554 115.749 219.109 114.343C219.665 112.938 220.492 111.656 221.543 110.571C222.594 109.486 223.849 108.618 225.236 108.018C226.622 107.418 228.114 107.097 229.624 107.073C231.135 107.05 232.636 107.324 234.04 107.881C235.445 108.437 236.726 109.266 237.811 110.318C238.895 111.37 239.762 112.625 240.361 114.012L250.293 136.955C250.765 138.05 250.784 139.288 250.345 140.397C249.906 141.507 249.045 142.396 247.95 142.872L235.103 148.433C234.561 148.67 233.977 148.796 233.386 148.806C232.795 148.815 232.208 148.707 231.659 148.488H231.659Z" fill="#54B13F"/>
<path d="M250.906 90.4521C264.471 90.4521 275.467 79.4558 275.467 65.8911C275.467 52.3264 264.471 41.3301 250.906 41.3301C237.342 41.3301 226.345 52.3264 226.345 65.8911C226.345 79.4558 237.342 90.4521 250.906 90.4521Z" fill="#A0616A"/>
<path d="M233.346 82.7478C233.24 82.4395 233.207 82.1112 233.248 81.788C233.289 81.4648 233.404 81.1553 233.583 80.8832C233.762 80.6111 234.001 80.3836 234.282 80.2182C234.562 80.0528 234.877 79.9538 235.202 79.9288C235.867 79.965 236.518 80.1356 237.116 80.4303C237.713 80.7251 238.245 81.1379 238.678 81.6438C239.567 82.6687 240.602 83.5572 241.749 84.2809C242.937 84.8798 244.549 84.7944 245.226 83.6526C245.862 82.5804 245.426 81.1446 245.041 79.8992C244.062 76.7306 243.513 73.4443 243.411 70.1292C243.301 66.4289 243.823 62.5672 245.871 59.6811C248.515 55.9564 253.243 54.5423 257.717 54.6448C262.191 54.7473 266.592 56.1284 271.024 57.0015C272.554 57.3028 274.352 57.457 275.375 56.2712C276.463 55.0104 276.064 52.9698 275.601 51.2674C274.4 46.85 273.126 42.2828 270.336 38.7152C267.319 35.0081 263.009 32.5819 258.275 31.9251C253.73 31.362 249.116 31.8859 244.812 33.4534C237.801 35.6633 231.632 39.9611 227.13 45.7721C222.488 51.9518 220.483 59.7179 221.552 67.3722C222.596 74.0389 226.128 80.0618 231.437 84.2269L233.346 82.7478Z" fill="#2F2E41"/>
<path d="M139.566 141.877C140.801 128.571 144.214 115.559 149.667 103.359C151.186 99.9644 152.859 96.6441 154.685 93.3986C154.776 93.2289 154.798 93.0302 154.746 92.8446C154.694 92.6589 154.572 92.5007 154.405 92.4034C154.239 92.3061 154.041 92.2773 153.854 92.323C153.666 92.3686 153.504 92.4853 153.401 92.6484C146.762 104.469 142.111 117.301 139.633 130.631C138.944 134.353 138.426 138.102 138.08 141.877C137.991 142.829 139.478 142.823 139.566 141.877V141.877Z" fill="#3F3D56"/>
<path d="M158.285 95.7824C163.484 95.7824 167.699 91.5674 167.699 86.368C167.699 81.1686 163.484 76.9536 158.285 76.9536C153.086 76.9536 148.871 81.1686 148.871 86.368C148.871 91.5674 153.086 95.7824 158.285 95.7824Z" fill="#54B13F"/>
<path d="M140.529 142.126C141.331 133.494 143.544 125.053 147.082 117.138C148.068 114.936 149.153 112.782 150.337 110.676C150.397 110.566 150.411 110.437 150.377 110.317C150.343 110.197 150.264 110.094 150.156 110.031C150.048 109.968 149.92 109.949 149.798 109.979C149.677 110.008 149.571 110.084 149.505 110.19C145.197 117.858 142.18 126.183 140.573 134.831C140.126 137.245 139.79 139.677 139.565 142.126C139.508 142.744 140.472 142.74 140.529 142.126V142.126Z" fill="#3F3D56"/>
<path d="M152.673 112.223C156.046 112.223 158.78 109.488 158.78 106.115C158.78 102.742 156.046 100.008 152.673 100.008C149.3 100.008 146.565 102.742 146.565 106.115C146.565 109.488 149.3 112.223 152.673 112.223Z" fill="#54B13F"/>
<path d="M139.312 141.55C134.635 134.251 131.188 126.233 129.109 117.817C128.532 115.474 128.063 113.108 127.702 110.719C127.681 110.596 127.613 110.486 127.512 110.411C127.411 110.337 127.286 110.305 127.162 110.322C127.038 110.338 126.925 110.402 126.848 110.501C126.77 110.599 126.734 110.723 126.746 110.848C128.067 119.544 130.807 127.963 134.859 135.77C135.992 137.949 137.223 140.073 138.551 142.143C138.886 142.665 139.645 142.068 139.312 141.55Z" fill="#3F3D56"/>
<path d="M126.738 111.794C130.111 111.794 132.846 109.06 132.846 105.687C132.846 102.314 130.111 99.5791 126.738 99.5791C123.365 99.5791 120.631 102.314 120.631 105.687C120.631 109.06 123.365 111.794 126.738 111.794Z" fill="#54B13F"/>
<path d="M120.562 146.954V134.954C120.563 133.761 121.038 132.617 121.882 131.773C122.725 130.929 123.869 130.455 125.062 130.454H153.062C154.255 130.455 155.399 130.929 156.243 131.773C157.086 132.617 157.561 133.761 157.562 134.954V146.954C157.561 148.147 157.086 149.291 156.243 150.134C155.399 150.978 154.255 151.452 153.062 151.454H125.062C123.869 151.452 122.725 150.978 121.882 150.134C121.038 149.291 120.563 148.147 120.562 146.954Z" fill="#CCCCCC"/>
<path d="M371.57 143.482H292.57C290.637 143.482 289.07 145.049 289.07 146.982C289.07 148.915 290.637 150.482 292.57 150.482H371.57C373.503 150.482 375.07 148.915 375.07 146.982C375.07 145.049 373.503 143.482 371.57 143.482Z" fill="#CCCCCC"/>
<path d="M424.57 150.482H335.57C333.847 150.48 332.194 149.795 330.976 148.576C329.757 147.358 329.072 145.706 329.07 143.982V94.9824C329.072 93.2591 329.757 91.607 330.976 90.3884C332.194 89.1698 333.847 88.4844 335.57 88.4824H424.57C426.293 88.4844 427.945 89.1698 429.164 90.3884C430.383 91.607 431.068 93.2591 431.07 94.9824V143.982C431.068 145.706 430.383 147.358 429.164 148.576C427.945 149.795 426.293 150.48 424.57 150.482V150.482Z" fill="#CCCCCC"/>
<path d="M380.07 125.482C383.384 125.482 386.07 122.796 386.07 119.482C386.07 116.169 383.384 113.482 380.07 113.482C376.756 113.482 374.07 116.169 374.07 119.482C374.07 122.796 376.756 125.482 380.07 125.482Z" fill="white"/>
<path d="M651.07 216.482C651.07 208.75 621.969 202.482 586.07 202.482C550.172 202.482 521.07 208.75 521.07 216.482C521.07 221.438 533.034 225.789 551.07 228.277V304.982C551.07 306.706 551.755 308.36 552.974 309.579C554.193 310.798 555.846 311.482 557.57 311.482C559.294 311.482 560.947 310.798 562.166 309.579C563.385 308.36 564.07 306.706 564.07 304.982V229.658C570.942 230.191 578.347 230.482 586.07 230.482C593.793 230.482 601.198 230.191 608.07 229.658V304.982C608.07 306.706 608.755 308.36 609.974 309.579C611.193 310.798 612.846 311.482 614.57 311.482C616.294 311.482 617.947 310.798 619.166 309.579C620.385 308.36 621.07 306.706 621.07 304.982V228.277C639.106 225.789 651.07 221.438 651.07 216.482Z" fill="#CCCCCC"/>
<path d="M593.257 88.3398C608.721 88.3398 621.257 75.8038 621.257 60.3398C621.257 44.8759 608.721 32.3398 593.257 32.3398C577.793 32.3398 565.257 44.8759 565.257 60.3398C565.257 75.8038 577.793 88.3398 593.257 88.3398Z" fill="#2F2E41"/>
<path d="M523.577 299.906H511.317L505.485 252.618H523.579L523.577 299.906Z" fill="#FFB8B8"/>
<path d="M502.56 296.402H526.204V311.289H487.673C487.673 309.334 488.058 307.398 488.806 305.592C489.554 303.786 490.651 302.145 492.033 300.763C493.416 299.38 495.057 298.284 496.863 297.536C498.669 296.787 500.605 296.402 502.56 296.402V296.402Z" fill="#2F2E41"/>
<path d="M504.439 293.064L492.742 289.393L501.334 242.528L518.598 247.945L504.439 293.064Z" fill="#FFB8B8"/>
<path d="M485.436 283.429L507.995 290.508L503.537 304.712L466.774 293.175C467.36 291.31 468.307 289.578 469.561 288.079C470.816 286.579 472.353 285.342 474.086 284.437C475.819 283.532 477.713 282.977 479.661 282.804C481.608 282.631 483.57 282.843 485.436 283.429V283.429Z" fill="#2F2E41"/>
<path d="M508.428 274.196C507.891 274.196 507.358 274.099 506.856 273.91L497.836 270.528C496.824 270.145 495.983 269.411 495.466 268.459C494.95 267.508 494.792 266.403 495.022 265.345C497.293 255.135 505.032 220.374 509.27 201.729C514.296 179.614 587.613 175.505 590.731 175.341L590.987 175.327L599.235 185.691C602.215 195.27 601.271 202.742 596.427 207.899C582.295 222.946 540.1 213.609 535.068 212.428L512.641 271.299C512.314 272.151 511.737 272.885 510.984 273.402C510.232 273.919 509.341 274.196 508.428 274.196V274.196Z" fill="#2F2E41"/>
<path d="M521.428 281.196C520.891 281.196 520.358 281.099 519.856 280.91L510.836 277.528C509.824 277.145 508.983 276.411 508.466 275.459C507.95 274.508 507.792 273.403 508.022 272.345C510.293 262.135 518.032 227.374 522.27 208.729C527.296 186.614 600.613 182.505 603.731 182.341L603.987 182.327L612.235 192.691C615.215 202.27 614.271 209.742 609.427 214.899C595.295 229.945 553.1 220.609 548.068 219.428L525.641 278.299C525.314 279.151 524.737 279.885 523.984 280.402C523.232 280.919 522.341 281.196 521.428 281.196V281.196Z" fill="#2F2E41"/>
<path d="M495.333 137.176C495.664 137.619 495.96 138.088 496.218 138.578L545.538 143.774L552.638 134.04L568.728 142.834L554.784 166.456L494.297 151.033C492.771 152.521 490.828 153.509 488.726 153.866C486.625 154.222 484.465 153.931 482.534 153.03C480.602 152.129 478.99 150.662 477.913 148.823C476.836 146.984 476.344 144.86 476.503 142.735C476.662 140.61 477.464 138.583 478.803 136.925C480.142 135.266 481.954 134.055 483.998 133.451C486.042 132.848 488.221 132.881 490.246 133.546C492.271 134.212 494.045 135.478 495.333 137.176V137.176Z" fill="#FFB8B8"/>
<path d="M609.946 196.658C609.233 196.656 608.53 196.484 607.896 196.157C598.034 191.142 578.83 182.458 561.022 180.64C560.413 180.581 559.822 180.394 559.289 180.093C558.756 179.791 558.292 179.382 557.927 178.89C557.554 178.394 557.287 177.826 557.144 177.222C557.001 176.618 556.983 175.991 557.093 175.38C558.7 166.484 562.386 143.833 561.911 125.678C561.771 120.097 563.535 114.633 566.912 110.186C570.289 105.74 575.078 102.574 580.493 101.211V101.211C583.753 100.351 587.064 99.6981 590.406 99.2566C594.247 98.77 598.149 99.1899 601.8 100.483C605.45 101.775 608.746 103.905 611.425 106.701C614.104 109.497 616.091 112.881 617.227 116.583C618.362 120.285 618.615 124.201 617.965 128.018C614.79 146.832 611.588 173.108 614.371 191.451C614.498 192.273 614.396 193.114 614.075 193.882C613.754 194.649 613.227 195.313 612.552 195.8C611.796 196.354 610.884 196.655 609.946 196.658V196.658Z" fill="#54B13F"/>
<path d="M562.824 148.806C562.209 148.805 561.601 148.679 561.037 148.433L548.189 142.872C547.095 142.396 546.234 141.507 545.795 140.397C545.356 139.288 545.375 138.05 545.847 136.955L555.779 114.012C556.378 112.625 557.245 111.37 558.329 110.318C559.414 109.266 560.695 108.437 562.099 107.881C563.504 107.324 565.005 107.05 566.516 107.073C568.026 107.097 569.518 107.418 570.904 108.018C572.291 108.618 573.546 109.486 574.597 110.571C575.648 111.656 576.475 112.938 577.031 114.343C577.586 115.749 577.859 117.249 577.835 118.76C577.81 120.271 577.488 121.762 576.886 123.148L566.955 146.091C566.605 146.896 566.028 147.582 565.295 148.065C564.561 148.547 563.702 148.805 562.824 148.806V148.806Z" fill="#54B13F"/>
<path d="M592.234 91.4521C605.798 91.4521 616.795 80.4558 616.795 66.8911C616.795 53.3264 605.798 42.3301 592.234 42.3301C578.669 42.3301 567.673 53.3264 567.673 66.8911C567.673 80.4558 578.669 91.4521 592.234 91.4521Z" fill="#FFB8B8"/>
<path d="M567.231 54.8238C578.865 61.9256 591.98 66.2471 605.557 67.4522L601.517 62.6116C604.459 63.6992 607.554 64.3138 610.688 64.4326C613.818 64.3839 617.098 63.1787 618.874 60.6009C619.667 59.3195 620.137 57.8655 620.246 56.3628C620.355 54.8601 620.099 53.3534 619.499 51.9712C618.268 49.2142 616.352 46.8182 613.933 45.0111C609.645 41.6193 604.585 39.341 599.203 38.3792C593.822 37.4174 588.286 37.8019 583.089 39.4986C579.524 40.564 576.331 42.612 573.876 45.408C571.548 48.2804 567.065 50.8396 568.257 54.3397L567.231 54.8238Z" fill="#2F2E41"/>
<path d="M596.364 35.0031C588.617 27.1476 579.243 21.0856 568.901 17.244C562.262 14.7846 555.036 13.265 548.095 14.6617C541.155 16.0584 534.591 20.8598 532.655 27.6695C531.072 33.2379 532.707 39.2333 535.164 44.475C537.621 49.7168 540.901 54.5775 542.888 60.0149C544.916 65.5629 545.526 71.5294 544.662 77.3729C543.799 83.2163 541.49 88.7516 537.945 93.4763C534.399 98.2009 529.73 101.965 524.361 104.428C518.992 106.89 513.093 107.973 507.199 107.577C514.019 108.492 520.304 111.696 526.97 113.402C533.636 115.108 541.503 114.992 546.456 110.217C551.697 105.164 551.802 96.9496 551.549 89.6743L550.419 57.2293C550.227 51.7139 550.063 46.0217 552.052 40.8738C554.041 35.7259 558.768 31.2181 564.286 31.265C568.469 31.3005 572.171 33.8342 575.525 36.333C578.879 38.8317 582.43 41.4977 586.596 41.8694C590.762 42.241 595.519 39.1579 595.207 34.9869" fill="#2F2E41"/>
<path d="M482.197 119.087L538.75 120.422L546.943 180.878L494.716 182.05L482.197 119.087Z" fill="#E6E6E6"/>
<path d="M542.333 135.176C542.664 135.619 542.96 136.088 543.218 136.578L592.538 141.774L599.638 132.04L615.728 140.834L601.784 164.456L541.297 149.033C539.771 150.521 537.828 151.509 535.726 151.866C533.625 152.222 531.465 151.931 529.534 151.03C527.602 150.129 525.99 148.662 524.913 146.823C523.836 144.984 523.344 142.86 523.503 140.735C523.662 138.61 524.464 136.583 525.803 134.925C527.142 133.266 528.954 132.055 530.998 131.451C533.042 130.848 535.221 130.881 537.246 131.546C539.271 132.212 541.045 133.478 542.333 135.176V135.176Z" fill="#FFB8B8"/>
<path d="M609.824 149.806C609.209 149.805 608.601 149.679 608.037 149.433L595.189 143.872C594.095 143.396 593.234 142.507 592.795 141.397C592.356 140.288 592.375 139.05 592.847 137.955L602.779 115.012C603.378 113.625 604.245 112.37 605.329 111.318C606.414 110.266 607.695 109.437 609.099 108.881C610.504 108.324 612.005 108.05 613.516 108.073C615.026 108.097 616.518 108.418 617.904 109.018C619.291 109.618 620.546 110.486 621.597 111.571C622.648 112.656 623.475 113.938 624.031 115.343C624.586 116.749 624.859 118.249 624.835 119.76C624.81 121.271 624.488 122.762 623.886 124.148L613.955 147.091C613.605 147.896 613.028 148.582 612.295 149.065C611.561 149.547 610.702 149.805 609.824 149.806V149.806Z" fill="#54B13F"/>
<path d="M493.57 149.482H95.5699C93.846 149.482 92.1927 150.167 90.9738 151.386C89.7548 152.605 89.0699 154.259 89.0699 155.982C89.0699 157.706 89.7548 159.36 90.9738 160.579C92.1927 161.798 93.846 162.482 95.5699 162.482H107.07V303.982C107.07 305.706 107.755 307.36 108.974 308.579C110.193 309.798 111.846 310.482 113.57 310.482C115.294 310.482 116.947 309.798 118.166 308.579C119.385 307.36 120.07 305.706 120.07 303.982V174.972L192.941 307.05C193.805 308.54 195.224 309.625 196.888 310.069C198.551 310.513 200.323 310.279 201.814 309.418C203.305 308.557 204.393 307.14 204.841 305.478C205.288 303.815 205.057 302.043 204.199 300.55L128.024 162.482H476.07V162.567L399.941 300.55C399.079 302.043 398.846 303.817 399.292 305.482C399.738 307.148 400.827 308.567 402.32 309.429C403.813 310.291 405.587 310.525 407.252 310.079C408.917 309.633 410.337 308.543 411.199 307.05L476.07 189.472V303.982C476.07 305.706 476.755 307.36 477.974 308.579C479.193 309.798 480.846 310.482 482.57 310.482C484.294 310.482 485.947 309.798 487.166 308.579C488.385 307.36 489.07 305.706 489.07 303.982V165.91L490.961 162.482H493.57C495.294 162.482 496.947 161.798 498.166 160.579C499.385 159.36 500.07 157.706 500.07 155.982C500.07 154.259 499.385 152.605 498.166 151.386C496.947 150.167 495.294 149.482 493.57 149.482V149.482Z" fill="#3F3D56"/>
<path d="M739.485 311.949H1.19066C0.875467 311.948 0.573504 311.822 0.350952 311.599C0.1284 311.376 0.00341797 311.073 0.00341797 310.758C0.00341797 310.443 0.1284 310.141 0.350952 309.917C0.573504 309.694 0.875467 309.568 1.19066 309.567H739.485C739.8 309.567 740.103 309.693 740.327 309.916C740.55 310.139 740.675 310.442 740.675 310.758C740.675 311.074 740.55 311.377 740.327 311.6C740.103 311.823 739.8 311.949 739.485 311.949V311.949Z" fill="#3F3D56"/>
</svg>
