<svg width="251" height="251" viewBox="0 0 251 251" fill="none" xmlns="http://www.w3.org/2000/svg">
<path d="M250.629 125.177C250.657 142.59 247.029 159.815 239.98 175.738C239.753 176.252 239.522 176.764 239.288 177.272C239.173 177.527 239.055 177.78 238.936 178.035C238.818 178.288 238.699 178.544 238.578 178.796C238.422 179.123 238.266 179.448 238.107 179.772C237.911 180.18 237.711 180.585 237.505 180.991C237.48 181.047 237.452 181.103 237.421 181.159C237.25 181.502 237.078 181.845 236.901 182.188C236.863 182.262 236.826 182.337 236.785 182.409C236.583 182.808 236.374 183.207 236.162 183.603V183.606C235.937 184.027 235.712 184.446 235.485 184.865C234.924 185.9 234.348 186.926 233.755 187.942C233.578 188.244 233.403 188.547 233.222 188.846C233.057 189.126 232.892 189.404 232.724 189.681C232.608 189.875 232.493 190.065 232.374 190.255C232.187 190.564 231.997 190.872 231.804 191.181C231.801 191.184 231.801 191.184 231.801 191.187C231.374 191.873 230.937 192.555 230.498 193.232H230.495C230.292 193.547 230.086 193.858 229.881 194.17V194.173C229.26 195.108 228.627 196.034 227.982 196.951V196.954C227.98 196.954 227.978 196.955 227.976 196.957V196.96L227.97 196.966C227.459 197.699 226.937 198.425 226.405 199.145V199.148C226.065 199.61 225.722 200.071 225.376 200.526C225.093 200.9 224.806 201.273 224.516 201.645C224.457 201.726 224.394 201.804 224.329 201.885V201.888C224.251 201.991 224.173 202.091 224.089 202.194V202.197C222.858 203.771 221.589 205.314 220.283 206.826H220.28C220.211 206.91 220.139 206.991 220.068 207.072C219.999 207.153 219.924 207.234 219.853 207.318H219.849C219.74 207.446 219.628 207.574 219.516 207.702C219.407 207.83 219.291 207.958 219.176 208.085V208.088C212.368 215.77 204.642 222.585 196.171 228.381C195.043 229.158 193.9 229.913 192.742 230.648C192.455 230.832 192.169 231.012 191.879 231.193C191.791 231.252 191.704 231.305 191.617 231.358C191.464 231.455 191.308 231.552 191.152 231.648C191 231.742 190.844 231.838 190.688 231.932C190.068 232.312 189.441 232.686 188.815 233.054C188.659 233.148 188.5 233.238 188.341 233.332C188.185 233.422 188.026 233.512 187.867 233.603C187.865 233.606 187.862 233.609 187.859 233.611C187.856 233.613 187.852 233.615 187.848 233.615L187.842 233.618L187.836 233.625H187.833C187.047 234.077 186.258 234.522 185.46 234.953C184.033 235.732 182.591 236.483 181.134 237.206C180.772 237.387 180.407 237.565 180.043 237.742C179.74 237.889 179.435 238.035 179.132 238.179C179.048 238.219 178.967 238.26 178.883 238.297C178.631 238.416 178.378 238.534 178.126 238.65C177.851 238.78 177.574 238.905 177.3 239.03C176.991 239.17 176.685 239.307 176.377 239.444C175.217 239.962 174.045 240.461 172.87 240.941C168.672 242.66 164.381 244.144 160.018 245.386C159.815 245.445 159.609 245.504 159.404 245.56C157.536 246.084 155.656 246.563 153.762 246.997C150.454 247.758 147.117 248.382 143.749 248.871C143.743 248.871 143.733 248.874 143.727 248.874C143.325 248.933 142.92 248.989 142.518 249.045C142.484 249.052 142.446 249.058 142.409 249.061C142.406 249.064 142.402 249.064 142.396 249.061C142.396 249.061 142.396 249.064 142.393 249.061C141.947 249.12 141.502 249.179 141.053 249.236C141.022 249.242 140.99 249.245 140.959 249.248C140.541 249.298 140.121 249.348 139.7 249.395C139.248 249.444 138.796 249.491 138.341 249.538C137.995 249.572 137.649 249.607 137.303 249.638C137.272 249.644 137.241 249.647 137.209 249.647C136.894 249.675 136.58 249.703 136.265 249.728C136.252 249.728 136.237 249.731 136.224 249.731C135.95 249.756 135.676 249.775 135.401 249.797C132.175 250.052 128.917 250.179 125.629 250.177C122.06 250.177 118.527 250.028 115.03 249.731C115.018 249.731 115.005 249.728 114.993 249.728C114.248 249.666 113.504 249.597 112.761 249.522C112.565 249.504 112.371 249.482 112.175 249.463C112.137 249.46 112.1 249.457 112.063 249.451C112.003 249.444 111.944 249.438 111.882 249.432C111.851 249.429 111.816 249.426 111.785 249.419C111.527 249.391 111.268 249.363 111.006 249.332C110.716 249.298 110.423 249.264 110.133 249.226C109.843 249.192 109.55 249.155 109.26 249.114C109.198 249.108 109.132 249.102 109.07 249.089C108.858 249.064 108.646 249.036 108.437 249.005C108.334 248.992 108.235 248.977 108.135 248.961C107.932 248.933 107.733 248.905 107.53 248.874C107.524 248.874 107.515 248.871 107.508 248.871C101.143 247.952 94.8591 246.535 88.7148 244.635H88.7117C88.3781 244.532 88.0446 244.426 87.711 244.32C87.6113 244.292 87.5115 244.26 87.4118 244.226C86.5452 243.949 85.6838 243.662 84.8276 243.366C83.6462 242.961 82.4731 242.537 81.3083 242.094C80.9903 241.972 80.6755 241.851 80.3575 241.729C79.7248 241.48 79.0951 241.231 78.4685 240.975C77.3993 240.539 76.3374 240.089 75.2827 239.625H75.2796V239.622C74.2946 239.189 73.3168 238.742 72.3463 238.282C72.3177 238.273 72.2904 238.261 72.2653 238.244C72.2622 238.244 72.2622 238.241 72.259 238.241C72.044 238.141 71.8289 238.039 71.6138 237.936L71.6075 237.933C66.2607 235.37 61.1051 232.426 56.1805 229.123C54.6001 228.067 53.0467 226.975 51.5203 225.847C50.289 224.94 49.0753 224.01 47.8794 223.057C41.922 218.322 36.4088 213.054 31.408 207.318H31.4049V207.315C31.0527 206.913 30.7098 206.514 30.3607 206.109V206.106C30.3108 206.05 30.264 205.994 30.2173 205.938C29.9959 205.679 29.7808 205.423 29.5658 205.161V205.158C29.2727 204.812 28.986 204.465 28.7054 204.117C28.6431 204.042 28.5838 203.971 28.5246 203.896H28.5215V203.893C28.2908 203.612 28.0633 203.328 27.8388 203.045C27.7235 202.905 27.6113 202.761 27.4991 202.618H27.4959V202.615C26.8164 201.757 26.1503 200.892 25.4978 200.018V200.015C25.317 199.775 25.1393 199.535 24.9648 199.292H24.9617C24.1262 198.163 23.3127 197.021 22.5209 195.866V195.863C22.2216 195.429 21.9255 194.993 21.6325 194.554C21.3395 194.114 21.0496 193.673 20.7628 193.232H20.7597C20.4635 192.777 20.1705 192.32 19.8806 191.86C19.865 191.835 19.8494 191.814 19.837 191.792C19.5502 191.34 19.2676 190.885 18.9891 190.426C18.7647 190.062 18.5433 189.7 18.3283 189.335C18.1786 189.089 18.0321 188.846 17.8887 188.597C17.8357 188.512 17.789 188.428 17.7422 188.347C17.4118 187.783 17.0876 187.219 16.7634 186.651C16.3862 185.984 16.0122 185.311 15.6475 184.638C15.4978 184.36 15.3482 184.08 15.2017 183.799C15.1487 183.709 15.102 183.618 15.0552 183.525C14.8806 183.194 14.7061 182.864 14.5346 182.53C14.3632 182.2 14.1917 181.866 14.0234 181.533C13.8551 181.199 13.6867 180.866 13.5215 180.529C13.3968 180.277 13.2721 180.021 13.1506 179.769C13.1379 179.747 13.1265 179.726 13.1163 179.703C13.0602 179.585 13.0009 179.469 12.948 179.351C12.9355 179.333 12.926 179.313 12.9199 179.292C12.7921 179.03 12.6674 178.771 12.5458 178.509C12.3837 178.173 12.2279 177.833 12.072 177.493C11.9598 177.256 11.8538 177.016 11.7447 176.776C11.5889 176.439 11.4361 176.1 11.2865 175.757C11.1275 175.405 10.9748 175.049 10.822 174.694C10.7815 174.603 10.7441 174.516 10.7067 174.426C10.635 174.264 10.5664 174.102 10.4978 173.939C10.3139 173.509 10.1331 173.073 9.95543 172.64C9.75281 172.15 9.55538 171.66 9.36315 171.168C9.17923 170.71 9.00051 170.251 8.82699 169.79L8.76153 169.622V169.619C6.05299 162.5 4.00366 155.148 2.63933 147.655V147.652C1.8614 143.374 1.30787 139.058 0.981001 134.722C0.962298 134.485 0.946695 134.248 0.931125 134.011C0.725389 131.078 0.624599 128.133 0.628755 125.177C0.628755 123.865 0.649535 122.559 0.691098 121.259C1.49932 94.0825 11.1869 67.9191 28.2722 46.7699C29.0234 45.8378 29.7882 44.9172 30.5664 44.008C53.4903 17.1814 87.5739 0.177002 125.629 0.177002C170.121 0.177002 209.185 23.422 231.333 58.4314C232.487 60.2456 233.59 62.093 234.644 63.9738C245.157 82.6566 250.663 103.739 250.629 125.177Z" fill="#F2F2F2"/>
<path d="M186.159 223.291C185.71 224.532 185.262 225.772 184.815 227.013C184.731 227.25 184.644 227.484 184.56 227.721C183.419 230.881 182.277 234.043 181.134 237.206C180.772 237.387 180.407 237.565 180.043 237.742C179.74 237.889 179.435 238.035 179.132 238.179C179.048 238.219 178.967 238.26 178.883 238.297C178.631 238.416 178.378 238.534 178.126 238.649C177.851 238.78 177.574 238.905 177.3 239.03C176.991 239.17 176.685 239.307 176.377 239.444C176.216 239.027 176.125 238.585 176.106 238.138C176.092 237.436 176.175 236.736 176.352 236.056C176.623 234.934 177.053 233.833 177.337 232.708C177.353 232.655 177.365 232.599 177.377 232.546C178.01 229.859 177.718 227.038 176.548 224.538C175.844 223.048 174.834 221.692 174.394 220.102C174.012 218.609 174.182 217.029 174.871 215.651C175.127 215.116 175.449 214.616 175.828 214.161C175.919 214.045 176.015 213.936 176.115 213.827C177.032 212.82 178.25 212.136 179.588 211.879C182.147 211.424 184.821 212.786 186.252 214.924C186.838 215.784 187.196 216.778 187.29 217.814C187.446 219.687 186.798 221.524 186.159 223.291Z" fill="#E4E4E4"/>
<path d="M179.092 235.953C178.506 234.872 177.524 233.924 177.337 232.708C176.729 228.805 175.264 226.006 172.836 224.42C172.131 223.961 172.019 222.948 171.586 222.219C171.392 221.891 171.196 221.564 170.993 221.243C170.666 220.71 170.325 220.187 169.971 219.675C169.299 218.685 168.559 217.743 167.755 216.857C167.421 216.486 167.069 216.128 166.704 215.788L166.701 215.785C166.474 215.567 166.243 215.358 166.003 215.155C165.909 215.074 165.813 214.993 165.713 214.912L165.707 214.906C165.285 214.541 164.844 214.199 164.385 213.883C163.328 213.17 162.134 212.674 160.909 213.07C160.428 213.235 159.964 213.448 159.525 213.706C159.301 213.833 159.079 213.968 158.858 214.102C158.709 214.192 158.559 214.282 158.409 214.376C158.288 214.448 158.166 214.519 158.045 214.588C157.103 215.13 156.158 215.662 155.208 216.184C155.071 216.262 154.934 216.337 154.793 216.411H154.79C154.694 216.468 154.594 216.521 154.494 216.574C154.304 216.68 154.111 216.785 153.921 216.888C153.35 217.197 152.779 217.502 152.206 217.805C151.913 217.961 151.617 218.11 151.321 218.26C151.184 218.328 151.046 218.397 150.912 218.469H150.909C150.859 218.494 150.813 218.519 150.763 218.544C150.358 218.752 149.959 218.968 149.572 219.201C148.451 219.877 147.477 220.77 146.707 221.829C146.558 222.035 146.414 222.247 146.283 222.465C146.112 222.747 145.956 223.039 145.816 223.338C145.719 223.54 145.629 223.743 145.548 223.949V223.952C144.781 225.922 144.674 228.088 145.242 230.124V230.127C145.28 230.267 145.32 230.405 145.367 230.542C145.442 230.772 145.526 231.003 145.619 231.228C145.723 231.478 145.839 231.722 145.969 231.96V231.963C146.662 233.146 147.528 234.22 148.537 235.149L148.568 235.18C148.693 235.302 148.821 235.426 148.945 235.548C149.014 235.613 149.086 235.679 149.161 235.741C150.239 236.667 151.982 237.368 152.967 238.319C153.493 238.827 153.802 239.404 153.68 240.124C153.356 242.035 153.428 243.272 153.758 244.067C154.656 246.237 157.474 245.133 159.404 245.56C159.609 245.504 159.815 245.445 160.018 245.386C164.381 244.144 168.672 242.66 172.87 240.941C174.045 240.461 175.217 239.962 176.377 239.444C176.685 239.307 176.991 239.17 177.3 239.03C177.574 238.905 177.851 238.781 178.126 238.65C178.378 238.534 178.631 238.416 178.883 238.297C178.967 238.26 179.048 238.219 179.132 238.179C179.435 238.035 179.74 237.889 180.043 237.742C179.734 237.141 179.413 236.545 179.092 235.953Z" fill="#E4E4E4"/>
<path d="M156.285 205.689C156.94 203.711 156.039 202.405 153.721 201.712C153.642 201.641 153.546 201.59 153.442 201.565C153.338 201.54 153.229 201.541 153.126 201.569C153.023 201.596 152.928 201.65 152.851 201.723C152.773 201.797 152.716 201.889 152.683 201.991L150.659 207.989C148.542 207.447 146.989 207.818 146.651 209.912C147.487 207.779 146.701 206.441 144.35 205.87C144.274 205.794 144.179 205.739 144.076 205.709C143.972 205.679 143.863 205.676 143.757 205.699C143.652 205.723 143.555 205.773 143.474 205.845C143.394 205.917 143.332 206.007 143.296 206.109L141.965 211.511C140.344 213.953 139.548 216.851 139.693 219.778C139.839 222.706 140.919 225.51 142.774 227.779C144.63 230.048 147.164 231.663 150.004 232.387C152.845 233.112 155.842 232.907 158.558 231.803C161.273 230.699 163.564 228.754 165.093 226.253C166.623 223.753 167.311 220.828 167.056 217.908C166.802 214.987 165.619 212.225 163.681 210.026C161.742 207.828 159.15 206.308 156.285 205.689H156.285Z" fill="#E4E4E4"/>
<path d="M154.996 222.783C154.723 222.929 154.402 222.961 154.105 222.872C153.808 222.782 153.559 222.578 153.412 222.305C153.391 222.266 153.386 222.22 153.399 222.178C153.412 222.136 153.441 222.1 153.48 222.079C153.519 222.058 153.565 222.054 153.607 222.066C153.65 222.079 153.685 222.108 153.706 222.147C153.811 222.342 153.989 222.487 154.202 222.551C154.414 222.615 154.642 222.592 154.838 222.487C155.033 222.382 155.178 222.205 155.243 221.993C155.307 221.781 155.284 221.552 155.18 221.356C155.159 221.317 155.154 221.272 155.167 221.229C155.18 221.187 155.209 221.151 155.248 221.13C155.287 221.11 155.333 221.105 155.375 221.118C155.418 221.13 155.453 221.159 155.474 221.198C155.621 221.472 155.653 221.792 155.563 222.089C155.473 222.387 155.27 222.636 154.996 222.783V222.783Z" fill="white"/>
<path d="M153.772 220.324C154.423 219.974 154.841 219.488 154.707 219.238C154.573 218.988 153.936 219.068 153.285 219.417C152.634 219.766 152.215 220.253 152.35 220.503C152.484 220.753 153.121 220.673 153.772 220.324Z" fill="white"/>
<path d="M146.852 220.748C146.94 220.321 147.121 219.919 147.382 219.569C147.642 219.22 147.976 218.932 148.361 218.726C148.745 218.52 149.169 218.401 149.604 218.377C150.04 218.353 150.475 218.425 150.879 218.587C151.083 217.965 151.097 217.297 150.921 216.667C150.744 216.036 150.385 215.473 149.888 215.047C149.391 214.62 148.779 214.351 148.129 214.273C147.48 214.195 146.821 214.311 146.238 214.607C145.654 214.903 145.171 215.366 144.85 215.936C144.529 216.506 144.385 217.159 144.435 217.812C144.485 218.464 144.727 219.087 145.131 219.602C145.536 220.117 146.083 220.5 146.705 220.704V220.704C146.754 220.72 146.803 220.734 146.852 220.748Z" fill="white"/>
<path d="M147.841 219.547C148.47 219.547 148.979 219.037 148.979 218.408C148.979 217.78 148.47 217.27 147.841 217.27C147.212 217.27 146.703 217.78 146.703 218.408C146.703 219.037 147.212 219.547 147.841 219.547Z" fill="#3F3D56"/>
<path d="M154.732 216.652C154.82 216.225 155 215.823 155.261 215.473C155.521 215.124 155.856 214.836 156.24 214.63C156.624 214.424 157.048 214.304 157.484 214.28C157.919 214.256 158.354 214.328 158.758 214.491C158.962 213.869 158.976 213.201 158.8 212.57C158.623 211.94 158.264 211.376 157.767 210.95C157.27 210.524 156.658 210.255 156.008 210.177C155.359 210.099 154.7 210.215 154.117 210.511C153.533 210.807 153.05 211.27 152.729 211.84C152.408 212.41 152.264 213.063 152.314 213.716C152.364 214.368 152.606 214.991 153.011 215.506C153.415 216.021 153.962 216.404 154.585 216.607V216.607C154.633 216.623 154.682 216.638 154.732 216.652Z" fill="white"/>
<path d="M156.138 215.387C156.767 215.387 157.276 214.877 157.276 214.249C157.276 213.62 156.767 213.11 156.138 213.11C155.509 213.11 155 213.62 155 214.249C155 214.877 155.509 215.387 156.138 215.387Z" fill="#3F3D56"/>
<path d="M161.85 214.17L157.964 218.13L158.356 218.515L162.242 214.555L161.85 214.17Z" fill="white"/>
<path d="M163.085 216.086L158.389 219.042L158.682 219.507L163.378 216.551L163.085 216.086Z" fill="white"/>
<path d="M149.626 222.604L144.177 223.653L144.281 224.193L149.73 223.144L149.626 222.604Z" fill="white"/>
<path d="M150.151 223.463L145.091 225.742L145.317 226.243L150.377 223.964L150.151 223.463Z" fill="white"/>
<path d="M21.0598 80.9106C21.0515 81.1649 21.0432 81.4192 21.0392 81.6767C20.9454 85.0959 21.1296 88.517 21.59 91.9063C21.6214 92.1689 21.6572 92.4346 21.6961 92.6957C22.8922 100.85 25.5916 108.71 29.6573 115.879C31.2778 118.73 33.1128 121.453 35.1464 124.026C37.9552 127.579 41.2833 131.207 42.7123 135.358C42.8663 135.789 42.9934 136.23 43.0929 136.677L29.7183 155.85C29.6661 155.879 29.618 155.91 29.5656 155.939L29.0666 156.729C28.9524 156.603 28.8367 156.471 28.7226 156.345C28.6561 156.273 28.5925 156.196 28.526 156.124C28.4826 156.074 28.4393 156.024 28.3973 155.982C28.3828 155.966 28.3685 155.949 28.3583 155.935C28.3163 155.893 28.2818 155.849 28.2442 155.81C27.5954 155.071 26.9507 154.327 26.31 153.577C26.3057 153.574 26.3057 153.574 26.3043 153.566C21.4374 147.836 17.0062 141.65 13.6548 134.988C13.554 134.787 13.4488 134.584 13.3541 134.375C11.8601 131.363 10.6147 128.235 9.63043 125.021C9.09712 123.259 8.65334 121.471 8.30079 119.665C7.39884 114.995 7.23703 110.212 7.82132 105.492C8.98747 96.0823 13.1499 87.1506 20.4943 81.3485C20.6823 81.2001 20.8674 81.0559 21.0598 80.9106Z" fill="#E6E6E6"/>
<path d="M21.2731 81.1235C16.5562 91.878 15.2445 104.209 17.7935 115.69C18.3445 118.173 19.1196 120.643 20.4198 122.842C21.7035 124.977 23.5354 126.728 25.725 127.915C27.7444 129.062 29.9429 130.002 31.6482 131.621C33.4456 133.327 34.2574 135.667 34.2087 138.118C34.1491 141.118 33.0154 143.917 31.8116 146.616C30.475 149.612 29.0392 152.703 29.1514 156.06C29.165 156.467 28.533 156.465 28.5194 156.058C28.3242 150.217 32.5142 145.495 33.4151 139.883C33.8355 137.264 33.4692 134.502 31.6156 132.488C29.9948 130.726 27.7285 129.755 25.6737 128.611C23.5163 127.409 21.6762 125.919 20.3015 123.844C18.8953 121.722 18.0221 119.277 17.41 116.82C16.0634 111.237 15.6031 105.478 16.0457 99.7522C16.5146 93.2149 18.0984 86.806 20.7284 80.8027C20.8914 80.4312 21.4349 80.7544 21.2731 81.1235L21.2731 81.1235Z" fill="white"/>
<path d="M16.768 112.002C14.7646 112.158 12.771 111.596 11.1435 110.417C9.51597 109.239 8.3604 107.52 7.88316 105.568C7.78796 105.172 8.39776 105.006 8.4931 105.402C8.93414 107.22 10.0107 108.821 11.5285 109.916C13.0463 111.01 14.9054 111.526 16.7701 111.37C17.1754 111.337 17.171 111.969 16.768 112.002Z" fill="white"/>
<path d="M24.6245 127.468C27.3236 124.371 28.7563 120.371 28.637 116.265C28.6248 115.858 29.2568 115.861 29.2689 116.267C29.3851 120.54 27.8857 124.7 25.0699 127.916C24.8013 128.223 24.3574 127.773 24.6245 127.468L24.6245 127.468Z" fill="white"/>
<path d="M17.2578 93.6019C18.0455 93.7033 18.8461 93.6074 19.5876 93.323C20.3292 93.0385 20.9884 92.5743 21.5062 91.972C21.7708 91.6624 22.2144 92.1127 21.9516 92.4204C21.3764 93.0831 20.6477 93.5949 19.8291 93.911C19.0106 94.2271 18.127 94.338 17.2557 94.2339C17.1728 94.231 17.0941 94.1966 17.0356 94.1377C16.9771 94.0788 16.9432 93.9998 16.9408 93.9169C16.9415 93.8332 16.9752 93.7532 17.0345 93.6942C17.0939 93.6352 17.1741 93.6021 17.2578 93.6019V93.6019Z" fill="white"/>
<path d="M143.239 82.1894C145.097 71.9135 142.009 60.2533 133.581 54.0891C134.122 65.432 130.635 76.6011 123.734 85.6201C121.061 89.0887 117.726 92.6682 117.855 97.0458C117.936 99.7697 119.424 102.299 121.377 104.2C123.33 106.1 125.73 107.465 128.101 108.808L128.472 109.378C135.354 101.524 141.381 92.4652 143.239 82.1894Z" fill="#E6E6E6"/>
<path d="M133.428 54.247C137.001 62.1178 138.002 70.9139 136.29 79.3862C135.954 81.2166 135.331 82.9826 134.445 84.6191C133.531 86.1855 132.213 87.4783 130.63 88.3633C129.17 89.2181 127.578 89.9235 126.352 91.1183C125.733 91.7392 125.253 92.4838 124.942 93.3034C124.631 94.123 124.497 94.9991 124.549 95.8741C124.621 98.0577 125.473 100.085 126.375 102.039C127.377 104.209 128.452 106.446 128.402 108.892C128.396 109.188 128.856 109.18 128.862 108.884C128.949 104.629 125.853 101.23 125.144 97.1513C124.813 95.2482 125.053 93.2338 126.384 91.7493C127.548 90.4512 129.189 89.7225 130.674 88.8697C132.231 88.029 133.559 86.8198 134.541 85.3477C135.507 83.7616 136.197 82.0225 136.58 80.205C137.508 76.1269 137.788 71.9284 137.412 67.7632C137.008 63.0071 135.794 58.355 133.822 54.0083C133.7 53.7393 133.307 53.9798 133.428 54.247L133.428 54.247Z" fill="white"/>
<path d="M137.002 76.6905C138.462 76.7847 139.909 76.3567 141.083 75.483C142.257 74.6092 143.082 73.3466 143.411 71.9206C143.477 71.6318 143.031 71.5164 142.965 71.8055C142.661 73.134 141.892 74.31 140.798 75.1214C139.703 75.9328 138.354 76.3261 136.994 76.2303C136.699 76.2098 136.708 76.6701 137.002 76.6905V76.6905Z" fill="white"/>
<path d="M131.427 88.0273C129.433 85.7978 128.351 82.8984 128.399 79.9071C128.404 79.6108 127.944 79.6186 127.939 79.9146C127.895 83.0275 129.026 86.0425 131.107 88.358C131.306 88.5785 131.625 88.2466 131.427 88.0273V88.0273Z" fill="white"/>
<path d="M136.471 63.296C135.898 63.3772 135.314 63.315 134.772 63.1149C134.229 62.9147 133.744 62.583 133.362 62.1493C133.166 61.9263 132.847 62.2585 133.042 62.48C133.467 62.9572 134.002 63.3229 134.601 63.5454C135.2 63.7678 135.845 63.8402 136.478 63.7561C136.539 63.7532 136.596 63.7274 136.638 63.684C136.68 63.6405 136.704 63.5827 136.705 63.5223C136.703 63.4614 136.678 63.4034 136.634 63.361C136.591 63.3186 136.532 63.2953 136.471 63.2959L136.471 63.296Z" fill="white"/>
<path d="M99.3092 62.7798C99.4274 62.9225 99.5456 63.0652 99.6628 63.2117C101.242 65.1384 102.661 67.1902 103.908 69.3468C104.007 69.512 104.105 69.6809 104.199 69.8486C107.147 75.0765 109.099 80.8062 109.955 86.7466C110.294 89.1107 110.452 91.4971 110.429 93.8852C110.396 97.1834 110.098 100.757 111.127 103.784C111.231 104.101 111.354 104.411 111.496 104.713L127.748 109.787C127.79 109.779 127.832 109.776 127.875 109.769L128.515 110.002C128.524 109.878 128.532 109.751 128.542 109.627C128.548 109.556 128.55 109.484 128.556 109.412C128.559 109.364 128.562 109.316 128.567 109.273C128.568 109.257 128.569 109.241 128.569 109.229C128.574 109.186 128.574 109.145 128.578 109.106C128.623 108.391 128.662 107.675 128.696 106.957C128.697 106.954 128.697 106.954 128.695 106.949C128.941 101.479 128.733 95.9414 127.691 90.611C127.66 90.4506 127.63 90.2866 127.591 90.1239C127.108 87.7238 126.43 85.3672 125.563 83.0776C125.084 81.8255 124.542 80.5983 123.939 79.4009C122.376 76.3101 120.336 73.4844 117.894 71.0274C113.026 66.1302 106.646 62.8444 99.83 62.7796C99.6556 62.7781 99.4847 62.7776 99.3092 62.7798Z" fill="#E6E6E6"/>
<path d="M99.2813 62.9975C106.872 67.1312 112.968 73.5516 116.702 81.3468C117.535 83.0106 118.102 84.7955 118.379 86.6356C118.592 88.4369 118.319 90.2624 117.587 91.9222C116.937 93.4836 116.09 95.0053 115.83 96.6977C115.71 97.5659 115.775 98.4498 116.02 99.2913C116.265 100.133 116.686 100.913 117.254 101.58C118.626 103.281 120.527 104.387 122.424 105.403C124.53 106.532 126.735 107.672 128.168 109.655C128.341 109.895 128.704 109.611 128.531 109.372C126.038 105.922 121.52 105.072 118.498 102.242C117.088 100.922 116.067 99.1687 116.236 97.1823C116.383 95.4453 117.255 93.8753 117.927 92.3001C118.664 90.6913 118.996 88.9265 118.894 87.1598C118.711 85.3115 118.215 83.5078 117.426 81.826C115.712 78.0114 113.408 74.4901 110.599 71.3912C107.414 67.8366 103.643 64.8531 99.4518 62.5699C99.1923 62.4287 99.0235 62.8572 99.2813 62.9975L99.2813 62.9975Z" fill="white"/>
<path d="M115.647 78.766C116.87 77.9619 117.767 76.7494 118.178 75.3449C118.59 73.9404 118.488 72.4355 117.893 71.0988C117.771 70.8287 117.346 71.0048 117.467 71.2753C118.025 72.5189 118.119 73.9208 117.733 75.2279C117.347 76.535 116.507 77.6611 115.364 78.4031C115.116 78.5646 115.4 78.9266 115.647 78.766V78.766Z" fill="white"/>
<path d="M118.022 91.174C115.087 90.595 112.478 88.9309 110.715 86.5137C110.54 86.2741 110.178 86.5575 110.352 86.7968C112.191 89.3088 114.91 91.0349 117.965 91.6308C118.256 91.6874 118.311 91.2303 118.022 91.174V91.174Z" fill="white"/>
<path d="M107.159 68.391C106.75 68.8007 106.247 69.1025 105.693 69.2695C105.139 69.4364 104.552 69.4632 103.986 69.3474C103.695 69.2871 103.641 69.7443 103.929 69.8041C104.556 69.9291 105.204 69.8988 105.816 69.7157C106.428 69.5326 106.986 69.2024 107.442 68.7539C107.488 68.7152 107.518 68.6603 107.525 68.6003C107.533 68.5403 107.517 68.4797 107.481 68.4309C107.444 68.383 107.389 68.352 107.328 68.3445C107.268 68.337 107.207 68.3537 107.159 68.391L107.159 68.391Z" fill="white"/>
<path d="M16.2921 118.013C18.5421 118.013 20.6998 118.907 22.2908 120.498C23.8817 122.089 24.7755 124.246 24.7755 126.496V126.496C24.7752 128.464 24.0908 130.371 22.8396 131.89C21.5884 133.409 19.8481 134.445 17.9166 134.823V148.698H12.5017V118.013H16.2921Z" fill="#3F3D56"/>
<path d="M224.09 199.291V202.196C222.858 203.77 221.59 205.313 220.284 206.825C220.143 206.99 220 207.152 219.853 207.317C219.632 207.576 219.404 207.832 219.177 208.087V199.291H224.09Z" fill="#CACACA"/>
<path d="M209.676 193.231C208.59 193.232 207.549 193.664 206.781 194.432C206.013 195.2 205.581 196.241 205.58 197.327V203.221C205.581 204.307 206.013 205.348 206.781 206.116C207.549 206.884 208.59 207.316 209.676 207.317H219.853C220 207.152 220.143 206.99 220.284 206.825C221.59 205.313 222.858 203.77 224.09 202.196C224.171 202.093 224.252 201.99 224.33 201.887C225.034 200.986 225.726 200.07 226.406 199.147C226.936 198.424 227.462 197.695 227.977 196.959C227.98 196.956 227.983 196.956 227.983 196.953C228.843 195.731 229.682 194.49 230.499 193.231H209.676Z" fill="#3F3D56"/>
<path d="M235.882 142.776C235.256 142.56 234.599 142.45 233.937 142.451H232.263C231.653 142.452 231.047 142.543 230.464 142.723C229.235 143.109 228.161 143.877 227.398 144.915C226.636 145.953 226.223 147.207 226.222 148.496V197.67C226.222 197.854 226.231 198.034 226.247 198.212C226.274 198.528 226.327 198.84 226.406 199.147C226.936 198.424 227.462 197.695 227.977 196.959C227.98 196.956 227.983 196.956 227.983 196.953C228.843 195.731 229.682 194.49 230.499 193.231C230.938 192.554 231.375 191.872 231.802 191.186C234.888 186.235 237.621 181.072 239.981 175.737V148.496C239.98 147.234 239.584 146.004 238.849 144.978C238.114 143.953 237.076 143.182 235.882 142.776Z" fill="#3F3D56"/>
<path d="M29.5666 199.291V205.16C28.1638 203.483 26.8079 201.769 25.4986 200.017C25.3178 199.777 25.1401 199.534 24.9625 199.291H29.5666Z" fill="#CACACA"/>
<path d="M39.0678 193.231H20.7605C21.3372 194.119 21.9242 194.997 22.5217 195.865C23.3135 197.021 24.127 198.163 24.9625 199.291C25.1401 199.534 25.3178 199.777 25.4986 200.017C26.811 201.769 28.167 203.483 29.5666 205.16C29.8284 205.478 30.0934 205.793 30.3615 206.108C30.7044 206.513 31.0524 206.916 31.4057 207.317H39.0678C40.1534 207.316 41.1941 206.884 41.9615 206.116C42.7288 205.348 43.1601 204.307 43.1607 203.221V197.327C43.1601 196.241 42.7289 195.2 41.9615 194.432C41.1941 193.664 40.1534 193.232 39.0678 193.231V193.231Z" fill="#3F3D56"/>
<path d="M19.2704 143.134C18.4074 142.687 17.4496 142.452 16.4774 142.451H14.8066C14.016 142.45 13.233 142.606 12.503 142.91C11.397 143.367 10.4513 144.141 9.78549 145.135C9.11966 146.13 8.76361 147.299 8.76233 148.496V169.621C11.9098 177.896 15.932 185.81 20.7605 193.231C21.3371 194.119 21.9242 194.997 22.5217 195.865V148.496C22.5209 147.39 22.2174 146.306 21.6443 145.361C21.0712 144.416 20.2502 143.646 19.2704 143.134V143.134Z" fill="#3F3D56"/>
<path d="M87.3702 234.432L92.8615 233.172L90.6152 211.391L82.5105 213.251L87.3702 234.432Z" fill="#9E616A"/>
<path d="M92.3658 215.534C92.2533 215.151 92.1771 214.757 92.1383 214.359C92.0926 213.889 92.0008 213.424 91.8639 212.972C91.7079 212.56 91.5149 212.164 91.2873 211.787C91.1782 211.588 91.0628 211.388 90.9599 211.186C90.8564 210.983 90.7668 210.774 90.6919 210.559C87.478 201.067 82.9924 188.168 79.8814 180.618C78.0516 176.176 66.7985 174.699 56.1813 174.322C54.8876 174.275 53.6033 174.244 52.3471 174.228C51.9138 174.222 51.4836 174.216 51.0566 174.213C49.9656 174.206 48.9026 174.206 47.8801 174.219C47.7461 174.219 47.6121 174.219 47.478 174.222C46.733 174.228 46.0109 174.239 45.3116 174.253C40.5048 174.347 36.973 174.565 36.3434 174.605L30.7355 171.08L29.6414 170.391L29.526 171.08L28.6439 176.335L27.1382 185.304L30.9132 186.363L33.3633 187.049L47.8801 191.12L50.9662 191.987L50.9849 191.993L56.1813 191.984L70.3895 191.959L71.0753 193.776C70.829 194.159 70.667 194.589 70.6 195.039C70.533 195.489 70.5626 195.948 70.6867 196.385C70.8109 196.823 71.0267 197.229 71.32 197.577C71.6133 197.925 71.9772 198.206 72.3876 198.402L72.9207 198.655L79.4138 215.837C79.4337 217.391 79.9191 218.903 80.8072 220.179C80.9163 220.338 81.0348 220.494 81.1594 220.646L81.3028 220.818L83.7997 225.703L85.2866 225.36L91.6146 223.91L91.6457 223.848C91.6488 223.838 91.7299 223.667 91.8484 223.368V223.358C92.344 222.121 93.4412 218.739 92.3658 215.534Z" fill="#2F2E41"/>
<path d="M107.793 235.88C107.556 234.833 107.115 233.843 106.495 232.968C105.874 232.092 105.086 231.347 104.177 230.777C103.267 230.207 102.254 229.822 101.195 229.645C100.137 229.468 99.0535 229.502 98.008 229.746L93.6221 227.766L92.3939 228.63L87.3004 232.202L86.8796 232.299L85.5142 232.61L87.4001 240.831L107.855 236.139L107.793 235.88Z" fill="#2F2E41"/>
<path d="M80.6607 223.206L78.806 238.243L78.7436 238.736L78.4693 240.977C77.4001 240.541 76.334 240.089 75.2804 239.624C74.2954 239.191 73.3176 238.744 72.3471 238.284V223.209L80.6607 223.206Z" fill="#9E616A"/>
<path d="M40.4131 119.829C46.6234 119.829 51.6578 114.795 51.6578 108.584C51.6578 102.374 46.6234 97.3396 40.4131 97.3396C34.2028 97.3396 29.1683 102.374 29.1683 108.584C29.1683 114.795 34.2028 119.829 40.4131 119.829Z" fill="#9E616A"/>
<path d="M81.8546 228.945C81.5429 228.518 81.2187 228.072 81.2 227.645C81.1283 226.139 81.0535 224.649 80.9755 223.19C80.9194 222.171 80.8633 221.164 80.8072 220.179C80.801 220.054 80.7916 219.93 80.7854 219.808C80.6887 218.178 81.1719 216.457 81.6364 214.789C81.7891 214.244 81.9419 213.692 82.079 213.14C82.4219 211.911 82.5661 210.634 82.5061 209.359C81.7081 199.263 78.142 189.768 76.5429 188.168C74.1114 185.737 63.1171 180.12 56.1813 176.703C54.95 176.096 53.8465 175.559 52.9425 175.123C52.1414 174.733 51.4961 174.425 51.0566 174.213C50.7199 174.054 50.5017 173.951 50.4269 173.913L50.3895 173.895L47.8802 174.175L47.478 174.222L45.2648 174.471L30.8664 176.086L28.6439 176.336L25.4986 176.691L22.6588 177.009L22.5528 177.018L22.5341 177.124C22.5341 177.127 22.5279 177.149 22.5217 177.19C22.0333 180.271 22.0333 183.41 22.5217 186.491C22.8895 188.583 23.5846 190.709 24.8191 192.498C24.9874 192.741 25.162 192.975 25.349 193.2C25.3553 193.211 25.3638 193.222 25.3739 193.231C25.4144 193.281 25.455 193.331 25.4986 193.38V193.384C26.9106 195.026 28.8059 196.179 30.9132 196.678C31.2249 196.763 31.5429 196.831 31.8702 196.887C35.3583 197.504 39.2985 198.072 43.1607 198.571C44.7598 198.776 46.3465 198.97 47.8802 199.15C50.9506 199.512 53.8184 199.817 56.1813 200.061C59.4917 200.397 61.8172 200.606 62.3346 200.65L68.1171 227.626C67.6633 228.394 67.4822 229.292 67.6033 230.175C67.7244 231.059 68.1405 231.875 68.7841 232.492L69.2579 232.95L69.8066 235.519L71.6146 237.938L71.8421 238.243H79.819L79.8627 238.19C79.8907 238.153 82.6962 234.549 82.5061 230.257C82.4874 229.814 82.1788 229.394 81.8546 228.945Z" fill="#2F2E41"/>
<path d="M81.6368 138.535C81.0327 138.37 80.3998 138.339 79.7826 138.445C79.1653 138.551 78.5789 138.791 78.0644 139.148C77.55 139.505 77.1201 139.97 76.8051 140.512C76.49 141.053 76.2975 141.657 76.241 142.28L66.8979 145.2L67.2877 151.311L80.424 147.002C81.478 147.027 82.5048 146.665 83.3097 145.984C84.1146 145.303 84.6418 144.351 84.7913 143.307C84.9407 142.263 84.7022 141.201 84.1208 140.321C83.5394 139.442 82.6556 138.806 81.6368 138.535V138.535Z" fill="#9E616A"/>
<path d="M75.5408 148.646L68.5579 151.289L68.3794 151.636C68.1674 152.047 67.8765 152.412 67.5233 152.711C67.1701 153.01 66.7615 153.236 66.3209 153.377C65.8802 153.518 65.4161 153.571 64.9551 153.532C64.494 153.494 64.0451 153.365 63.6338 153.153V153.153L47.9386 159.093C47.9386 159.093 40.9294 152.079 35.9391 145.819L37.6399 135.358C38.0338 132.931 38.8711 130.597 40.1098 128.473C50.344 130.717 56.2187 145.024 56.2187 145.024L74.6633 141.504L75.5408 148.646Z" fill="#54B13F"/>
<path d="M38.8152 119.228C36.0001 119.988 32.8965 118.978 30.6996 117.06C28.5027 115.143 27.1284 112.426 26.3365 109.619C25.7566 107.564 25.4816 105.282 26.3968 103.353C27.312 101.423 29.775 100.121 31.6752 101.096C30.5029 99.7304 31.0886 97.4715 32.4576 96.3032C33.8267 95.1349 35.7066 94.7999 37.4971 94.6168C40.0956 94.3511 42.7797 94.3213 45.2524 95.1632C47.725 96.005 49.9717 97.8455 50.7455 100.34C51.5359 100.708 52.426 100.804 53.2764 100.612C54.1269 100.42 54.8896 99.951 55.4452 99.2791C55.5885 100.051 55.4734 100.848 55.1179 101.548C54.7623 102.248 54.1861 102.811 53.4783 103.15L57.2669 101.922C57.9185 103.301 56.7768 105.008 55.3168 105.449C53.8568 105.891 52.2809 105.408 50.8954 104.77C49.51 104.132 48.1674 103.325 46.6625 103.077C45.1576 102.828 43.3899 103.311 42.6939 104.668C42.3293 105.379 42.3103 106.212 42.0986 106.982C41.8869 107.752 41.3507 108.551 40.5543 108.614C40.0511 108.654 39.5585 108.386 39.0567 108.441C38.7488 108.501 38.4652 108.651 38.2408 108.87C38.0163 109.089 37.8606 109.369 37.7929 109.676C37.668 110.291 37.6664 110.924 37.7884 111.54L38.7508 118.896L38.8152 119.228Z" fill="#2F2E41"/>
<path d="M52.9425 175.123L52.3471 174.228L48.0017 167.71L47.9145 167.582L49.258 160.612L49.6757 158.436L50.589 153.701L50.3241 142.863L50.1339 135.194L50.1059 133.991L49.1426 131.055C48.686 129.682 47.9524 128.417 46.9873 127.339C46.0222 126.26 44.846 125.392 43.5317 124.786L37.0479 121.819C36.2848 121.471 35.415 121.441 34.6299 121.735C33.8447 122.029 33.2084 122.623 32.861 123.386C32.832 123.45 32.8051 123.514 32.7804 123.58C31.892 123.701 28.036 124.35 24.7661 126.887C22.4753 128.63 20.8761 131.128 20.2524 133.938C20.2461 133.96 20.243 133.982 20.2368 134.004C19.8035 135.939 19.4793 138.994 19.2704 143.134C19.1302 145.871 19.0418 149.077 19.0055 152.754C18.9473 158.882 19.292 165.007 20.0373 171.089C20.109 171.669 20.1838 172.246 20.2617 172.825C20.3272 173.312 20.7948 173.776 21.2467 174.222C21.6613 174.63 22.0884 175.054 22.1476 175.438C22.2006 175.774 21.9855 176.127 21.7299 176.494C21.6987 176.541 21.6645 176.588 21.6333 176.635C21.3153 177.087 20.988 177.557 21.0722 178.053C21.2686 179.169 21.3839 180.304 21.493 181.401C21.6149 182.912 21.8335 184.413 22.1476 185.896C22.2567 186.351 22.3814 186.809 22.5217 187.267C22.849 188.343 23.2449 189.415 23.6314 190.463C23.965 191.373 24.311 192.308 24.604 193.231C24.6601 193.402 24.7131 193.57 24.763 193.739L24.7879 193.826L24.8783 193.842H24.8845C25.0073 193.623 25.1537 193.418 25.3209 193.231C25.3285 193.219 25.338 193.208 25.349 193.199C25.3926 193.146 25.4425 193.09 25.4986 193.031C26.1813 192.286 27.6651 190.949 30.9132 188.695C31.6395 188.193 32.4531 187.648 33.3633 187.049C36.7019 184.864 41.3652 182.018 47.8802 178.343C49.5136 177.42 51.2665 176.444 53.1389 175.416L52.9425 175.123Z" fill="#54B13F"/>
<path d="M87.9082 243.695C87.151 242.935 86.2507 242.332 85.2593 241.922C84.2679 241.511 83.205 241.302 82.132 241.304L78.7436 238.736L78.2978 238.396L75.2804 239.624C76.334 240.089 77.4001 240.541 78.4693 240.977C81.8141 242.342 85.2295 243.562 88.7156 244.637C88.4706 244.303 88.2007 243.988 87.9082 243.695V243.695Z" fill="#2F2E41"/>
<path d="M163.167 234.219L158.923 232.19L164.753 214.451L171.016 217.447L163.167 234.219Z" fill="#FFB6B6"/>
<path d="M191.618 231.36C190.383 232.13 189.133 232.878 187.868 233.605V233.614L187.849 233.617L187.843 233.62L187.363 233.739L186.674 231.918L185.084 227.72L180.751 216.279L187.487 214.618L187.868 216.161L190.717 227.716L191.534 231.021L191.618 231.36Z" fill="#FFB6B6"/>
<path d="M174.437 157.12C175.043 158.103 176.008 158.811 177.128 159.092C178.248 159.373 179.433 159.205 180.43 158.624C180.631 158.503 180.821 158.365 180.999 158.212L194.416 165.911L193.833 158.008L181.182 151.908C180.493 151.216 179.595 150.773 178.627 150.647C177.66 150.521 176.678 150.719 175.835 151.211C174.871 151.791 174.176 152.729 173.903 153.82C173.631 154.912 173.803 156.067 174.382 157.031C174.4 157.061 174.419 157.091 174.437 157.12Z" fill="#FFB6B6"/>
<path d="M188.648 163.012L191.019 164.458L201.671 170.953C202.37 171.39 203.148 171.686 203.962 171.822C204.775 171.959 205.607 171.934 206.411 171.749C207.215 171.564 207.974 171.222 208.646 170.744C209.317 170.265 209.888 169.659 210.326 168.96L210.329 168.954C211.118 167.655 211.397 166.109 211.112 164.616L206.378 140.965C206.203 140.037 205.83 139.157 205.284 138.386C204.738 137.615 204.032 136.971 203.214 136.498C202.396 136.025 201.485 135.735 200.545 135.646C199.604 135.558 198.655 135.673 197.763 135.985C196.264 136.512 195.022 137.59 194.29 139C193.557 140.41 193.39 142.046 193.821 143.575L198.771 160.36L191.183 156.823L188.648 163.012Z" fill="#54B13F"/>
<path d="M232.322 186.332C232.319 186.323 232.313 186.289 232.303 186.236L232.294 186.202C232.272 186.089 232.247 185.965 232.219 185.827C231.583 182.669 230.766 179.55 229.772 176.485C229.183 174.608 228.403 172.797 227.444 171.08C227.413 171.024 227.378 170.968 227.344 170.912L227.229 170.725L226.259 171.08L226.222 171.092L211.484 176.495L207.222 178.056L207.088 178.106L206.362 181.068L196.172 179.749L187.868 178.673L185.483 178.365C184.449 178.23 183.399 178.302 182.393 178.578C181.388 178.853 180.447 179.325 179.626 179.967C178.769 180.632 178.053 181.46 177.519 182.404C176.985 183.348 176.645 184.389 176.518 185.466C176.487 185.703 176.468 185.943 176.459 186.18L175.739 213.041V213.075L176.072 213.742L183.039 227.72H187.868L190.717 227.717H193.033L188.217 215.531L188.326 215.366C188.779 214.671 189.065 213.881 189.16 213.057C189.256 212.233 189.159 211.399 188.878 210.619L189.42 209.048C190.545 205.803 190.012 204.244 189.339 202.274C188.734 200.672 188.379 198.987 188.285 197.277L188.173 195.054C191 195.55 193.635 196.102 196.172 196.657C197.02 196.841 197.859 197.027 198.691 197.215C201.057 197.741 203.342 198.25 205.58 198.673C210.112 199.537 214.454 200.064 218.915 199.736C219.002 199.73 219.09 199.724 219.177 199.715C220.262 199.627 221.353 199.487 222.456 199.291C223.077 199.178 223.7 199.051 224.33 198.901C224.504 198.857 224.682 198.814 224.856 198.77C225.341 198.642 225.808 198.455 226.247 198.212C226.871 197.864 227.451 197.443 227.977 196.959C227.98 196.956 227.983 196.956 227.983 196.953C228.843 195.731 229.682 194.49 230.499 193.231C230.938 192.554 231.375 191.872 231.802 191.186C232.425 189.475 232.662 187.748 232.322 186.332Z" fill="#2F2E41"/>
<path d="M232.425 181.285C232.378 181.086 232.319 180.883 232.257 180.687C231.762 179.2 231.185 177.741 230.53 176.317C229.794 174.696 228.912 172.959 227.861 171.08C227.353 170.169 226.807 169.223 226.222 168.24C225.929 167.747 225.624 167.246 225.308 166.734C225.296 166.711 225.283 166.688 225.268 166.666L225.178 166.516L210.595 168.467L205.165 169.194L204.841 171.9L204.763 172.57C204.76 172.57 204.76 172.57 204.763 172.573L204.545 174.4V174.403L204.255 176.815L204.23 176.812L196.172 175.768L187.868 174.693L183.407 174.116C182.373 173.981 181.323 174.053 180.317 174.328C179.312 174.604 178.371 175.076 177.55 175.718C176.693 176.383 175.977 177.211 175.443 178.155C174.909 179.099 174.569 180.14 174.442 181.217C174.414 181.435 174.395 181.66 174.386 181.881L170.178 191.853C167.659 197.817 166.056 204.126 165.421 210.568L162.335 220.434L162.774 220.475L169.314 221.083L171.041 221.245L174.844 215.693C175.277 215.06 175.689 214.409 176.072 213.742C176.703 212.652 177.265 211.524 177.752 210.363L185.979 190.787C186.615 190.896 187.244 191 187.868 191.098C190.751 191.566 193.519 191.947 196.172 192.242C204.797 193.206 212.266 193.28 218.915 192.464C220.782 192.236 222.587 191.937 224.33 191.566C224.969 191.432 225.599 191.288 226.222 191.133C226.368 191.098 226.512 191.064 226.655 191.027C227.943 190.694 229.128 190.044 230.1 189.136C231.072 188.228 231.801 187.09 232.219 185.827C232.719 184.364 232.791 182.788 232.425 181.285V181.285Z" fill="#2F2E41"/>
<path d="M201.417 122.411C206.987 122.411 211.503 117.794 211.503 112.099C211.503 106.405 206.987 101.788 201.417 101.788C195.846 101.788 191.33 106.405 191.33 112.099C191.33 117.794 195.846 122.411 201.417 122.411Z" fill="#FFB6B6"/>
<path d="M225.368 167.081C225.352 166.965 225.333 166.85 225.308 166.735C225.068 165.469 224.445 164.228 223.843 163.025C223.27 161.878 222.724 160.793 222.5 159.715C222.279 158.652 222.409 157.586 222.537 156.557C222.674 155.441 222.818 154.288 222.497 153.168C220.868 147.453 218.632 141.929 215.826 136.691C215.118 134.388 213.761 132.337 211.917 130.786C210.073 129.234 207.821 128.248 205.43 127.944C205.709 127.423 205.825 126.83 205.764 126.242C205.725 125.862 205.61 125.494 205.428 125.158C205.246 124.823 204.998 124.527 204.701 124.288C204.415 124.057 204.086 123.886 203.733 123.783C203.381 123.68 203.011 123.648 202.646 123.689L197.958 124.216C197.206 124.31 196.522 124.697 196.055 125.294C195.587 125.89 195.374 126.646 195.461 127.399C195.487 127.63 195.54 127.858 195.617 128.078C191.265 133.62 189.03 138.67 188.825 143.446V143.449C188.8 144.001 188.803 144.553 188.834 145.104C188.933 146.887 189.32 148.642 189.981 150.301C190.762 152.217 191.807 154.014 193.086 155.64C193.348 155.971 193.619 156.295 193.899 156.613C194.161 156.925 194.454 157.252 194.779 157.595L195.598 158.879L196.362 160.079L200.446 169.503L202.525 169.434L202.815 171.507L202.883 171.99L204.23 176.813L204.33 177.174L206.172 176.298L217.163 171.08L225.38 167.177L225.368 167.081Z" fill="#54B13F"/>
<path opacity="0.2" d="M190.105 150.251C191.042 152.546 192.359 154.667 194.002 156.525C194.283 156.861 194.58 157.191 194.891 157.521L196.487 160.025C202.368 155.616 207.134 138.257 207.134 138.257L200.498 136.966L190.105 150.251Z" fill="black"/>
<path d="M186.087 123.374C186.668 124.373 186.837 125.558 186.557 126.679C186.277 127.8 185.571 128.767 184.589 129.375C184.388 129.496 184.177 129.599 183.958 129.685L184.428 145.147L177.732 140.932L178.312 126.895C178.027 125.961 178.06 124.959 178.404 124.045C178.749 123.131 179.386 122.357 180.217 121.844C181.177 121.263 182.329 121.087 183.419 121.355C184.508 121.624 185.447 122.314 186.028 123.274C186.048 123.307 186.068 123.341 186.087 123.374Z" fill="#FFB6B6"/>
<path d="M185.016 139.311L177.653 140.358L177.969 155.607C177.988 156.694 178.284 157.759 178.83 158.701C179.376 159.642 180.153 160.428 181.088 160.983V160.983C182.231 161.656 183.561 161.938 184.878 161.789C186.195 161.639 187.428 161.066 188.391 160.154L205.776 143.433C206.999 142.272 207.731 140.688 207.821 139.004C207.911 137.32 207.353 135.666 206.261 134.382C205.191 133.115 203.662 132.326 202.01 132.187C200.358 132.048 198.718 132.571 197.452 133.641C197.402 133.682 197.353 133.725 197.305 133.768C197.133 133.922 196.97 134.085 196.816 134.256L185.336 147.462L185.016 139.311Z" fill="#54B13F"/>
<path d="M191.805 230.971L191.534 231.021L187.868 231.697L186.674 231.918L184.794 232.264L185.461 234.954C186.262 234.521 187.054 234.075 187.843 233.62L187.849 233.617L187.868 233.614V233.605C189.133 232.882 190.383 232.133 191.618 231.36C191.705 231.307 191.792 231.254 191.88 231.195L191.805 230.971Z" fill="#2F2E41"/>
<path d="M164.523 231.323L159.931 229.122L159.211 228.776L158.061 231.6L150.031 233.368C149.634 233.455 149.275 233.667 149.007 233.972C148.739 234.277 148.575 234.661 148.541 235.066C148.506 235.471 148.601 235.876 148.813 236.223C149.026 236.57 149.343 236.84 149.719 236.993L157.565 240.194L160.056 237.953L159.445 240.961L162.4 242.168L165.639 231.859L164.523 231.323Z" fill="#2F2E41"/>
<path d="M228.408 107.627C226.693 105.628 225.878 102.975 224.507 100.705C223.137 98.4342 220.752 96.4021 218.232 96.9305C216.495 97.2947 215.152 98.8275 214.473 100.536C213.793 102.245 213.666 104.13 213.547 105.976C213.589 102.182 211.089 98.5039 207.646 97.2933C204.203 96.0826 200.082 97.433 197.919 100.481C196.975 99.6059 195.742 99.1077 194.455 99.0806C193.168 99.0536 191.916 99.4998 190.936 100.334C189 102.064 188.572 105.356 189.995 107.562C191.419 109.769 194.501 110.591 196.763 109.367L197.562 110.103C197.112 111.677 197.985 113.536 199.452 114.129C200.642 114.609 202.322 114.529 202.767 115.778C203.078 116.651 202.497 117.582 201.878 118.252C201.26 118.923 200.525 119.615 200.451 120.543C200.339 121.942 201.785 122.923 203.1 123.218C206.271 123.93 209.789 122.462 211.616 119.664C211.651 119.61 211.69 119.556 211.731 119.502C212.756 118.191 213.504 116.684 213.927 115.075C214.35 113.465 214.441 111.786 214.194 110.14C214.091 109.493 214.195 109.012 214.641 108.859C216.568 108.197 221.967 109.586 223.601 110.842C225.236 112.098 226.544 113.76 228.118 115.096C229.692 116.433 231.698 117.464 233.697 117.1C235.298 116.809 236.659 115.647 237.575 114.245C238.491 112.843 239.018 111.209 239.49 109.585C235.951 111.63 231.106 110.774 228.408 107.627Z" fill="#2F2E41"/>
<path d="M196.171 169.093V228.382C195.042 229.158 193.899 229.914 192.742 230.648V173.024C192.742 171.353 192.181 169.997 191.492 169.994H139.593C138.901 169.997 138.343 171.353 138.34 173.024V249.539C137.648 249.607 136.956 249.673 136.264 249.729C135.977 249.754 135.688 249.776 135.401 249.797C135.236 249.492 135.073 249.183 134.911 248.872V169.093C134.911 168.632 134.93 168.167 134.961 167.709C135.242 163.819 136.635 160.976 138.265 160.969H192.817C193.014 160.971 193.209 161.012 193.39 161.091C194.756 161.671 195.834 164.214 196.105 167.503C196.149 168.027 196.174 168.56 196.171 169.093Z" fill="#E4E4E4"/>
<path d="M112.901 169.093V249.302C112.854 249.377 112.807 249.448 112.761 249.523C111.588 249.405 110.422 249.269 109.26 249.115V173.024C109.26 171.353 108.664 169.997 107.932 169.994H52.8478C52.1152 169.997 51.5199 171.353 51.5199 173.024V225.848C50.2886 224.941 49.0749 224.011 47.879 223.058V169.093C47.879 168.632 47.8977 168.167 47.932 167.709C48.2281 163.819 49.7088 160.976 51.4419 160.969H109.338C109.546 160.97 109.753 161.011 109.946 161.091C111.395 161.671 112.542 164.214 112.832 167.503C112.879 168.027 112.901 168.56 112.901 169.093Z" fill="#E4E4E4"/>
<path d="M94.4403 142.438L98.0503 158.321L100.357 160.848H102.021L95.1626 131.969L94.8231 136.875V136.878L94.4403 142.438Z" fill="#3F3D56"/>
<path d="M106.462 161.66C106.451 161.635 106.438 161.612 106.421 161.591C106.388 161.516 106.34 161.448 106.281 161.392L105.86 160.971L103.647 158.755C103.484 158.596 103.266 158.506 103.039 158.505H103.03L101.468 158.514L100.125 158.524L98.248 158.536L85.4674 158.617L77.0666 158.67C76.839 158.673 76.6217 158.765 76.4614 158.927C76.3011 159.088 76.2106 159.306 76.2094 159.534C76.2107 159.66 76.2383 159.784 76.2904 159.899L76.4525 160.245L76.7923 160.971L77.2349 161.922L77.4531 162.389C77.5227 162.538 77.6332 162.664 77.7718 162.752C77.9104 162.841 78.0712 162.888 78.2355 162.888H105.67C105.814 162.885 105.956 162.847 106.082 162.777C106.208 162.706 106.315 162.606 106.393 162.485C106.471 162.363 106.518 162.225 106.53 162.081C106.542 161.937 106.519 161.792 106.462 161.66H106.462Z" fill="#3F3D56"/>
<path opacity="0.17" d="M77.2354 161.921L77.4519 162.39C77.5224 162.538 77.6333 162.664 77.7719 162.752C77.9105 162.84 78.0711 162.887 78.2353 162.888H105.671C105.815 162.886 105.957 162.848 106.083 162.777C106.209 162.707 106.316 162.607 106.394 162.486C106.472 162.364 106.519 162.225 106.531 162.082C106.543 161.938 106.519 161.793 106.462 161.661C106.452 161.636 106.438 161.613 106.422 161.592L77.2354 161.921Z" fill="black"/>
<path opacity="0.17" d="M94.8231 136.875V136.878L100.697 160.848H102.021L95.1626 131.969L94.8231 136.875Z" fill="black"/>
<path d="M104.037 69.7955L103.176 69.6802C102.94 69.6494 102.701 69.7133 102.512 69.8578L101.998 70.2537L96.2716 77.4171C96.0825 77.5632 95.9592 77.7785 95.9287 78.0156L95.6077 80.4532L87.6152 141.267C87.5867 141.492 87.6434 141.72 87.7741 141.906L91.5397 152.286L91.6519 152.448L91.8951 152.794C92.0203 152.97 92.2036 153.096 92.4125 153.15L92.9581 153.287C93.082 153.318 93.2111 153.322 93.3368 153.3C93.4626 153.277 93.5821 153.228 93.6875 153.156C93.7933 153.085 93.8826 152.992 93.9493 152.883C94.016 152.774 94.0585 152.653 94.074 152.526L95.0497 145.113V145.11L95.6731 140.353L96.2 136.342V136.339L104.816 70.8055C104.847 70.5689 104.783 70.3296 104.638 70.1403C104.492 69.951 104.278 69.8272 104.041 69.7961L104.037 69.7955Z" fill="#3F3D56"/>
<path opacity="0.17" d="M101.997 70.2539L91.5391 152.287L91.6527 152.448L91.895 152.793C92.0201 152.969 92.2035 153.095 92.4126 153.149L92.9589 153.286C93.0826 153.317 93.2113 153.321 93.3367 153.298C93.4622 153.276 93.5814 153.227 93.6867 153.155C93.792 153.084 93.881 152.991 93.9478 152.882C94.0147 152.774 94.0579 152.652 94.0747 152.526L104.815 70.8064C104.846 70.5691 104.782 70.3291 104.636 70.1393C104.49 69.9495 104.275 69.8253 104.038 69.794L103.175 69.6806C103.058 69.6648 102.939 69.6725 102.825 69.7031C102.711 69.7337 102.604 69.7868 102.511 69.8591L101.997 70.2539Z" fill="black"/>
<path d="M101.688 72.6001L96.1389 80.5212L89.5429 130.709L93.1189 137.803L101.688 72.6001Z" fill="#54B13F"/>
<path d="M155.747 142.438L152.137 158.321L149.83 160.848H148.166L155.025 131.969L155.364 136.875V136.878L155.747 142.438Z" fill="#3F3D56"/>
<path d="M173.12 158.67L151.942 158.536L150.062 158.524L148.722 158.514L147.16 158.505H147.148C146.921 158.506 146.704 158.595 146.543 158.754L143.906 161.392C143.847 161.449 143.8 161.517 143.765 161.591C143.749 161.612 143.735 161.635 143.725 161.66C143.668 161.792 143.644 161.937 143.656 162.081C143.668 162.225 143.715 162.363 143.794 162.485C143.872 162.606 143.979 162.706 144.105 162.777C144.231 162.847 144.372 162.885 144.517 162.888H171.951C172.116 162.887 172.277 162.84 172.416 162.752C172.555 162.664 172.666 162.538 172.737 162.389L172.952 161.922L173.395 160.971L173.896 159.899C173.95 159.784 173.978 159.66 173.977 159.534C173.976 159.306 173.886 159.088 173.725 158.927C173.565 158.765 173.348 158.673 173.12 158.67V158.67Z" fill="#3F3D56"/>
<path opacity="0.17" d="M172.952 161.921L172.735 162.39C172.665 162.538 172.554 162.664 172.415 162.752C172.277 162.84 172.116 162.887 171.952 162.888H144.516C144.372 162.886 144.231 162.848 144.104 162.777C143.978 162.707 143.872 162.607 143.793 162.486C143.715 162.364 143.668 162.225 143.656 162.082C143.645 161.938 143.668 161.793 143.726 161.661C143.735 161.636 143.749 161.613 143.765 161.592L172.952 161.921Z" fill="black"/>
<path opacity="0.17" d="M155.364 136.875V136.878L149.491 160.848H148.166L155.025 131.969L155.364 136.875Z" fill="black"/>
<path d="M162.572 141.267L154.258 78.0157C154.228 77.7786 154.104 77.5633 153.915 77.4172L148.192 70.2538L147.678 69.8579C147.487 69.7137 147.248 69.6499 147.01 69.6803L146.15 69.7956C145.913 69.8262 145.697 69.9498 145.551 70.1392C145.405 70.3286 145.34 70.5683 145.371 70.8056V70.8056L153.987 136.342V136.345L154.514 140.354L155.14 145.114V145.12L156.113 152.526C156.128 152.653 156.171 152.775 156.238 152.884C156.306 152.993 156.396 153.085 156.502 153.156C156.607 153.228 156.726 153.277 156.851 153.3C156.977 153.322 157.105 153.318 157.229 153.287L157.774 153.15C157.983 153.096 158.166 152.97 158.292 152.794L158.535 152.448L158.647 152.286L162.413 141.906C162.545 141.721 162.602 141.492 162.572 141.267V141.267Z" fill="#3F3D56"/>
<path opacity="0.17" d="M148.19 70.2542L158.648 152.288L158.534 152.448L158.292 152.793C158.167 152.969 157.984 153.095 157.774 153.149L157.228 153.286C157.105 153.317 156.976 153.321 156.85 153.299C156.725 153.276 156.606 153.227 156.5 153.156C156.395 153.084 156.306 152.991 156.239 152.882C156.172 152.774 156.129 152.653 156.112 152.526L145.372 70.8066C145.341 70.5693 145.405 70.3294 145.551 70.1395C145.697 69.9497 145.912 69.8255 146.149 69.7942L147.012 69.6809C147.129 69.6651 147.248 69.6727 147.362 69.7033C147.476 69.734 147.583 69.787 147.676 69.8594L148.19 70.2542Z" fill="black"/>
<path d="M148.499 72.6001L154.048 80.5212L160.644 130.709L157.068 137.803L148.499 72.6001Z" fill="#54B13F"/>
<path d="M45.3521 173.786C45.353 173.942 45.3394 174.099 45.3116 174.253C45.2991 174.328 45.2835 174.4 45.2648 174.471C45.113 175.051 44.7734 175.564 44.299 175.93C43.8247 176.296 43.2424 176.495 42.6433 176.494H30.9132V204.471C30.9137 205.063 30.7199 205.638 30.3615 206.108C30.0934 205.793 29.8284 205.478 29.5666 205.16C28.1638 203.483 26.8079 201.769 25.4986 200.017V176.494H20.2617C19.5634 176.494 18.8923 176.224 18.3886 175.74C17.8848 175.257 17.5874 174.597 17.5584 173.899C17.5295 173.202 17.7712 172.52 18.2331 171.996C18.695 171.472 19.3414 171.148 20.0373 171.089C20.1121 171.083 20.1869 171.08 20.2617 171.08H42.6433C43.3612 171.08 44.0499 171.364 44.5579 171.872C45.0659 172.379 45.3515 173.068 45.3521 173.786V173.786Z" fill="#3F3D56"/>
<path d="M232.269 173.786C232.269 174.334 232.103 174.869 231.793 175.321C231.482 175.773 231.042 176.12 230.53 176.317C230.287 176.41 230.032 176.466 229.772 176.485C229.704 176.491 229.632 176.494 229.563 176.494H224.33V201.887C224.252 201.99 224.171 202.093 224.09 202.196C222.858 203.77 221.59 205.313 220.283 206.825C219.867 206.59 219.52 206.248 219.279 205.834C219.039 205.42 218.913 204.95 218.915 204.471V176.494H207.182C206.836 176.496 206.493 176.429 206.172 176.298C205.768 176.137 205.409 175.88 205.126 175.55C204.843 175.22 204.643 174.826 204.545 174.403V174.4C204.399 173.784 204.477 173.137 204.763 172.573C204.76 172.57 204.76 172.57 204.763 172.57C204.887 172.322 205.049 172.094 205.243 171.897C205.495 171.638 205.797 171.433 206.13 171.292C206.463 171.152 206.821 171.08 207.182 171.08H229.563C230.281 171.08 230.969 171.365 231.476 171.872C231.984 172.379 232.269 173.067 232.269 173.785L232.269 173.786Z" fill="#3F3D56"/>
<path d="M232.09 121.623C230.976 121.623 229.873 121.842 228.844 122.269C227.814 122.695 226.879 123.32 226.091 124.108C225.304 124.895 224.679 125.83 224.252 126.86C223.826 127.889 223.607 128.992 223.607 130.106V130.106C223.607 132.074 224.291 133.981 225.543 135.5C226.794 137.019 228.534 138.055 230.466 138.432V152.307H235.88V121.623H232.09Z" fill="#3F3D56"/>
<path d="M83.9761 152.6C83.436 152.283 82.8331 152.088 82.2096 152.029C81.5861 151.971 80.9573 152.049 80.3676 152.26C79.7778 152.47 79.2413 152.808 78.796 153.248C78.3507 153.688 78.0073 154.221 77.79 154.808L68.0087 155.189L66.6908 159.746L80.5963 160.457C81.6072 160.757 82.6929 160.675 83.6476 160.228C84.6023 159.781 85.3597 158.998 85.7763 158.03C86.1929 157.061 86.2398 155.974 85.908 154.973C85.5762 153.972 84.8889 153.128 83.9762 152.6H83.9761Z" fill="#9E616A"/>
<path d="M75.9416 160.949L65.8941 160.823L64.6223 160.806L44.1804 160.549C44.1804 160.549 38.6292 155.253 33.7955 149.8L34.473 144.9C35.1339 140.091 37.5195 135.685 41.186 132.504C48.109 137.13 52.1238 146.286 52.1238 146.286L58.8554 149.298C63.5928 149.51 68.2091 150.862 72.3124 153.239L74.5261 154.522L75.9416 160.949Z" fill="#54B13F"/>
<path d="M107.509 248.873H143.75C141.278 249.234 138.783 249.52 136.265 249.73H114.994C112.475 249.521 109.98 249.235 107.509 248.873Z" fill="#CCCCCC"/>
<path d="M114.795 230.628C115.497 224.298 119.33 218.019 125.33 215.882C123.04 222.418 123.136 229.554 125.601 236.026C126.56 238.519 127.887 241.192 127.05 243.728C126.529 245.306 125.219 246.526 123.747 247.297C122.274 248.069 120.634 248.449 119.015 248.822L118.698 249.09C116.042 243.302 114.094 236.958 114.795 230.628Z" fill="#CCCCCC"/>
<path d="M125.391 216.001C121.934 219.98 119.818 224.948 119.345 230.198C119.223 231.327 119.28 232.467 119.513 233.578C119.776 234.653 120.321 235.638 121.092 236.43C121.797 237.184 122.605 237.873 123.114 238.785C123.368 239.256 123.519 239.775 123.558 240.308C123.597 240.841 123.523 241.376 123.341 241.879C122.919 243.143 122.068 244.18 121.201 245.165C120.238 246.259 119.22 247.38 118.824 248.818C118.776 248.993 118.508 248.908 118.556 248.734C119.246 246.231 121.647 244.783 122.771 242.522C123.295 241.467 123.505 240.248 122.986 239.148C122.531 238.187 121.699 237.476 120.979 236.719C120.215 235.957 119.649 235.019 119.331 233.987C119.042 232.892 118.941 231.755 119.033 230.626C119.2 228.081 119.767 225.578 120.711 223.209C121.775 220.499 123.294 217.99 125.203 215.792C125.321 215.656 125.509 215.865 125.391 216.001H125.391Z" fill="white"/>
<path d="M119.398 228.499C118.528 228.3 117.757 227.798 117.223 227.083C116.688 226.368 116.426 225.486 116.481 224.595C116.484 224.559 116.501 224.525 116.528 224.501C116.555 224.477 116.59 224.464 116.627 224.465C116.663 224.467 116.697 224.482 116.723 224.508C116.748 224.534 116.762 224.569 116.762 224.606C116.708 225.435 116.953 226.256 117.452 226.921C117.951 227.586 118.671 228.05 119.483 228.231C119.659 228.27 119.573 228.538 119.398 228.499H119.398Z" fill="white"/>
<path d="M120.685 236.095C122.239 235.139 123.375 233.632 123.867 231.875C123.916 231.701 124.184 231.786 124.135 231.96C123.619 233.787 122.434 235.353 120.814 236.344C120.66 236.439 120.531 236.189 120.685 236.095Z" fill="white"/>
<path d="M122.039 220.761C122.359 220.908 122.711 220.973 123.063 220.951C123.415 220.928 123.756 220.819 124.056 220.632C124.209 220.535 124.337 220.785 124.185 220.881C123.854 221.086 123.477 221.206 123.088 221.232C122.699 221.258 122.31 221.188 121.954 221.029C121.919 221.017 121.891 220.992 121.874 220.959C121.857 220.926 121.853 220.888 121.863 220.853C121.874 220.817 121.899 220.788 121.932 220.771C121.965 220.753 122.003 220.75 122.039 220.761L122.039 220.761Z" fill="white"/>
<path d="M143.852 226.924C143.758 226.987 143.664 227.049 143.57 227.115C142.312 227.966 141.125 228.919 140.021 229.963C139.934 230.042 139.848 230.124 139.764 230.205C137.131 232.749 134.993 235.758 133.459 239.082C132.85 240.405 132.342 241.773 131.941 243.173C131.386 245.106 130.939 247.247 129.811 248.838C129.695 249.005 129.569 249.165 129.433 249.316L119.051 249.455C119.027 249.444 119.003 249.435 118.979 249.423L118.565 249.448C118.581 249.374 118.598 249.298 118.614 249.224C118.623 249.181 118.634 249.139 118.643 249.096C118.65 249.067 118.657 249.039 118.661 249.013C118.663 249.003 118.666 248.994 118.668 248.987C118.672 248.96 118.679 248.937 118.683 248.913C118.782 248.488 118.884 248.062 118.989 247.637C118.988 247.634 118.988 247.634 118.991 247.632C119.759 244.382 120.91 241.235 122.419 238.256C122.466 238.168 122.512 238.077 122.563 237.989C123.262 236.67 124.069 235.41 124.974 234.222C125.472 233.574 126.002 232.951 126.563 232.355C128.014 230.821 129.698 229.524 131.553 228.512C135.25 226.496 139.552 225.685 143.547 226.833C143.649 226.863 143.749 226.892 143.852 226.924Z" fill="#CCCCCC"/>
<path d="M143.83 227.056C138.674 228.152 133.994 230.845 130.455 234.752C129.678 235.579 129.037 236.524 128.554 237.552C128.116 238.568 127.959 239.682 128.098 240.78C128.206 241.806 128.436 242.842 128.294 243.877C128.213 244.405 128.022 244.911 127.732 245.36C127.442 245.809 127.061 246.192 126.612 246.484C125.515 247.239 124.211 247.555 122.925 247.819C121.498 248.113 120.01 248.395 118.828 249.305C118.685 249.415 118.522 249.187 118.665 249.076C120.722 247.493 123.512 247.783 125.77 246.654C126.824 246.128 127.726 245.28 127.973 244.09C128.189 243.049 127.952 241.979 127.833 240.942C127.682 239.873 127.795 238.783 128.162 237.768C128.591 236.72 129.195 235.752 129.948 234.906C131.614 232.974 133.573 231.317 135.754 229.994C138.234 228.47 140.957 227.382 143.805 226.776C143.981 226.739 144.005 227.019 143.83 227.056H143.83Z" fill="white"/>
<path d="M131.52 233.427C130.945 232.744 130.632 231.879 130.636 230.987C130.64 230.094 130.961 229.232 131.541 228.554C131.659 228.417 131.877 228.594 131.759 228.731C131.217 229.361 130.918 230.164 130.916 230.996C130.915 231.827 131.21 232.631 131.749 233.264C131.866 233.401 131.637 233.564 131.52 233.427Z" fill="white"/>
<path d="M127.974 240.267C129.79 240.439 131.605 239.92 133.056 238.814C133.199 238.704 133.362 238.933 133.219 239.042C131.707 240.191 129.817 240.727 127.927 240.544C127.747 240.526 127.795 240.249 127.974 240.267V240.267Z" fill="white"/>
<path d="M138.287 228.838C138.455 229.149 138.697 229.413 138.991 229.607C139.286 229.801 139.624 229.919 139.976 229.949C140.156 229.965 140.108 230.241 139.929 230.226C139.541 230.19 139.168 230.06 138.842 229.846C138.516 229.633 138.247 229.343 138.059 229.001C138.038 228.971 138.03 228.933 138.036 228.897C138.042 228.861 138.062 228.828 138.091 228.806C138.122 228.784 138.159 228.776 138.196 228.782C138.233 228.788 138.265 228.808 138.287 228.838V228.838Z" fill="white"/>
<path d="M149.237 235.742C151.061 235.742 152.539 234.264 152.539 232.44C152.539 230.617 151.061 229.138 149.237 229.138C147.414 229.138 145.935 230.617 145.935 232.44C145.935 234.264 147.414 235.742 149.237 235.742Z" fill="#CCCCCC"/>
<path d="M160.018 245.386C159.815 245.445 159.609 245.504 159.404 245.56C157.536 246.084 155.656 246.563 153.762 246.997C153.544 246.557 153.427 246.074 153.419 245.583C153.412 245.091 153.514 244.605 153.718 244.158C153.923 243.711 154.225 243.316 154.601 243.001C154.978 242.686 155.421 242.458 155.896 242.336C156.372 242.213 156.869 242.198 157.351 242.292C157.834 242.386 158.289 242.587 158.684 242.879C159.079 243.171 159.403 243.548 159.634 243.982C159.865 244.415 159.996 244.895 160.018 245.386V245.386Z" fill="#CCCCCC"/>
<path d="M178.883 238.297C178.631 238.416 178.378 238.534 178.126 238.65C177.851 238.781 177.574 238.905 177.3 239.03C176.991 239.17 176.685 239.307 176.377 239.445C175.217 239.962 174.045 240.461 172.87 240.941C172.854 240.916 172.839 240.888 172.823 240.86C172.412 240.088 172.323 239.185 172.576 238.348C172.83 237.511 173.405 236.809 174.175 236.395C174.946 235.982 175.849 235.891 176.686 236.142C177.524 236.394 178.228 236.967 178.643 237.736C178.739 237.916 178.819 238.104 178.883 238.297Z" fill="#CCCCCC"/>
<path d="M160.884 227.637C162.707 227.637 164.186 226.159 164.186 224.335C164.186 222.512 162.707 221.033 160.884 221.033C159.06 221.033 157.582 222.512 157.582 224.335C157.582 226.159 159.06 227.637 160.884 227.637Z" fill="#CCCCCC"/>
<path d="M130.594 43.4134C111.171 48.5225 89.6495 51.6303 67.7667 52.4813C64.5598 52.656 61.3451 52.6341 58.1408 52.4158C51.099 51.8236 45.0672 49.6104 38.3497 48.4009C35.1202 47.8211 31.523 47.3971 28.2717 46.7706C29.023 45.8385 29.7877 44.9179 30.566 44.0087C37.5766 44.601 44.6963 46.5399 51.791 47.4408C63.8515 48.9744 77.3646 47.2631 86.5074 43.0424C90.9432 40.9944 94.3409 38.4383 98.7611 36.3809C99.3623 36.0723 100.014 35.8728 100.684 35.7918C102.084 35.664 103.312 36.2282 104.313 36.7332C111.729 40.4769 122.496 43.5193 132.489 41.8454C133.234 42.4283 131.819 43.0923 130.594 43.4134Z" fill="white"/>
<path d="M174.818 56.5882C174.909 56.5715 175.001 56.5585 175.092 56.5427C174.708 56.3048 174.347 56.0324 174.012 55.729L174.818 56.5882Z" fill="white"/>
<path d="M234.643 63.9744C230.469 64.3079 226.274 64.5562 222.056 64.7194C218.849 64.8925 215.634 64.8706 212.43 64.6539C205.388 64.0585 199.356 61.8484 192.639 60.639C186.482 59.5323 179.001 58.9993 175.092 56.5429C185.195 54.7942 195.663 58.354 206.08 59.6789C214.507 60.715 223.049 60.2933 231.333 58.432C232.486 60.2462 233.59 62.0937 234.643 63.9744Z" fill="white"/>
<path d="M140.684 110.734C130.906 77.1714 125.15 42.5662 125.15 7.60826V5.07471H121.901V7.6082C121.901 42.5662 116.146 77.1714 106.368 110.734C105.895 112.359 105.656 114.043 105.657 115.735V115.735C105.657 116.375 105.783 117.008 106.028 117.6C106.272 118.191 106.631 118.728 107.084 119.181C107.537 119.633 108.074 119.992 108.665 120.237C109.256 120.482 109.89 120.608 110.53 120.608H117.028C117.028 121.461 117.196 122.306 117.523 123.095C117.849 123.883 118.328 124.599 118.931 125.203C119.535 125.806 120.251 126.285 121.039 126.611C121.828 126.938 122.673 127.106 123.526 127.106C124.379 127.106 125.224 126.938 126.012 126.611C126.801 126.285 127.517 125.806 128.121 125.203C128.724 124.599 129.203 123.883 129.529 123.095C129.856 122.306 130.024 121.461 130.024 120.608H135.08V134.613C134.367 134.634 133.689 134.927 133.185 135.432C132.681 135.937 132.389 136.616 132.37 137.329C132.351 138.043 132.605 138.736 133.081 139.268C133.557 139.799 134.219 140.128 134.93 140.188C135.641 140.247 136.347 140.032 136.905 139.586C137.462 139.141 137.828 138.499 137.927 137.792C138.026 137.086 137.851 136.368 137.437 135.786C137.024 135.205 136.404 134.804 135.704 134.665V120.608H136.522C137.814 120.608 139.054 120.095 139.968 119.181C140.882 118.267 141.395 117.027 141.395 115.735V115.735C141.396 114.043 141.157 112.359 140.684 110.734V110.734Z" fill="white"/>
</svg>
