<svg width="130" height="130" viewBox="0 0 130 130" fill="none" xmlns="http://www.w3.org/2000/svg">
<path fill-rule="evenodd" clip-rule="evenodd" d="M52.1 107.3C53.8333 107.3 55.4667 106.9 57 106.1C57.5333 103.5 58.5667 100 60.1 95.6C61.6333 91.2 63.4667 86.4667 65.6 81.4C67.8 76.3333 70.2333 71.1667 72.9 65.9C75.6333 60.5667 78.4333 55.6667 81.3 51.2C84.1667 46.6667 87 42.8 89.8 39.6C92.6667 36.4 95.3333 34.3667 97.8 33.5C97.4667 32.7667 97 32.0333 96.4 31.3C95.8 30.5667 95.1333 29.9 94.4 29.3C93.6667 28.7 92.8667 28.2 92 27.8C91.2 27.3333 90.4333 27.0333 89.7 26.9C88.6333 27.0333 87.2667 28.1 85.6 30.1C83.9333 32.0333 82.0333 34.7 79.9 38.1C77.8333 41.4333 75.6333 45.3667 73.3 49.9C70.9667 54.4333 68.6 59.3333 66.2 64.6C63.8667 69.8 61.5667 75.2333 59.3 80.9C57.1 86.5667 55.0667 92.2333 53.2 97.9C52.9333 96.3 52.7 94.7 52.5 93.1C52.3 91.4333 52.1333 89.6667 52 87.8C51.9333 85.8667 51.8667 83.7333 51.8 81.4C51.7333 79 51.7 76.3 51.7 73.3C51.7 69.3 51.7667 65.2667 51.9 61.2C52.0333 57.1333 52.2333 53.2667 52.5 49.6C52.8333 45.9333 53.2333 42.6 53.7 39.6C54.2333 36.6 54.8333 34.1667 55.5 32.3C55.3667 31.8333 54.6333 31.2667 53.3 30.6C51.9667 29.8667 50.4333 29.1667 48.7 28.5C47.0333 27.8333 45.3333 27.2667 43.6 26.8C41.8667 26.2667 40.5667 26 39.7 26C39.7 31.0667 39.6667 35.7667 39.6 40.1C39.5333 44.3667 39.4333 48.4 39.3 52.2C39.2333 55.9333 39.1667 59.4667 39.1 62.8C39.0333 66.1333 39 69.3 39 72.3C39 74.5667 39.0333 76.8333 39.1 79.1C39.1667 81.3 39.3 83.6333 39.5 86.1C39.7 88.5 39.9667 91.0667 40.3 93.8C40.6333 96.5333 41.0667 99.5333 41.6 102.8C42.5333 103.933 43.9667 104.9 45.9 105.7C47.9 106.5 49.9667 107.033 52.1 107.3Z" fill="#53C4E7"/>
</svg>
